<?xml version="1.0" encoding="UTF-8" standalone="no"?>
<!-- Created with Inkscape (http://www.inkscape.org/) -->

<svg
   xmlns:dc="http://purl.org/dc/elements/1.1/"
   xmlns:cc="http://creativecommons.org/ns#"
   xmlns:rdf="http://www.w3.org/1999/02/22-rdf-syntax-ns#"
   xmlns:svg="http://www.w3.org/2000/svg"
   xmlns="http://www.w3.org/2000/svg"
   xmlns:sodipodi="http://sodipodi.sourceforge.net/DTD/sodipodi-0.dtd"
   xmlns:inkscape="http://www.inkscape.org/namespaces/inkscape"
   width="400px"
   height="248px"
   viewBox="0 0 400 248"
   version="1.1"
   id="SVGRoot"
   inkscape:version="0.92.5 (2060ec1f9f, 2020-04-08)"
   sodipodi:docname="logo-criptoclouds-white.svg">
  <defs
     id="defs14117" />
  <sodipodi:namedview
     id="base"
     pagecolor="#ffffff"
     bordercolor="#666666"
     borderopacity="1.0"
     inkscape:pageopacity="0.0"
     inkscape:pageshadow="2"
     inkscape:zoom="1.4"
     inkscape:cx="238.93826"
     inkscape:cy="76.563492"
     inkscape:document-units="px"
     inkscape:current-layer="layer1"
     showgrid="false"
     inkscape:window-width="1280"
     inkscape:window-height="961"
     inkscape:window-x="-8"
     inkscape:window-y="-8"
     inkscape:window-maximized="1"
     inkscape:showpageshadow="false"
     inkscape:pagecheckerboard="true" />
  <metadata
     id="metadata14120">
    <rdf:RDF>
      <cc:Work
         rdf:about="">
        <dc:format>image/svg+xml</dc:format>
        <dc:type
           rdf:resource="http://purl.org/dc/dcmitype/StillImage" />
        <dc:title></dc:title>
      </cc:Work>
    </rdf:RDF>
  </metadata>
  <g
     inkscape:label="Capa 1"
     inkscape:groupmode="layer"
     id="layer1">
    <path
       style="fill:#ffffff;fill-opacity:1;stroke-width:11.50069046"
       inkscape:connector-curvature="0"
       id="Trazado_13"
       data-name="Trazado 13"
       d="m 71.286171,61.059279 a 7.4524474,7.4524474 0 0 1 -4.8762,1.3687 7.2109328,7.2109328 0 0 1 -4.853509,-1.541114 7.9239759,7.9239759 0 0 1 -2.392153,-4.818816 l -6.508555,0.633371 a 12.650759,12.650759 0 0 0 4.024508,8.476012 14.364363,14.364363 0 0 0 9.660534,2.909632 18.769126,18.769126 0 0 0 7.211074,-1.207554 9.4880698,9.4880698 0 0 0 4.474066,-3.70326 9.7640864,9.7640864 0 0 0 1.585872,-5.336269 9.8790931,9.8790931 0 0 0 -1.322061,-5.278858 9.3270599,9.3270599 0 0 0 -3.668777,-3.369673 32.466449,32.466449 0 0 0 -7.221924,-2.392075 17.561554,17.561554 0 0 1 -6.152825,-2.21974 2.5301519,2.5301519 0 0 1 -1.004892,-2.012528 2.4036442,2.4036442 0 0 1 1.0691,-2.058697 7.6364586,7.6364586 0 0 1 4.60154,-1.150039 6.7509053,6.7509053 0 0 1 4.242856,1.150039 5.7503452,5.7503452 0 0 1 1.839826,3.680254 l 6.693309,-0.299392 a 9.66058,9.66058 0 0 0 -3.311086,-7.302967 13.99634,13.99634 0 0 0 -9.396723,-2.737244 16.572495,16.572495 0 0 0 -6.520398,1.150143 9.0050407,9.0050407 0 0 0 -4.140113,3.358144 8.5220116,8.5220116 0 0 0 -1.437666,4.738374 8.6255177,8.6255177 0 0 0 3.046282,6.670303 18.182591,18.182591 0 0 0 7.556897,3.27778 q 4.1747,1.034826 5.359405,1.449143 a 5.5203315,5.5203315 0 0 1 2.404022,1.437561 3.0131808,3.0131808 0 0 1 0.69167,2.001078 4.0712443,4.0712443 0 0 1 -1.655046,3.128189 z" />
    <path
       style="fill:#ffffff;fill-opacity:1;stroke-width:11.50069046"
       inkscape:connector-curvature="0"
       id="Trazado_14"
       data-name="Trazado 14"
       d="m 214.26264,126.49834 a 31.948919,31.948919 0 0 0 -8.17743,-1.05805 c -1.70147,0 -3.44941,0 -5.10545,0 h -2.46133 a 0.8280497,0.8280497 0 0 0 -0.6719,0.23033 0.83955035,0.83955035 0 0 0 -0.23712,0.65609 q 0,0.16104 0,0.32211 v 21.13828 a 1.150069,1.150069 0 0 0 0.23712,0.89618 0.9775587,0.9775587 0 0 0 0.76082,0.23033 c 1.0464,0 2.08191,0 3.11645,0 h 1.8981 a 56.249876,56.249876 0 0 0 6.29018,-0.27665 21.747805,21.747805 0 0 0 5.42855,-1.20755 8.7980282,8.7980282 0 0 0 5.61237,-6.07231 16.100966,16.100966 0 0 0 0.21725,-7.93542 8.6370184,8.6370184 0 0 0 -3.02553,-5.01437 10.500131,10.500131 0 0 0 -3.88715,-1.90908 z" />
    <path
       style="fill:#ffffff;fill-opacity:1;stroke-width:11.50069046"
       inkscape:connector-curvature="0"
       id="Trazado_15"
       data-name="Trazado 15"
       d="m 197.89693,118.28692 a 0.90855452,0.90855452 0 0 0 0.71141,0.23032 h 5.25564 a 35.560134,35.560134 0 0 0 5.7497,-0.414 15.870953,15.870953 0 0 0 4.60055,-1.34559 7.2224334,7.2224334 0 0 0 3.77251,-4.15185 14.088346,14.088346 0 0 0 0.29644,-8.59094 7.0614238,7.0614238 0 0 0 -4.31303,-4.887784 c -0.32605,-0.126534 -0.66199,-0.264805 -1.01574,-0.391286 a 22.47235,22.47235 0 0 0 -6.26746,-1.05804 c -1.79436,-0.09882 -3.61144,-0.07895 -5.3821,-0.06928 h -2.59967 a 0.85105113,0.85105113 0 0 0 -0.67191,0.230322 0.83955035,0.83955035 0 0 0 -0.23712,0.656089 c 0,0.09882 0,0.183787 0,0.287549 v 18.66548 a 1.0465629,1.0465629 0 0 0 0.11843,0.8389 z" />
    <path
       style="fill:#ffffff;fill-opacity:1;stroke-width:11.50069046"
       inkscape:connector-curvature="0"
       id="Trazado_16"
       data-name="Trazado 16"
       d="m 204.99337,180.83906 v 0 a 57.595458,57.595458 0 0 0 0,-115.179443 h -0.11869 a 57.595458,57.595458 0 0 0 0,115.179443 z M 172.6068,90.719637 h 15.93984 c 1.24204,0 1.51868,-0.27568 1.51868,-1.541037 v -9.580091 h 7.60137 v 9.775538 a 1.6676002,1.6676002 0 0 1 0,0.242086 0.95455727,0.95455727 0 0 0 0.21725,0.781576 1.0235614,1.0235614 0 0 0 0.79049,0.287549 h 7.71697 c 0.89914,0 1.15012,-0.276673 1.15012,-1.150038 v -9.959638 h 7.54406 v 10.040054 a 2.3001381,2.3001381 0 0 1 0,0.242086 0.92005528,0.92005528 0 0 0 0.18771,0.700559 0.9775587,0.9775587 0 0 0 0.69167,0.322136 c 0.96831,0.07895 1.73606,0.149278 2.44948,0.242086 a 29.016242,29.016242 0 0 1 9.02816,2.300156 11.50069,11.50069 0 0 1 6.90081,9.419051 17.584556,17.584556 0 0 1 -0.33594,7.40641 12.650759,12.650759 0 0 1 -4.71516,6.82 21.931817,21.931817 0 0 1 -6.96899,3.38115 1.00056,1.00056 0 0 0 -0.70155,0.49502 l -0.43476,0.73614 0.83987,0.16105 a 27.705164,27.705164 0 0 1 6.2556,1.84001 15.33042,15.33042 0 0 1 6.1311,4.60023 14.226354,14.226354 0 0 1 2.75972,6.65893 21.425786,21.425786 0 0 1 -0.42488,8.844 13.363802,13.363802 0 0 1 -8.43036,9.29257 31.661401,31.661401 0 0 1 -6.89984,1.80563 50.902055,50.902055 0 0 1 -5.08373,0.55236 h -0.22718 -0.14823 a 0.8855532,0.8855532 0 0 0 -0.65212,0.28752 0.90855452,0.90855452 0 0 0 -0.21751,0.70056 c 0,0.0988 0,0.1728 0,0.2648 v 10.17812 h -7.54506 v -10.16664 c 0,-0.79345 -0.29643,-1.05807 -1.05725,-1.05807 h -7.83158 a 0.9775587,0.9775587 0 0 0 -0.7905,0.2183 1.081065,1.081065 0 0 0 -0.22718,0.85075 v 10.15498 h -7.54503 v -10.35051 a 0.86255177,0.86255177 0 0 0 -0.22718,-0.66795 0.8855532,0.8855532 0 0 0 -0.64226,-0.24209 h -16.58409 v 0 q 0,-3.45022 0,-6.80842 v -0.0494 h 1.77165 2.77157 a 11.903215,11.903215 0 0 0 2.85261,-0.40315 2.9211753,2.9211753 0 0 0 2.18468,-2.16223 11.673201,11.673201 0 0 0 0.38535,-2.51863 c 0,-0.58595 0,-1.15004 0,-1.73659 v -37.52673 a 16.399985,16.399985 0 0 0 -0.29643,-3.57668 c 0,-0.16104 -0.11843,-0.32214 -0.11843,-0.4723 v -0.11555 a 2.8981741,2.8981741 0 0 0 -2.17381,-2.185078 11.707703,11.707703 0 0 0 -2.44946,-0.391285 c -1.15114,-0.05935 -2.30125,0 -3.4504,0 h -1.56514 q 0,-2.300156 0,-4.600338 z" />
    <path
       style="fill:#ffffff;fill-opacity:1;stroke-width:11.50069046"
       inkscape:connector-curvature="0"
       id="Trazado_17"
       data-name="Trazado 17"
       d="m 108.548,29.903924 a 14.15735,14.15735 0 0 0 9.93721,3.944745 v 35.284096 a 14.525372,14.525372 0 0 0 -9.2011,3.657301 12.961278,12.961278 0 0 0 -3.71421,9.200597 H 34.541142 V 93.376307 H 130.21581 V 8.5011263 H 34.541142 V 19.909803 h 69.763998 a 16.100966,16.100966 0 0 0 4.24286,9.994121 z" />
    <rect
       style="fill:#ffffff;fill-opacity:1;stroke-width:11.50069046"
       y="23.463982"
       x="63.189354"
       id="Rectángulo_1"
       data-name="Rectángulo 1"
       width="9.4420662"
       height="6.3713827" />
    <rect
       style="fill:#ffffff;fill-opacity:1;stroke-width:11.50069046"
       y="71.088173"
       x="62.868549"
       id="Rectángulo_2"
       data-name="Rectángulo 2"
       width="9.4420662"
       height="6.3713827" />
    <rect
       style="fill:#ffffff;fill-opacity:1;stroke-width:11.50069046"
       y="57.011318"
       x="17.579517"
       id="Rectángulo_3"
       data-name="Rectángulo 3"
       width="28.395205"
       height="12.041224" />
    <rect
       style="fill:#ffffff;fill-opacity:1;stroke-width:11.50069046"
       y="35.619987"
       x="17.579517"
       id="Rectángulo_4"
       data-name="Rectángulo 4"
       width="28.395205"
       height="12.041224" />
    <path
       style="fill:#ffffff;fill-opacity:1;stroke-width:11.50069046"
       inkscape:connector-curvature="0"
       id="Trazado_18"
       data-name="Trazado 18"
       d="M 393.92683,151.96088 A 70.315221,70.315221 0 0 0 363.84149,115.96373 71.649302,71.649302 0 0 0 325.43943,106.06158 123.65542,123.65542 0 0 0 280.76002,28.891921 124.80549,124.80549 0 0 0 213.6767,1.646854 a 123.2644,123.2644 0 0 0 -70.68294,14.52531 12.938634,12.938634 0 0 0 12.39754,22.713904 98.2734,98.2734 0 0 1 109.10675,10.143739 96.525295,96.525295 0 0 1 32.30557,103.805143 95.45573,95.45573 0 0 1 -78.98684,66.704 h -77.28435 a 2.8176693,2.8176693 0 0 1 -0.4644,-0.0988 l -1.80621,-3.96778 v -0.0789 a 73.316903,73.316903 0 0 0 11.1565,-23.0014 12.675569,12.675569 0 1 0 -24.39394,-6.90042 49.45297,49.45297 0 0 1 -57.112536,34.50221 48.716924,48.716924 0 0 1 -39.193522,-53.3173 49.211454,49.211454 0 0 1 51.18893,-42.47201 12.663835,12.663835 0 0 0 1.151137,-25.301478 74.938499,74.938499 0 0 0 -51.535772,17.251028 73.167392,73.167392 0 0 0 -12.361962,99.67643 74.45547,74.45547 0 0 0 45.829526,29.06228 75.663044,75.663044 0 0 0 14.640523,1.43756 c 0.72129,0 1.460384,0 2.184655,0 H 321.74396 a 11.822709,11.822709 0 0 0 2.63426,-0.29939 c 0.99402,0 1.99,0.0693 2.97907,0.0693 a 71.614798,71.614798 0 0 0 37.54938,-10.62671 70.30372,70.30372 0 0 0 29.4075,-36.54919 69.418167,69.418167 0 0 0 -0.38538,-46.96882 z m -41.58669,62.87418 a 47.612858,47.612858 0 0 1 -52.63847,-1.98963 l -0.14823,-0.14928 a 7.1764308,7.1764308 0 0 1 -1.38036,-9.38467 1.6215974,1.6215974 0 0 0 0.17777,-0.33395 121.24027,121.24027 0 0 0 28.05086,-66.95706 6.9004142,6.9004142 0 0 1 2.42577,-3.85267 7.1764308,7.1764308 0 0 1 5.52045,-1.54112 h 0.21751 a 46.773309,46.773309 0 0 1 36.80137,29.66026 45.749746,45.749746 0 0 1 -19.08,54.53638 z" />
  </g>
</svg>
