<?xml version="1.0" encoding="utf-8"?>
<!-- Generator: Adobe Illustrator 25.2.3, SVG Export Plug-In . SVG Version: 6.00 Build 0)  -->
<svg version="1.1" xmlns="http://www.w3.org/2000/svg" xmlns:xlink="http://www.w3.org/1999/xlink" x="0px" y="0px"
	 viewBox="0 0 3710 3710" style="enable-background:new 0 0 3710 3710;" xml:space="preserve">
<style type="text/css">
	.st0{fill:#F4F7FA;}
	.st1{fill:url(#SVGID_1_);}
	.st2{clip-path:url(#SVGID_3_);}
	.st3{fill:#FCFDFE;}
	.st4{clip-path:url(#SVGID_5_);fill:url(#SVGID_6_);}
	.st5{clip-path:url(#SVGID_5_);}
	.st6{fill:url(#SVGID_7_);}
	.st7{clip-path:url(#SVGID_9_);}
	.st8{fill:url(#SVGID_10_);}
	.st9{fill:#D8DEE8;}
	.st10{opacity:0.3;fill:url(#SVGID_11_);}
	.st11{fill:#FFFFFF;}
	.st12{opacity:0.3;fill:#97A6B7;}
	.st13{fill:url(#SVGID_12_);}
	.st14{fill:#97A6B7;}
	.st15{opacity:0.5;fill:#FFFFFF;}
	.st16{opacity:0.5;fill:#D8DEE8;}
	.st17{fill:url(#SVGID_13_);}
	.st18{fill:url(#SVGID_14_);}
	.st19{opacity:0.3;}
	.st20{fill:url(#SVGID_15_);}
	.st21{fill:url(#SVGID_16_);}
	.st22{fill:url(#SVGID_17_);}
	.st23{opacity:0.3;fill:url(#SVGID_18_);}
	.st24{opacity:0.3;fill:url(#SVGID_19_);}
	.st25{fill:url(#SVGID_20_);}
	.st26{fill:url(#SVGID_21_);}
	.st27{fill:url(#SVGID_22_);}
	.st28{fill:url(#SVGID_23_);}
	.st29{opacity:0.3;fill:#FFFFFF;}
	.st30{fill:url(#SVGID_24_);}
	.st31{fill:url(#SVGID_25_);}
	.st32{fill:url(#SVGID_26_);}
	.st33{fill:url(#SVGID_27_);}
	.st34{fill:url(#SVGID_28_);}
	.st35{fill:url(#SVGID_29_);}
	.st36{fill:url(#SVGID_30_);}
	.st37{fill:url(#SVGID_31_);}
	.st38{fill:url(#SVGID_32_);}
	.st39{fill:url(#SVGID_33_);}
	.st40{fill:url(#SVGID_34_);}
	.st41{fill:url(#SVGID_35_);}
	.st42{fill:url(#SVGID_36_);}
	.st43{fill:url(#SVGID_37_);}
	.st44{fill:url(#SVGID_38_);}
	.st45{fill:url(#SVGID_39_);}
	.st46{fill:url(#SVGID_40_);}
	.st47{fill:url(#SVGID_41_);}
	.st48{fill:url(#SVGID_42_);}
	.st49{fill:url(#SVGID_43_);}
	.st50{fill:url(#SVGID_44_);}
	.st51{fill:url(#SVGID_45_);}
	.st52{fill:url(#SVGID_46_);}
	.st53{fill:url(#SVGID_47_);}
	.st54{fill:url(#SVGID_48_);}
	.st55{fill:url(#SVGID_49_);}
	.st56{fill:url(#SVGID_50_);}
	.st57{fill:url(#SVGID_51_);}
	.st58{fill:url(#SVGID_52_);}
	.st59{fill:url(#SVGID_53_);}
	.st60{fill:url(#SVGID_54_);}
	.st61{fill:url(#SVGID_55_);}
	.st62{fill:url(#SVGID_56_);}
	.st63{fill:url(#SVGID_57_);}
	.st64{fill:url(#SVGID_58_);}
	.st65{fill:url(#SVGID_59_);}
	.st66{fill:url(#SVGID_60_);}
	.st67{fill:url(#SVGID_61_);}
	.st68{fill:url(#SVGID_62_);}
	.st69{fill:url(#SVGID_63_);}
	.st70{fill:url(#SVGID_64_);}
	.st71{fill:url(#SVGID_65_);}
	.st72{fill:url(#SVGID_66_);}
	.st73{opacity:0.3;fill:url(#SVGID_67_);}
	.st74{fill:url(#SVGID_68_);}
	.st75{fill:url(#SVGID_69_);}
	.st76{fill:url(#SVGID_70_);}
	.st77{fill:url(#SVGID_71_);}
	.st78{opacity:0.3;fill:url(#SVGID_72_);}
	.st79{fill:url(#SVGID_73_);}
	.st80{fill:url(#SVGID_74_);}
	.st81{fill:url(#SVGID_75_);}
	.st82{fill:url(#SVGID_76_);}
	.st83{fill:#26264F;}
	.st84{fill:url(#SVGID_77_);}
	.st85{fill:url(#SVGID_78_);}
	.st86{fill:url(#SVGID_79_);}
	.st87{fill:url(#SVGID_80_);}
	.st88{fill:url(#SVGID_81_);}
	.st89{fill:url(#SVGID_82_);}
	.st90{opacity:0.3;fill:url(#SVGID_83_);}
	.st91{fill:url(#SVGID_84_);}
	.st92{fill:url(#SVGID_85_);}
	.st93{fill:url(#SVGID_86_);}
	.st94{fill:url(#SVGID_87_);}
	.st95{fill:url(#SVGID_88_);}
	.st96{opacity:0.3;fill:url(#SVGID_89_);}
</style>
<g id="Background">
</g>
<g id="Illustration">
	<g>
		<path class="st0" d="M1850.7,533.8c-689.6-20.9-1286.9,493.6-1377.2,1168.8C374.9,2440.9,918,3105.1,1586.2,3211.5
			c831.2,132.3,1637.4-633.2,1565-1463.7C3096.7,1122.1,2551.7,555.1,1850.7,533.8z"/>
		<g>
			<g>
				
					<linearGradient id="SVGID_1_" gradientUnits="userSpaceOnUse" x1="-1744.2126" y1="-652.5895" x2="-1317.6488" y2="2074.3796" gradientTransform="matrix(-0.8325 -0.5541 -0.5541 0.8325 1619.2135 530.4697)">
					<stop  offset="0" style="stop-color:#FF9085"/>
					<stop  offset="1" style="stop-color:#FB6FBB"/>
				</linearGradient>
				<path class="st1" d="M2633.5,2103.5c-15.6-1.3-48.3-17.7-55.1-25.5c-45.1-52-135.7-143.8-135-216.4
					c0.1-12.4,54.9-26.6,62.1-38.3c32.7-17.5,45.2-21.5,68.1-53.5c67.7-94.3-104.9-256.8,83.5-325.9c138-50.7,258.7-8.1,233.2-224.9
					c-25.6-216.8,127.8-621.6,364.9-481c136.1,80.7,11.1,272.2,85.6,405.4c70.7,126.6,20.9,236-113.1,320.5
					c-134,84.5-57.5,140.8-11.5,262.1c55.2,145.7-171.2,182.9-277.2,191.2C2853.5,1923.7,2640.6,1998.2,2633.5,2103.5z"/>
				<g>
					<defs>
						<path id="SVGID_2_" d="M2407.5,1844.5c38,100.4,72.6,204.1,110.4,305.3c61.2,2,133.3,2.9,143.1-72.8
							c13.7-105.1,192.7-154,278.1-160.2c105.6-7.7,332.4-45.5,277.1-191c-46-121.2-122.5-177.6,11.5-262
							c134-84.4,183.8-193.9,113.1-320.5c-74.4-133.2,50.5-324.6-85.6-405.4c-237.1-140.8-390.5,264.3-364.9,480.9
							s-95.4,175.3-233.1,224.8c-188,67.6-17,235.9-83.1,324.2C2522.3,1837,2478.4,1826.9,2407.5,1844.5z"/>
					</defs>
					<clipPath id="SVGID_3_">
						<use xlink:href="#SVGID_2_"  style="overflow:visible;"/>
					</clipPath>
					<g class="st2">
						<path class="st3" d="M2513.2,1976l-1.7-3.1c225.3-123.6,406.6-312.8,524.4-547.3c112.1-223.1,165.6-482.7,154.6-750.8l3.5-0.1
							c11,268.7-42.6,529-155,752.6C2921,1662.3,2739.1,1852.1,2513.2,1976z"/>
						<path class="st3" d="M2751,1805.1l-1.2-3.3c138.7-49.1,361.7-58.6,497.2-21.3l-0.9,3.4
							C3111.2,1746.7,2889.1,1756.3,2751,1805.1z"/>
						<path class="st3" d="M2600.7,1926.7l-2.5-2.5c54-53.7,78.8-132.6,73.6-234.6c-3.8-74.8-23.2-160-57.8-253.2l3.3-1.2
							c34.7,93.6,54.3,179.1,58,254.3C2680.6,1792.5,2655.4,1872.3,2600.7,1926.7z"/>
						<path class="st3" d="M3053.8,1394.9l-2.6-2.4c96.6-106.5,243.9-140.8,350.4-150.9l0.3,3.5
							C3296,1255.2,3149.7,1289.2,3053.8,1394.9z"/>
						<path class="st3" d="M3160.2,1083.4l-3.5-0.1c1.7-69.5-16.3-209.6-155.5-367.2l2.7-2.3
							C3143.8,872.3,3161.9,1013.4,3160.2,1083.4z"/>
					</g>
				</g>
			</g>
		</g>
		<g>
			<g>
				<defs>
					<path id="SVGID_4_" d="M2792,2077.9c-74.4,2.1-149,2.5-223.8,1.2c-1,1.3-52.5-152.2,7.9-248c119.9-186.2-5.1-312.4-48.5-392.5
						c-66.6-112.1-68.9-262.1,68.1-258c133,0.9,105.9-267.8,47.8-468.3c-36.5-96.1,36.2-233.3,125-277.4
						c90.2-47.4,196.6-1.6,260.7,191.5c84.6,221.8-58.6,389.7-100.4,515.7c-41.2,123.7,116.9,190.2,20.2,310.4
						c-80.5,105.8-190.4,191.1-126.5,295C2887.5,1850,2892.5,1942.2,2792,2077.9z"/>
				</defs>
				<clipPath id="SVGID_5_">
					<use xlink:href="#SVGID_4_"  style="overflow:visible;"/>
				</clipPath>
				
					<linearGradient id="SVGID_6_" gradientUnits="userSpaceOnUse" x1="2674.7341" y1="525.8956" x2="2146.0686" y2="2028.4198" gradientTransform="matrix(-0.9404 -0.3399 -0.3399 0.9404 5468.4976 881.6956)">
					<stop  offset="0" style="stop-color:#FFC444"/>
					<stop  offset="0.9964" style="stop-color:#F36F56"/>
				</linearGradient>
				<path class="st4" d="M2792,2077.9c-74.4,2.1-149,2.5-223.8,1.2c-1,1.3-52.5-152.2,7.9-248c119.9-186.2-5.1-312.4-48.5-392.5
					c-66.2-112.1-65.3-246.2,56.5-269.6c134.6-28.6,119.8-257.1,59.4-456.8c-36.5-96.1,36.2-233.3,125-277.4
					c90.2-47.4,196.6-1.6,260.7,191.5c84.6,221.8-58.6,389.7-100.4,515.7c-41.2,123.7,116.9,190.2,20.2,310.4
					c-80.5,105.8-190.4,191.1-126.5,295C2887.5,1850,2892.5,1942.2,2792,2077.9z"/>
				<g class="st5">
					<path class="st3" d="M2693.5,2104.8c-0.3-1.4,10.7-345.1,73.5-689c7.3-55.1,16-111,24.4-165c22.4-144.6,45.6-294.2,43.7-438.7
						c-2.1-161.5-36.1-301.3-103.7-427.5l3.1-1.7c68,126.7,102,267,104.2,429.1c1.9,144.8-21.3,294.5-43.8,439.3
						c-8.4,54-17,109.8-24.4,165c-62.6,343-73.7,685.9-73.5,687.9L2693.5,2104.8z"/>
					<path class="st3" d="M2832.2,972l-3-1.9c65.1-104,140.2-248.8,180.5-326.6c32.5-62.7,32.8-62.7,34.7-62.7l0.1,3.5l0-1.8l1,1.4
						c-1.9,2-15.5,28.1-32.7,61.2C2972.5,723,2897.3,867.8,2832.2,972z"/>
					<path class="st3" d="M2834.5,844.4c-64.8-186.2-200.3-242-211.6-242c0,0-0.1,0-0.1,0l0-1.3l-1.6-1.6c0.8-0.8,2-0.7,3.9-0.2
						c29.5,7.1,151.9,69.3,212.7,244L2834.5,844.4z"/>
					<path class="st3" d="M2732.9,1639.1c-5.4-97.7-45.8-196.8-120.1-294.4c-38.7-50.9-85.2-99.3-138.2-143.8
						c-3.8-3.2-5.2-4.4-5.7-4.9l2.7-2.3c0.3,0.4,2.6,2.3,5.3,4.5c53.1,44.7,99.8,93.2,138.7,144.4
						c74.7,98.2,115.3,197.9,120.8,296.3L2732.9,1639.1z"/>
					<path class="st3" d="M2751.4,1532.5l-3.3-1.3c62.2-155.7,243.5-197.7,245.8-197.7c0,0,0,0,0,0l1.6,1.4l-0.9,1.9l-0.8-1.5
						l0.2,1.7C2992.2,1337.3,2813.5,1377.1,2751.4,1532.5z M2992.9,1333.7l0.8,1.6L2992.9,1333.7z"/>
					<path class="st3" d="M2696,2048.5c-5.8-41.9-33.2-110.3-130.7-198.1c-5.4-4.9-5.4-4.9-5.4-5.8l1.8-0.1l1.5-1
						c0.3,0.4,2.3,2.2,4.6,4.2c98.3,88.5,126,157.7,131.8,200.2L2696,2048.5z"/>
					<path class="st3" d="M2704.2,1966.3l-3.5-0.4c3.6-33.4,28.9-102,157.5-186.3c1.8-1.2,2.9-1.9,3.3-2.2l2.1,2.8
						c-0.4,0.3-1.6,1.1-3.5,2.3C2732.7,1866.1,2707.7,1933.6,2704.2,1966.3z"/>
				</g>
			</g>
		</g>
		<g>
			<g>
				
					<linearGradient id="SVGID_7_" gradientUnits="userSpaceOnUse" x1="-2290.6582" y1="-345.2345" x2="-1855.53" y2="2436.4849" gradientTransform="matrix(0.6768 -0.7362 0.7362 0.6768 2264.4214 425.9452)">
					<stop  offset="0" style="stop-color:#FF9085"/>
					<stop  offset="1" style="stop-color:#FB6FBB"/>
				</linearGradient>
				<path class="st6" d="M1531,2823.9c15.1-5,43.6-29.3,48.4-38.6c32-62.4,99.6-175.4,81.2-247.2c-3.1-12.3-60.8-13-70.8-22.9
					c-36.7-9.4-50-10.4-80.5-36.5c-90-77,41.7-279.9-161.8-302.7c-149.1-16.7-258.3,54.8-285.6-166.3s-277.5-584.9-478.2-388
					c-115.2,113,55,272.4,13.6,422.4c-39.4,142.6,36.6,238.9,189.8,290.1c153.3,51.2,91.2,125.5,75,256.8
					c-19.4,157.8,214,139.7,321.1,122.2C1269.3,2699.2,1498.4,2721.4,1531,2823.9z"/>
				<g>
					<defs>
						<path id="SVGID_8_" d="M1692,2512.5c-13.3,108.7-22.4,219.8-35.2,329.3c-60.2,16.8-131.3,35.2-159.5-37.3
							c-39.1-100.8-228.3-105.8-314.4-91.3c-106.5,18-340.3,35.6-320.9-122c16.2-131.2,78.2-205.7-75-256.8
							c-153.3-51.2-229.1-147.5-189.8-290.1c41.4-150-128.8-309.4-13.6-422.4c200.7-197,451.1,167.1,478.2,387.9
							c27.1,220.8,137.1,150.5,285.5,166.1c202.6,21.3,74.1,229.6,161,301C1576.4,2532.9,1617.5,2512.2,1692,2512.5z"/>
					</defs>
					<clipPath id="SVGID_9_">
						<use xlink:href="#SVGID_8_"  style="overflow:visible;"/>
					</clipPath>
					<g class="st7">
						<path class="st3" d="M1619.2,2668.4c-253.9-67.9-480.1-211.8-654.2-416.1c-165.6-194.3-281.8-439.1-336.2-708l3.5-0.7
							c54.2,268.3,170.2,512.6,335.4,706.4c173.6,203.7,399.2,347.2,652.4,415L1619.2,2668.4z"/>
						<path class="st3" d="M846.5,2655.9l-1.7-3.1c125.1-69.8,348.4-114.5,497.7-99.5l-0.4,3.5
							C1193.4,2541.9,971.1,2586.3,846.5,2655.9z"/>
						<path class="st3" d="M1520.6,2640.8c-67.4-40.6-111.7-113.6-131.6-216.9c-14.5-75.4-15.9-164.8-4.2-266l3.5,0.4
							c-11.7,100.8-10.3,189.9,4.2,264.9c19.7,102.3,63.4,174.5,129.9,214.5L1520.6,2640.8z"/>
						<path class="st3" d="M942.6,2223.8c-120.6-81.4-273.9-79.7-381.2-63.9l-0.5-3.5c108-15.9,262.2-17.6,383.7,64.5L942.6,2223.8z
							"/>
						<path class="st3" d="M761.6,1941c-18.7-68.9-35-213.1,65.3-404.1l3.1,1.6c-99.7,190-83.5,333.1-65,401.6L761.6,1941z"/>
					</g>
				</g>
			</g>
		</g>
		<g>
			<linearGradient id="SVGID_10_" gradientUnits="userSpaceOnUse" x1="920.0004" y1="1951.4586" x2="2887.5242" y2="1951.4586">
				<stop  offset="0" style="stop-color:#444B8C"/>
				<stop  offset="0.9964" style="stop-color:#26264F"/>
			</linearGradient>
			<path class="st8" d="M2827.7,808.8L1000,703.1c-42.1-2.1-80,43.9-80,82.5v2353.6c0,53.5,54.6,64.3,96.7,60l1811-185
				c33.1-3.4,59.8-33.7,59.8-67.6V873.3C2887.5,839.3,2860.8,810.4,2827.7,808.8z"/>
			<path class="st9" d="M2857.8,790.1L1026.4,700c-42.1-2.1-76.4,27.8-76.4,66.6v2371.9c0,38.9,34.3,66.9,76.4,62.5l1831.4-188.5
				c33.1-3.4,59.8-33.9,59.8-68.2V855.1C2917.6,820.8,2890.9,791.7,2857.8,790.1z"/>
			<linearGradient id="SVGID_11_" gradientUnits="userSpaceOnUse" x1="985.2166" y1="1950.6674" x2="2890.1965" y2="1950.6674">
				<stop  offset="3.597120e-03" style="stop-color:#E38DDD"/>
				<stop  offset="1" style="stop-color:#9571F6"/>
			</linearGradient>
			<path class="st10" d="M1026.4,3169c-22.7,2.3-41.2-12.9-41.2-33.8V768.2c0-20.9,18.5-37.1,41.2-36l1831.4,86.5
				c17.9,0.8,32.4,16.6,32.4,35.1v2093.4c0,18.5-14.5,35.1-32.4,36.9L1026.4,3169z"/>
			<polygon class="st11" points="2739.8,2927.9 1173.4,3078.8 1173.4,895.2 2739.8,954.2 			"/>
			<path class="st12" d="M2113.3,964.8l-626,7.8l14-141.2c1.1-18.3,14.3-33.4,31.8-36.1l106-16.3c12.5-1.9,23.2-10.2,28.7-22
				l11.5-25l277.3,17.1L2113.3,964.8z"/>
			<linearGradient id="SVGID_12_" gradientUnits="userSpaceOnUse" x1="1487.2589" y1="746.3306" x2="2471.3884" y2="746.3306">
				<stop  offset="0" style="stop-color:#444B8C"/>
				<stop  offset="0.9964" style="stop-color:#26264F"/>
			</linearGradient>
			<path class="st13" d="M2447.6,873.3c-3-16-15.8-27.2-31.9-27.9l-100-4.5c-45.4-2-78.7-38.9-77-85.6l3.9-108.3
				c0.7-20-13.6-36.1-33.2-37.2l-32.9-2c-25.1-1.5-41.7-23.6-38.2-49.1c6.1-44.6-24.4-83.2-68.8-86.2c-44.7-3-86.4,31.1-93,76.3
				c-1,6.7-3.3,13.4-7,19.3c-10.3,16.6-28.4,25.7-46.1,24.6l-33.9-2c-20.5-1.2-40.1,13.2-45.3,33.5L1815.9,734
				c-12.2,47.5-58.2,81.9-107,79.7l-109.7-4.9c-18-0.8-35.6,9.7-43.9,26.1L1489.2,966c-5.4,10.7,1.3,22.4,13.1,22.7l951.6,31.6
				c10.4,0.3,19.3-10,17.3-20.4L2447.6,873.3z M2055.9,566.1c-13.1-0.8-22.2-12.2-20.3-25.4c1.9-13.2,14.1-23.3,27.2-22.4
				c13.1,0.9,22.1,12.2,20.2,25.4C2081.1,556.9,2069,567,2055.9,566.1z"/>
			<path class="st14" d="M2453.2,876.2c-3-16-15.8-27.2-31.9-27.9l-100-4.5c-45.4-2-78.7-38.9-77-85.6l3.9-108.3
				c0.7-20-13.6-36.1-33.2-37.2l-32.9-2c-25.1-1.5-41.7-23.6-38.2-49.1c6.1-44.6-24.4-83.2-68.8-86.2c-44.7-3-86.4,31.1-93,76.3
				c-1,6.7-3.3,13.4-7,19.3c-10.3,16.6-28.4,25.7-46.1,24.6l-33.9-2c-20.5-1.2-40.1,13.2-45.3,33.5l-28.2,109.9
				c-12.2,47.5-58.2,81.9-107,79.7l-109.7-4.9c-18-0.8-35.6,9.7-43.9,26.1L1494.8,969c-5.4,10.7,1.3,22.4,13.1,22.7l951.6,31.6
				c10.4,0.3,19.3-10,17.3-20.4L2453.2,876.2z M2061.5,569.1c-13.1-0.8-22.2-12.2-20.3-25.4c1.9-13.2,14.1-23.3,27.2-22.4
				c13.1,0.9,22.1,12.2,20.2,25.4C2086.7,559.8,2074.6,569.9,2061.5,569.1z"/>
			<g>
				<path class="st15" d="M2290.3,936.5c-84.9-52.4-150-15.2-202.9-74.3c-56.6-63.3-18.4-146.6-77-185.9c-37.5-25.2-71-3-114.6-9.8
					c-16-2.5-33-8.8-50.7-21.2l-23.5,91.7c-12.2,47.5-58.2,81.9-107,79.7l-109.7-4.9c-18-0.8-35.6,9.7-43.9,26.1L1494.8,969
					c-5.4,10.7,1.3,22.4,13.1,22.7l864.8,28.7C2350.9,985.9,2323.8,957.1,2290.3,936.5z"/>
			</g>
			<g>
				<polygon class="st14" points="2297.9,1238.1 1711.8,1231.7 1711.8,1161.4 2297.9,1170.4 				"/>
				<g>
					<g>
						<polygon class="st9" points="1707.1,1996.8 1635.3,1999.5 1635.3,1366.5 1707.1,1366.7 						"/>
						<polygon class="st9" points="1844.1,1991.7 1773.6,1994.3 1773.6,1563.1 1844.1,1562.4 						"/>
						<polygon class="st9" points="1978.8,1986.7 1909.4,1989.3 1909.4,1449.1 1978.8,1448.9 						"/>
						<polygon class="st9" points="2111.1,1981.8 2042.9,1984.3 2042.9,1557.9 2111.1,1557.2 						"/>
						<polygon class="st9" points="2241.3,1977 2174.2,1979.4 2174.2,1672.4 2241.3,1671.2 						"/>
						<polygon class="st9" points="2369.2,1972.2 2303.3,1974.7 2303.3,1368.2 2369.2,1368.3 						"/>
						<polygon class="st9" points="2495.1,1967.5 2430.2,1969.9 2430.2,1789.3 2495.1,1787.6 						"/>
						<polygon class="st9" points="2618.9,1962.9 2555.1,1965.3 2555.1,1486.6 2618.9,1486.3 						"/>
					</g>
					<polygon class="st9" points="2618.9,2220.3 1365.8,2288.4 1365.8,2222.3 2618.9,2159.3 					"/>
					<polygon class="st9" points="2618.9,2103.6 1365.8,2161.9 1365.8,2095.8 2618.9,2042.6 					"/>
					<polygon class="st9" points="2618.9,2692.4 1365.8,2799.9 1365.8,2733.8 2618.9,2631.4 					"/>
					<polygon class="st16" points="1846.3,2352.5 1846.3,2603.5 1350.3,2641.1 1350.3,2382.2 					"/>
					<path class="st9" d="M1350.3,2533.4v107.8l496.1-37.7V2409c-28.4-9-62.4-12.8-88.5,5.8c-54.5,39.1-47.6,59.3-104.5,52.8
						c-44.5-5.1-94.1-9.3-132.3,23.1c-23.7,20.1-35.9,40.7-70,40.1C1418.9,2530.1,1381.4,2510,1350.3,2533.4z"/>
					<polygon class="st9" points="2618.9,2351.2 1962.8,2392.5 1962.8,2345.5 2618.9,2306.1 					"/>
					<polygon class="st9" points="2618.9,2446.7 1962.8,2492.2 1962.8,2447.9 2618.9,2404.2 					"/>
					<polygon class="st9" points="2618.9,2544.8 1962.8,2594.6 1962.8,2547.6 2618.9,2499.7 					"/>
					<polygon class="st9" points="1518.5,1423.1 1362.7,1423.2 1362.7,1363.1 1518.5,1363.5 					"/>
					<polygon class="st9" points="1518.5,1570.3 1362.7,1571.8 1362.7,1511.7 1518.5,1510.7 					"/>
					<polygon class="st9" points="1518.5,1714 1362.7,1716.9 1362.7,1656.8 1518.5,1654.4 					"/>
					<polygon class="st9" points="1518.5,1861.2 1362.7,1865.6 1362.7,1805.4 1518.5,1801.6 					"/>
					<polygon class="st9" points="1518.5,2004.9 1362.7,2010.6 1362.7,1950.5 1518.5,1945.3 					"/>
				</g>
			</g>
		</g>
		<g>
			<linearGradient id="SVGID_13_" gradientUnits="userSpaceOnUse" x1="1073.8906" y1="4722.1841" x2="1096.521" y2="3038.5747">
				<stop  offset="0" style="stop-color:#444B8C"/>
				<stop  offset="0.9964" style="stop-color:#26264F"/>
			</linearGradient>
			<path class="st17" d="M1563.6,2114.8l-2.9,993.5c-0.1,48.7-39.5,93-88.9,98.1l-726.3,74.4c-55.9,5.7-101.7-32.9-101.7-85.4V2126
				c0-49.6,40.6-90.6,92.2-95.6c3.3-0.3,6.6-0.4,10-0.4l729-3.5C1524.4,2026.3,1563.8,2065.7,1563.6,2114.8z"/>
			<linearGradient id="SVGID_14_" gradientUnits="userSpaceOnUse" x1="1128.4484" y1="4712.2148" x2="1150.999" y2="3034.5339">
				<stop  offset="0" style="stop-color:#AA80F9"/>
				<stop  offset="0.9964" style="stop-color:#6165D7"/>
			</linearGradient>
			<path class="st18" d="M1615.1,2114.1l-3,990.5c-0.1,48.6-37.3,92.5-86.3,97.5l-721.4,73.8c-55.6,5.7-103.3-32.6-103.3-84.9
				l0.1-1065.8c0-49.5,41.5-90.3,92.7-95.2c3.3-0.3,7.7-0.4,11.1-0.4l724.1-3.5C1578.3,2025.8,1615.3,2065.2,1615.1,2114.1z"/>
			<g class="st19">
				<linearGradient id="SVGID_15_" gradientUnits="userSpaceOnUse" x1="701.19" y1="2208.8049" x2="1615.1068" y2="2208.8049">
					<stop  offset="0" style="stop-color:#AA80F9"/>
					<stop  offset="0.9964" style="stop-color:#6165D7"/>
				</linearGradient>
				<path class="st20" d="M1615.1,2112.6l-0.8,248.9l-913.2,30l0-267.9c0-48.3,39.6-87.6,89.1-94.1c4.4-0.6,10.1-0.1,14.7-0.1
					l724.1-3.5C1578.3,2025.8,1615.3,2063.7,1615.1,2112.6z"/>
				<linearGradient id="SVGID_16_" gradientUnits="userSpaceOnUse" x1="701.1859" y1="2351.0222" x2="1614.5762" y2="2351.0222">
					<stop  offset="0" style="stop-color:#AA80F9"/>
					<stop  offset="0.9964" style="stop-color:#6165D7"/>
				</linearGradient>
				<path class="st21" d="M1614.6,2285.1l-0.3,103.4c-88.6,28-251.6,50.7-438.7,57.9c-82.6,3.2-162.5,3.1-234.7,0.1
					c-96.1-4-177.3-13.1-239.6-25.9l0-111.3c23.5-5.8,45-11.1,70.6-16.2c55.6-11,122.5-20.2,195.7-27
					c65.4-6.1,136.3-10.2,209.4-11.9c94.1-2.2,181.5,0,256.7,5.5c5.8,0.4,11.7,0.9,17.4,1.3c18,1.5,35.2,3.1,51.6,5
					c5.8,0.7,11.5,1.3,17.1,2c12.9,1.6,23.9,3.4,35.6,5.2C1577.8,2276.8,1597.7,2280.7,1614.6,2285.1z"/>
			</g>
			<path class="st11" d="M1570.4,2309c0,14.8-12.1,27.2-27,27.6L794,2359.6c-16.8,0.5-30.5-11.9-30.5-27.7l0.1-179
				c0-15.8,13.7-28.8,30.5-29l750-9.1c14.9-0.2,26.9,11.7,26.8,26.5L1570.4,2309z"/>
			<linearGradient id="SVGID_17_" gradientUnits="userSpaceOnUse" x1="1173.0612" y1="1983.7919" x2="1111.2251" y2="3393.6355">
				<stop  offset="3.597120e-03" style="stop-color:#E38DDD"/>
				<stop  offset="1" style="stop-color:#9571F6"/>
			</linearGradient>
			<path class="st22" d="M1553.4,2305.7c0,9.4-7.7,17.2-17.1,17.4l-745.8,22c-10.6,0.3-19.2-7.5-19.2-17.5l0.1-178.2
				c0-10,8.6-18.2,19.3-18.3l746.2-9.5c9.4-0.1,17,7.4,17,16.8L1553.4,2305.7z"/>
			<g>
				<g>
					<g>
						<linearGradient id="SVGID_18_" gradientUnits="userSpaceOnUse" x1="1443.777" y1="2140.2034" x2="1431.6494" y2="2416.7102">
							<stop  offset="0" style="stop-color:#311944"/>
							<stop  offset="1" style="stop-color:#A03976"/>
						</linearGradient>
						<path class="st23" d="M1450.3,2206.5c0,4.6-3.8,7.7-8.5,7.8l-0.4,0c-4.7,0.1-8.5-2.8-8.5-7.4l0.1-34.5c0-4.7,3.8-8.2,8.5-8.2
							l0.4,0c4.7-0.1,8.5,3.3,8.5,8L1450.3,2206.5z"/>
						<linearGradient id="SVGID_19_" gradientUnits="userSpaceOnUse" x1="1512.9899" y1="2139.0039" x2="1500.8499" y2="2415.7922">
							<stop  offset="0" style="stop-color:#311944"/>
							<stop  offset="1" style="stop-color:#A03976"/>
						</linearGradient>
						<path class="st24" d="M1519.4,2205.3c0,4.6-3.8,7.8-8.4,7.9l-0.4,0c-4.6,0.1-8.4-2.9-8.4-7.5l0.1-34.4c0-4.6,3.8-8.2,8.4-8.3
							l0.4,0c4.6-0.1,8.4,3.4,8.4,8L1519.4,2205.3z"/>
					</g>
					<g class="st19">
						<linearGradient id="SVGID_20_" gradientUnits="userSpaceOnUse" x1="1443.7266" y1="2213.8057" x2="1430.7368" y2="2509.968">
							<stop  offset="0" style="stop-color:#311944"/>
							<stop  offset="1" style="stop-color:#A03976"/>
						</linearGradient>
						<path class="st25" d="M1450.1,2283.7c0,4.6-3.8,9.3-8.5,9.4l-0.4,0c-4.7,0.1-8.5-4.3-8.5-9l0.1-35.5c0-4.6,3.8-9.2,8.5-9.3
							l0.4,0c4.7-0.1,8.5,4.3,8.5,8.9L1450.1,2283.7z"/>
						<linearGradient id="SVGID_21_" gradientUnits="userSpaceOnUse" x1="1513.1077" y1="2207.4001" x2="1499.2395" y2="2523.5906">
							<stop  offset="0" style="stop-color:#311944"/>
							<stop  offset="1" style="stop-color:#A03976"/>
						</linearGradient>
						<path class="st26" d="M1519.2,2282.3c0,4.6-3.8,6.1-8.4,9.7l-0.4,0c-4.6,0.1-8.4-4.7-8.4-9.3l0.1-37.1c0-4.6,3.8-10.9,8.4-11
							l0.4,0c4.6-0.1,8.4,6,8.4,10.6L1519.2,2282.3z"/>
					</g>
				</g>
				<g>
					<g class="st19">
						
							<linearGradient id="SVGID_22_" gradientUnits="userSpaceOnUse" x1="5942.6245" y1="-3761.6077" x2="5931.5127" y2="-3508.2627" gradientTransform="matrix(0 1 -1 0 -2239 -3789)">
							<stop  offset="0" style="stop-color:#311944"/>
							<stop  offset="1" style="stop-color:#A03976"/>
						</linearGradient>
						<path class="st27" d="M1500.8,2151.4c0,4.6-3,8.5-7.7,8.5l-32.4,0.6c-4.7,0.1-5.9-3.6-5.9-8.3v-0.4c0-4.6,1.7-8.4,6.3-8.5
							l33.1-0.5c4.7-0.1,6.5,3.6,6.5,8.2V2151.4z"/>
						
							<linearGradient id="SVGID_23_" gradientUnits="userSpaceOnUse" x1="6090.333" y1="-3763.2549" x2="6078.3755" y2="-3490.6277" gradientTransform="matrix(0 1 -1 0 -2239 -3789)">
							<stop  offset="0" style="stop-color:#311944"/>
							<stop  offset="1" style="stop-color:#A03976"/>
						</linearGradient>
						<path class="st28" d="M1500.8,2298.7c0,4.6-3.2,8.5-7.9,8.6l-34.1,1c-4.7,0.1-7.6-3.5-7.6-8.2v-0.4c0-4.6,3.2-8.5,7.9-8.6
							l34.1-0.9c4.7-0.1,7.5,3.5,7.5,8.1V2298.7z"/>
					</g>
				</g>
			</g>
			<path class="st29" d="M1231.4,3167.9c-3,16.6-7.8,33.3-15.2,49.2c-2.6,5.6-5.6,11.5-8.8,17.5l-403.1,41.3
				c-55.6,5.7-103.3-32.6-103.3-84.9l0.1-1067.4c0-48.3,39.6-88.4,89.1-94.9c1.2,0.3,3,0.7,4.2,1.1c52,15.7,108.7,45.1,142.5,100
				c21.1,34.3,33.7,78.6,30.9,136.1c-0.7,14.9-2.4,30.7-5.3,47.4c-1.7,9.7-3.3,19.7-5.1,29.8c-2.1,12.6-4.2,25.6-6.3,38.7
				c-3.3,21.1-6.2,42.7-8.7,64.5c-2.3,20.9-4,42.1-4.9,63.1c-0.2,4.1-0.3,8.2-0.4,12.2c-0.3,13.2-0.3,26.3,0.2,39.3
				c0.3,8.9,0.9,17.7,1.6,26.5c4.3,49.3,15.9,96.2,39.2,136.9c17.6,30.7,44,54.1,71.8,75.7c7.3,5.7,14.7,11.3,22.1,16.8
				c25.2,19,49.3,38.8,70.7,61c0.5,0.5,1.1,1.1,1.6,1.6c10.3,10.9,20.1,22.3,29,34.6c9.9,13.6,18.2,28,25.2,43.1
				c2.7,5.8,5.2,11.7,7.4,17.6c4,10.2,7.4,20.8,10.3,31.5c1.3,4.8,2.6,9.7,3.9,14.7c0.1,0.2,0.1,0.4,0.1,0.6c5,19.6,9.3,40.2,12,61
				C1235.9,3110.9,1236.4,3139.8,1231.4,3167.9z"/>
			<g>
				<g>
					<g>
						<linearGradient id="SVGID_24_" gradientUnits="userSpaceOnUse" x1="1634.693" y1="2116.4897" x2="191.3839" y2="2919.3899">
							<stop  offset="0" style="stop-color:#444B8C"/>
							<stop  offset="0.9964" style="stop-color:#3E4177"/>
						</linearGradient>
						<path class="st30" d="M939.3,2572.3c0,10.5-9,19.4-20.1,20L784,2599c-11.3,0.6-20.5-7.6-20.5-18.2l0-48.5
							c0-10.6,9.2-19.6,20.5-20.1l135.3-5.7c11.1-0.5,20,7.7,20,18.1L939.3,2572.3z"/>
						<linearGradient id="SVGID_25_" gradientUnits="userSpaceOnUse" x1="1665.5952" y1="2212.4275" x2="267.5498" y2="2990.1477">
							<stop  offset="0" style="stop-color:#444B8C"/>
							<stop  offset="0.9964" style="stop-color:#3E4177"/>
						</linearGradient>
						<path class="st31" d="M1157.9,2561.9c0,10.3-8.7,19.1-19.4,19.6l-130.6,6.4c-10.9,0.5-19.8-7.5-19.8-17.9l0.1-47.7
							c0-10.4,8.9-19.3,19.8-19.8l130.6-5.5c10.7-0.5,19.3,7.5,19.3,17.8L1157.9,2561.9z"/>
						<linearGradient id="SVGID_26_" gradientUnits="userSpaceOnUse" x1="1693.6506" y1="2302.4324" x2="337.2008" y2="3057.0134">
							<stop  offset="0" style="stop-color:#444B8C"/>
							<stop  offset="0.9964" style="stop-color:#3E4177"/>
						</linearGradient>
						<path class="st32" d="M1362,2552.1c0,10.1-8.4,18.8-18.8,19.3l-126.3,6.2c-10.6,0.5-19.2-7.4-19.1-17.6l0.1-46.9
							c0-10.3,8.6-19,19.2-19.4l126.3-5.4c10.3-0.4,18.7,7.4,18.7,17.6L1362,2552.1z"/>
						<linearGradient id="SVGID_27_" gradientUnits="userSpaceOnUse" x1="1731.8724" y1="2386.8674" x2="416.4136" y2="3118.6455">
							<stop  offset="0" style="stop-color:#444B8C"/>
							<stop  offset="0.9964" style="stop-color:#3E4177"/>
						</linearGradient>
						<path class="st33" d="M1566.3,2542.4c0,10-8.1,18.4-18.2,18.9l-122.1,6c-10.2,0.5-18.5-7.3-18.5-17.4l0.1-46.1
							c0-10.1,8.3-18.6,18.6-19.1l122.1-5.2c10-0.4,18.1,7.3,18.1,17.3L1566.3,2542.4z"/>
					</g>
					<g>
						<linearGradient id="SVGID_28_" gradientUnits="userSpaceOnUse" x1="1707.7963" y1="2230.5735" x2="257.4368" y2="3037.3958">
							<stop  offset="0" style="stop-color:#444B8C"/>
							<stop  offset="0.9964" style="stop-color:#3E4177"/>
						</linearGradient>
						<path class="st34" d="M939.2,2726c0,10.5-9,19.5-20,20.2l-135.2,8.3c-11.3,0.7-20.5-7.3-20.5-18l0-48.5
							c0-10.6,9.2-19.7,20.5-20.4l135.2-7.4c11.1-0.6,20,7.4,20,17.9L939.2,2726z"/>
						<linearGradient id="SVGID_29_" gradientUnits="userSpaceOnUse" x1="1735.4784" y1="2325.5527" x2="330.6131" y2="3107.0669">
							<stop  offset="0" style="stop-color:#444B8C"/>
							<stop  offset="0.9964" style="stop-color:#3E4177"/>
						</linearGradient>
						<path class="st35" d="M1157.6,2712.9c0,10.3-8.7,19.2-19.4,19.8l-130.5,8c-10.9,0.7-19.8-7.2-19.8-17.7l0.1-47.6
							c0-10.4,8.9-19.4,19.8-20l130.5-7.1c10.7-0.6,19.3,7.3,19.3,17.6L1157.6,2712.9z"/>
						<linearGradient id="SVGID_30_" gradientUnits="userSpaceOnUse" x1="1760.5626" y1="2414.6453" x2="397.505" y2="3172.9021">
							<stop  offset="0" style="stop-color:#444B8C"/>
							<stop  offset="0.9964" style="stop-color:#3E4177"/>
						</linearGradient>
						<path class="st36" d="M1361.7,2700.7c0,10.1-8.4,18.8-18.8,19.5l-126.2,7.8c-10.6,0.6-19.1-7.1-19.1-17.4l0.1-46.9
							c0-10.3,8.6-19.1,19.2-19.6l126.3-6.9c10.3-0.6,18.7,7.2,18.7,17.3L1361.7,2700.7z"/>
						<linearGradient id="SVGID_31_" gradientUnits="userSpaceOnUse" x1="1795.8977" y1="2498.1204" x2="474.0413" y2="3233.4575">
							<stop  offset="0" style="stop-color:#444B8C"/>
							<stop  offset="0.9964" style="stop-color:#3E4177"/>
						</linearGradient>
						<path class="st37" d="M1565.9,2688.5c0,10-8.1,18.5-18.1,19.1l-122,7.5c-10.2,0.6-18.5-7-18.5-17.1l0.1-46.1
							c0-10.1,8.3-18.7,18.6-19.3l122-6.7c10-0.5,18.1,7.1,18,17L1565.9,2688.5z"/>
					</g>
					<g>
						<linearGradient id="SVGID_32_" gradientUnits="userSpaceOnUse" x1="1781.4626" y1="2340.5964" x2="324.2283" y2="3151.2432">
							<stop  offset="0" style="stop-color:#444B8C"/>
							<stop  offset="0.9964" style="stop-color:#3E4177"/>
						</linearGradient>
						<path class="st38" d="M939,2876c0,10.5-9,19.6-20,20.4l-135.1,9.9c-11.3,0.8-20.5-7.1-20.5-17.7l0-48.4
							c0-10.6,9.2-19.8,20.5-20.6l135.1-9c11.1-0.7,20,7.2,20,17.6L939,2876z"/>
						<linearGradient id="SVGID_33_" gradientUnits="userSpaceOnUse" x1="1805.9325" y1="2434.6821" x2="394.4165" y2="3219.896">
							<stop  offset="0" style="stop-color:#444B8C"/>
							<stop  offset="0.9964" style="stop-color:#3E4177"/>
						</linearGradient>
						<path class="st39" d="M1157.4,2860.3c0,10.3-8.7,19.3-19.4,20l-130.5,9.6c-10.9,0.8-19.8-7-19.8-17.4l0.1-47.6
							c0-10.4,8.9-19.5,19.8-20.2l130.5-8.7c10.7-0.7,19.3,7.1,19.3,17.3L1157.4,2860.3z"/>
						<linearGradient id="SVGID_34_" gradientUnits="userSpaceOnUse" x1="1828.048" y1="2522.925" x2="458.5471" y2="3284.7664">
							<stop  offset="0" style="stop-color:#444B8C"/>
							<stop  offset="0.9964" style="stop-color:#3E4177"/>
						</linearGradient>
						<path class="st40" d="M1361.3,2845.7c0,10.1-8.4,18.9-18.7,19.7l-126.2,9.3c-10.6,0.8-19.1-6.9-19.1-17.2l0.1-46.8
							c0-10.3,8.6-19.1,19.2-19.8l126.2-8.4c10.3-0.7,18.7,7,18.7,17.1L1361.3,2845.7z"/>
						<linearGradient id="SVGID_35_" gradientUnits="userSpaceOnUse" x1="1860.4983" y1="2605.5037" x2="532.403" y2="3344.3113">
							<stop  offset="0" style="stop-color:#444B8C"/>
							<stop  offset="0.9964" style="stop-color:#3E4177"/>
						</linearGradient>
						<path class="st41" d="M1565.5,2831c0,9.9-8.1,18.6-18.1,19.3l-122,8.9c-10.2,0.7-18.5-6.8-18.5-16.9l0.1-46
							c0-10.1,8.3-18.8,18.6-19.5l122-8.1c10-0.7,18.1,6.9,18,16.8L1565.5,2831z"/>
					</g>
					<linearGradient id="SVGID_36_" gradientUnits="userSpaceOnUse" x1="1855.6686" y1="2446.5823" x2="391.7348" y2="3260.9558">
						<stop  offset="0" style="stop-color:#444B8C"/>
						<stop  offset="0.9964" style="stop-color:#3E4177"/>
					</linearGradient>
					<path class="st42" d="M938.9,3022.3c0,10.5-9,19.7-20,20.6l-135,11.5c-11.3,1-20.5-6.9-20.5-17.4l0-48.4
						c0-10.6,9.2-19.9,20.5-20.8l135.1-10.6c11.1-0.9,20,6.9,20,17.4L938.9,3022.3z"/>
					<linearGradient id="SVGID_37_" gradientUnits="userSpaceOnUse" x1="1876.9301" y1="2539.8408" x2="458.9327" y2="3328.6602">
						<stop  offset="0" style="stop-color:#444B8C"/>
						<stop  offset="0.9964" style="stop-color:#3E4177"/>
					</linearGradient>
					<path class="st43" d="M1157.2,3004.1c0,10.3-8.7,19.3-19.4,20.2l-130.4,11.1c-10.9,0.9-19.8-6.8-19.8-17.2l0.1-47.6
						c0-10.4,8.9-19.6,19.8-20.4l130.4-10.2c10.7-0.8,19.3,6.8,19.3,17.1L1157.2,3004.1z"/>
					<linearGradient id="SVGID_38_" gradientUnits="userSpaceOnUse" x1="1896.0853" y1="2627.2939" x2="520.3043" y2="3392.6287">
						<stop  offset="0" style="stop-color:#444B8C"/>
						<stop  offset="0.9964" style="stop-color:#3E4177"/>
					</linearGradient>
					<path class="st44" d="M1361,2987.1c0,10.1-8.4,19-18.7,19.9l-126.1,10.7c-10.6,0.9-19.1-6.7-19.1-16.9l0.1-46.8
						c0-10.2,8.6-19.2,19.2-20l126.2-9.9c10.3-0.8,18.7,6.7,18.7,16.8L1361,2987.1z"/>
					<linearGradient id="SVGID_39_" gradientUnits="userSpaceOnUse" x1="1930.8615" y1="2562.6394" x2="459.75" y2="3381.0056">
						<stop  offset="0" style="stop-color:#444B8C"/>
						<stop  offset="0.9964" style="stop-color:#3E4177"/>
					</linearGradient>
					<path class="st45" d="M938.8,3179.1c0,10.4-9,19.8-20,20.9l-135,13.1c-11.3,1.1-20.5-6.6-20.5-17.2l0-48.4
						c0-10.6,9.2-20,20.5-21l135-12.2c11.1-1,20,6.7,20,17.1L938.8,3179.1z"/>
					<linearGradient id="SVGID_40_" gradientUnits="userSpaceOnUse" x1="1948.8181" y1="2654.9387" x2="523.8771" y2="3447.6208">
						<stop  offset="0" style="stop-color:#444B8C"/>
						<stop  offset="0.9964" style="stop-color:#3E4177"/>
					</linearGradient>
					<path class="st46" d="M1156.9,3158.2c0,10.3-8.7,19.4-19.3,20.5l-130.3,12.7c-10.9,1.1-19.8-6.5-19.8-16.9l0.1-47.5
						c0-10.4,8.9-19.6,19.8-20.6l130.4-11.8c10.7-1,19.3,6.6,19.3,16.8L1156.9,3158.2z"/>
					<linearGradient id="SVGID_41_" gradientUnits="userSpaceOnUse" x1="1964.924" y1="2741.478" x2="582.4142" y2="3510.5559">
						<stop  offset="0" style="stop-color:#444B8C"/>
						<stop  offset="0.9964" style="stop-color:#3E4177"/>
					</linearGradient>
					<path class="st47" d="M1360.7,3138.7c0,10.1-8.4,19.1-18.7,20.1l-126.1,12.3c-10.6,1-19.1-6.4-19.1-16.7l0.1-46.7
						c0-10.2,8.6-19.3,19.2-20.3l126.1-11.4c10.3-0.9,18.7,6.5,18.7,16.6L1360.7,3138.7z"/>
					<linearGradient id="SVGID_42_" gradientUnits="userSpaceOnUse" x1="1954.8806" y1="2767.1025" x2="625.6088" y2="3506.5647">
						<stop  offset="0" style="stop-color:#444B8C"/>
						<stop  offset="0.9964" style="stop-color:#3E4177"/>
					</linearGradient>
					<path class="st48" d="M1546.6,2908.2l-122,9.5c-10.2,0.8-17.9,12.3-17.9,22.4l-0.1,25.9l-0.1,21.6l-0.2,97.6l-0.1,28.7l0,18.8
						c0,10.1,7.6,19.1,17.8,18.1l121.9-11.9c10-1,18.7-11.5,18.7-21.4l0.1-18.5l0.1-28.3l0.3-96.4l0.1-21.3l0.1-25.6
						C1565.2,2917.5,1556.5,2907.4,1546.6,2908.2z"/>
				</g>
				<g>
					<g>
						<linearGradient id="SVGID_43_" gradientUnits="userSpaceOnUse" x1="863.2391" y1="2456.1521" x2="839.425" y2="2999.1057">
							<stop  offset="0" style="stop-color:#444B8C"/>
							<stop  offset="0.9964" style="stop-color:#26264F"/>
						</linearGradient>
						<path class="st49" d="M946.8,2572c0,10.5-9,19.4-20,20l-135.1,6.7c-11.3,0.6-20.5-7.6-20.5-18.2l0-48.5
							c0-10.6,9.2-19.6,20.5-20.1l135.1-5.7c11.1-0.5,20,7.6,20,18.1L946.8,2572z"/>
						<linearGradient id="SVGID_44_" gradientUnits="userSpaceOnUse" x1="1077.1511" y1="2448.1394" x2="1053.7863" y2="2980.8499">
							<stop  offset="0" style="stop-color:#444B8C"/>
							<stop  offset="0.9964" style="stop-color:#26264F"/>
						</linearGradient>
						<path class="st50" d="M1157.9,2561.9c0,10.3-8.7,19.1-19.4,19.6l-130.6,6.4c-10.9,0.5-19.8-7.5-19.8-17.9l0.1-47.7
							c0-10.4,8.9-19.3,19.8-19.8l130.6-5.5c10.7-0.5,19.3,7.5,19.3,17.8L1157.9,2561.9z"/>
						<linearGradient id="SVGID_45_" gradientUnits="userSpaceOnUse" x1="1291.1152" y1="2440.1182" x2="1268.1981" y2="2962.6206">
							<stop  offset="0" style="stop-color:#444B8C"/>
							<stop  offset="0.9964" style="stop-color:#26264F"/>
						</linearGradient>
						<path class="st51" d="M1369,2551.8c0,10.1-8.4,18.7-18.7,19.3l-126.1,6.2c-10.6,0.5-19.1-7.4-19.1-17.6l0.1-46.9
							c0-10.3,8.6-19,19.2-19.4l126.2-5.4c10.3-0.4,18.7,7.4,18.7,17.6L1369,2551.8z"/>
						<linearGradient id="SVGID_46_" gradientUnits="userSpaceOnUse" x1="1497.876" y1="2432.3608" x2="1475.3899" y2="2945.0356">
							<stop  offset="0" style="stop-color:#444B8C"/>
							<stop  offset="0.9964" style="stop-color:#26264F"/>
						</linearGradient>
						<path class="st52" d="M1573.1,2542c0,10-8.1,18.4-18.1,18.9l-121.9,6c-10.2,0.5-18.5-7.3-18.5-17.4l0.1-46.1
							c0-10.1,8.3-18.6,18.6-19.1l122-5.2c10-0.4,18.1,7.3,18,17.3L1573.1,2542z"/>
					</g>
					<g>
						<linearGradient id="SVGID_47_" gradientUnits="userSpaceOnUse" x1="863.2079" y1="2609.3015" x2="839.0074" y2="3161.0652">
							<stop  offset="0" style="stop-color:#444B8C"/>
							<stop  offset="0.9964" style="stop-color:#26264F"/>
						</linearGradient>
						<path class="st53" d="M946.7,2725.6c0,10.5-9,19.5-20,20.2l-135,8.3c-11.3,0.7-20.5-7.3-20.5-18l0-48.5
							c0-10.6,9.2-19.7,20.5-20.3l135.1-7.4c11.1-0.6,20,7.4,20,17.9L946.7,2725.6z"/>
						<linearGradient id="SVGID_48_" gradientUnits="userSpaceOnUse" x1="1077.0144" y1="2598.7439" x2="1053.2762" y2="3139.967">
							<stop  offset="0" style="stop-color:#444B8C"/>
							<stop  offset="0.9964" style="stop-color:#26264F"/>
						</linearGradient>
						<path class="st54" d="M1157.6,2712.9c0,10.3-8.7,19.2-19.4,19.8l-130.5,8c-10.9,0.7-19.8-7.2-19.8-17.7l0.1-47.6
							c0-10.4,8.9-19.4,19.8-20l130.5-7.1c10.7-0.6,19.3,7.3,19.3,17.6L1157.6,2712.9z"/>
						<linearGradient id="SVGID_49_" gradientUnits="userSpaceOnUse" x1="1290.8768" y1="2588.1763" x2="1267.5991" y2="3118.8997">
							<stop  offset="0" style="stop-color:#444B8C"/>
							<stop  offset="0.9964" style="stop-color:#26264F"/>
						</linearGradient>
						<path class="st55" d="M1368.7,2700.3c0,10.1-8.4,18.8-18.7,19.5l-126.1,7.7c-10.6,0.6-19.1-7.1-19.1-17.4l0.1-46.8
							c0-10.3,8.6-19,19.2-19.6l126.1-6.9c10.3-0.6,18.7,7.2,18.7,17.3L1368.7,2700.3z"/>
						<linearGradient id="SVGID_50_" gradientUnits="userSpaceOnUse" x1="1497.5427" y1="2577.9568" x2="1474.7081" y2="3098.5754">
							<stop  offset="0" style="stop-color:#444B8C"/>
							<stop  offset="0.9964" style="stop-color:#26264F"/>
						</linearGradient>
						<path class="st56" d="M1572.7,2688.1c0,9.9-8.1,18.5-18.1,19.1l-121.9,7.5c-10.2,0.6-18.5-7-18.5-17.1l0.1-46
							c0-10.1,8.3-18.7,18.5-19.3l121.9-6.7c10-0.5,18.1,7.1,18,17L1572.7,2688.1z"/>
					</g>
					<g>
						<linearGradient id="SVGID_51_" gradientUnits="userSpaceOnUse" x1="863.1776" y1="2758.7378" x2="838.5989" y2="3319.1233">
							<stop  offset="0" style="stop-color:#444B8C"/>
							<stop  offset="0.9964" style="stop-color:#26264F"/>
						</linearGradient>
						<path class="st57" d="M946.6,2875.5c0,10.5-9,19.6-20,20.4l-135,9.9c-11.3,0.8-20.5-7.1-20.5-17.7l0-48.4
							c0-10.6,9.2-19.8,20.5-20.6l135-9c11.1-0.7,20,7.1,20,17.6L946.6,2875.5z"/>
						<linearGradient id="SVGID_52_" gradientUnits="userSpaceOnUse" x1="1076.8813" y1="2745.7" x2="1052.7777" y2="3295.2534">
							<stop  offset="0" style="stop-color:#444B8C"/>
							<stop  offset="0.9964" style="stop-color:#26264F"/>
						</linearGradient>
						<path class="st58" d="M1157.4,2860.3c0,10.3-8.7,19.3-19.4,20l-130.5,9.6c-10.9,0.8-19.8-7-19.8-17.4l0.1-47.6
							c0-10.4,8.9-19.5,19.8-20.2l130.5-8.7c10.7-0.7,19.3,7.1,19.3,17.3L1157.4,2860.3z"/>
						<linearGradient id="SVGID_53_" gradientUnits="userSpaceOnUse" x1="1290.6444" y1="2732.6497" x2="1267.0138" y2="3271.4177">
							<stop  offset="0" style="stop-color:#444B8C"/>
							<stop  offset="0.9964" style="stop-color:#26264F"/>
						</linearGradient>
						<path class="st59" d="M1368.4,2845.2c0,10.1-8.4,18.9-18.7,19.7l-126,9.2c-10.6,0.8-19.1-6.9-19.1-17.1l0.1-46.8
							c0-10.2,8.6-19.1,19.2-19.8l126.1-8.4c10.3-0.7,18.7,7,18.6,17.1L1368.4,2845.2z"/>
						<linearGradient id="SVGID_54_" gradientUnits="userSpaceOnUse" x1="1497.2177" y1="2720.0303" x2="1474.0422" y2="3248.4221">
							<stop  offset="0" style="stop-color:#444B8C"/>
							<stop  offset="0.9964" style="stop-color:#26264F"/>
						</linearGradient>
						<path class="st60" d="M1572.3,2830.5c0,9.9-8.1,18.6-18.1,19.3l-121.8,8.9c-10.2,0.7-18.5-6.8-18.4-16.9l0.1-46
							c0-10.1,8.3-18.8,18.5-19.5l121.9-8.1c10-0.7,18,6.9,18,16.8L1572.3,2830.5z"/>
					</g>
					<linearGradient id="SVGID_55_" gradientUnits="userSpaceOnUse" x1="863.1483" y1="2904.4719" x2="838.1997" y2="3473.2893">
						<stop  offset="0" style="stop-color:#444B8C"/>
						<stop  offset="0.9964" style="stop-color:#26264F"/>
					</linearGradient>
					<path class="st61" d="M946.4,3021.7c0,10.4-9,19.7-20,20.6l-134.9,11.5c-11.3,1-20.5-6.8-20.5-17.4l0-48.4
						c0-10.6,9.2-19.9,20.5-20.8l134.9-10.5c11-0.9,20,6.9,20,17.4L946.4,3021.7z"/>
					<linearGradient id="SVGID_56_" gradientUnits="userSpaceOnUse" x1="1076.7516" y1="2889.0173" x2="1052.2908" y2="3446.718">
						<stop  offset="0" style="stop-color:#444B8C"/>
						<stop  offset="0.9964" style="stop-color:#26264F"/>
					</linearGradient>
					<path class="st62" d="M1157.2,3004.1c0,10.3-8.7,19.3-19.4,20.2l-130.4,11.1c-10.9,0.9-19.8-6.8-19.8-17.2l0.1-47.6
						c0-10.4,8.9-19.6,19.8-20.4l130.4-10.2c10.7-0.8,19.3,6.8,19.3,17.1L1157.2,3004.1z"/>
					<linearGradient id="SVGID_57_" gradientUnits="userSpaceOnUse" x1="1290.4178" y1="2873.5486" x2="1266.4423" y2="3420.1836">
						<stop  offset="0" style="stop-color:#444B8C"/>
						<stop  offset="0.9964" style="stop-color:#26264F"/>
					</linearGradient>
					<path class="st63" d="M1368,2986.5c0,10.1-8.4,19-18.7,19.9l-126,10.7c-10.6,0.9-19.1-6.7-19.1-16.9l0.1-46.7
						c0-10.2,8.6-19.2,19.2-20l126-9.8c10.3-0.8,18.7,6.7,18.6,16.8L1368,2986.5z"/>
					<linearGradient id="SVGID_58_" gradientUnits="userSpaceOnUse" x1="863.1169" y1="3060.7117" x2="837.7708" y2="3638.5942">
						<stop  offset="0" style="stop-color:#444B8C"/>
						<stop  offset="0.9964" style="stop-color:#26264F"/>
					</linearGradient>
					<path class="st64" d="M946.3,3178.4c0,10.4-9,19.8-20,20.8l-134.8,13.1c-11.3,1.1-20.5-6.6-20.5-17.2l0-48.3
						c0-10.6,9.2-20,20.5-21l134.9-12.2c11-1,20,6.7,20,17.1L946.3,3178.4z"/>
					<linearGradient id="SVGID_59_" gradientUnits="userSpaceOnUse" x1="1076.6128" y1="3042.6687" x2="1051.7677" y2="3609.1279">
						<stop  offset="0" style="stop-color:#444B8C"/>
						<stop  offset="0.9964" style="stop-color:#26264F"/>
					</linearGradient>
					<path class="st65" d="M1156.9,3158.2c0,10.3-8.7,19.4-19.3,20.5l-130.3,12.7c-10.9,1.1-19.8-6.5-19.8-16.9l0.1-47.5
						c0-10.4,8.9-19.6,19.8-20.6l130.4-11.8c10.7-1,19.3,6.6,19.3,16.8L1156.9,3158.2z"/>
					<linearGradient id="SVGID_60_" gradientUnits="userSpaceOnUse" x1="1290.1752" y1="3024.6099" x2="1265.8286" y2="3579.7021">
						<stop  offset="0" style="stop-color:#444B8C"/>
						<stop  offset="0.9964" style="stop-color:#26264F"/>
					</linearGradient>
					<path class="st66" d="M1367.7,3138c0,10.1-8.4,19.1-18.7,20.1l-125.9,12.3c-10.5,1-19.1-6.4-19.1-16.7l0.1-46.7
						c0-10.2,8.6-19.3,19.1-20.3l125.9-11.4c10.3-0.9,18.7,6.5,18.6,16.6L1367.7,3138z"/>
					<linearGradient id="SVGID_61_" gradientUnits="userSpaceOnUse" x1="1503.1025" y1="2787.2368" x2="1443.2294" y2="4152.3242">
						<stop  offset="0" style="stop-color:#444B8C"/>
						<stop  offset="0.9964" style="stop-color:#26264F"/>
					</linearGradient>
					<path class="st67" d="M1553.6,2907.6l-121.8,9.5c-10.2,0.8-18.1,12.3-18.2,22.4l-0.1,25.9l-0.1,21.6l-0.2,97.6l-0.1,28.7
						l0,18.7c0,10.1,7.9,19.1,18,18.1l121.7-11.8c10-1,18.4-11.4,18.5-21.4l0.1-18.5l0.1-28.3l0.3-96.3l0.1-21.3l0.1-25.5
						C1572,2917,1563.6,2906.8,1553.6,2907.6z"/>
				</g>
			</g>
		</g>
		<g>
			
				<linearGradient id="SVGID_62_" gradientUnits="userSpaceOnUse" x1="3045.4045" y1="3132.4749" x2="3066.9133" y2="3406.2209" gradientTransform="matrix(1 0 0 1 -626.2627 0)">
				<stop  offset="3.597000e-03" style="stop-color:#26264F"/>
				<stop  offset="1" style="stop-color:#444B8C"/>
			</linearGradient>
			<path class="st68" d="M2461.1,3269c0,0-86.6,39.4-88,45.6c-1.4,6.3,55.7-2.1,79-1.2c23.3,0.9,42.5-6,40.4-15.9
				c-2.1-9.9-10.3-34.7-10.3-34.7L2461.1,3269z"/>
			
				<linearGradient id="SVGID_63_" gradientUnits="userSpaceOnUse" x1="3100.9314" y1="3284.8794" x2="3097.021" y2="3001.365" gradientTransform="matrix(1 0 0 1 -626.2627 0)">
				<stop  offset="0" style="stop-color:#AB316D"/>
				<stop  offset="1" style="stop-color:#792D3D"/>
			</linearGradient>
			<path class="st69" d="M2457.9,3237.1l5.3,39c0,0,13.7,4.9,22.9-0.9l3.9-42.8L2457.9,3237.1z"/>
			
				<linearGradient id="SVGID_64_" gradientUnits="userSpaceOnUse" x1="3451.864" y1="3100.5425" x2="3473.3723" y2="3374.283" gradientTransform="matrix(1 0 0 1 -626.2627 0)">
				<stop  offset="3.597000e-03" style="stop-color:#26264F"/>
				<stop  offset="1" style="stop-color:#444B8C"/>
			</linearGradient>
			<path class="st70" d="M2865.7,3238l10.1,16.2c2.8,4.5,3.7,10,2.3,15.1c-3.5,13.4-10.6,39.6-13.6,46.5
				c-4.2,9.3-60.2,14.8-60.2,14.8s-5-7,6.6-15.5c11.6-8.5,19.1-9.8,23.2-22.4c4.1-12.5,6.8-48,6.8-48L2865.7,3238z"/>
			
				<linearGradient id="SVGID_65_" gradientUnits="userSpaceOnUse" x1="3473.4326" y1="3279.741" x2="3469.5222" y2="2996.2227" gradientTransform="matrix(1 0 0 1 -626.2627 0)">
				<stop  offset="0" style="stop-color:#AB316D"/>
				<stop  offset="1" style="stop-color:#792D3D"/>
			</linearGradient>
			<path class="st71" d="M2823.7,3196.9c3.7,2.9,21.7,57.6,21.7,57.6s5.8,7.4,16.9-3.5c11.1-11,5-4.9,5-4.9l-2.1-53.7L2823.7,3196.9
				z"/>
			<linearGradient id="SVGID_66_" gradientUnits="userSpaceOnUse" x1="2407.0063" y1="2825.5896" x2="2616.6306" y2="2825.5896">
				<stop  offset="0" style="stop-color:#311944"/>
				<stop  offset="1" style="stop-color:#6B3976"/>
			</linearGradient>
			<path class="st72" d="M2410.3,2453.9c-4.6,116.3-4.8,242.6,1.9,377.6c7.5,152,22.7,292.4,41.7,419.8c7.1,0.2,14.5,0.3,22.3,0
				c5.3-0.1,10.4-0.4,15.3-0.7c9.9-26.4,21.6-61.1,32.1-102.6c11-43.6,17.7-82.7,22.4-120.1c16.7-131.7-2.9-143.2,10.7-240.8
				c12-86.4,29-89.8,49-212.6c21.7-133.2,5.5-153.1-2.3-160.4C2570,2383.4,2491.4,2404.3,2410.3,2453.9z"/>
			<linearGradient id="SVGID_67_" gradientUnits="userSpaceOnUse" x1="2421.5015" y1="2825.5984" x2="2616.6301" y2="2825.5984">
				<stop  offset="3.597000e-03" style="stop-color:#26264F"/>
				<stop  offset="1" style="stop-color:#444B8C"/>
			</linearGradient>
			<path class="st73" d="M2603.4,2414.1c-31.9-29.3-104.9-11.6-181.9,33.2c88.7,95.8,98.3,157.9,87.7,198.2
				c-12,45.6-48.5,58.7-48.4,108.5c0.2,61.2,55.4,77.5,54.3,142.2c-0.8,42.8-25.1,42.4-30.8,95.3c-6.8,62.6,24.9,84.2,14.7,130.5
				c-4.4,19.9-17,46-53,72.8c2.6,19,5.2,37.9,8,56.3c7.1,0.2,14.5,0.3,22.3,0c5.3-0.1,10.4-0.4,15.3-0.7
				c9.9-26.4,21.6-61.1,32.1-102.6c11-43.6,17.7-82.7,22.4-120.1c16.7-131.7-2.9-143.2,10.7-240.8c12-86.4,29-89.8,49-212.6
				C2627.5,2441.3,2611.3,2421.3,2603.4,2414.1z"/>
			<linearGradient id="SVGID_68_" gradientUnits="userSpaceOnUse" x1="2465.2024" y1="2804.9263" x2="2887.1992" y2="2804.9263">
				<stop  offset="0" style="stop-color:#311944"/>
				<stop  offset="1" style="stop-color:#6B3976"/>
			</linearGradient>
			<path class="st74" d="M2465.2,2451.9c76.3,111.7,158.7,250.7,232.3,417.1c55.6,125.7,96,243.8,125.6,349c4,1.9,13.5,5.6,25.6,4
				c16.5-2.2,26.4-12.7,28.9-15.6c12.1-75.4,10.7-139.3,6.6-185.4c-2.6-29.5-7.3-78.7-26.1-139.4c-21.1-68-35.6-71.8-63.1-143.7
				c-28.5-74.6-21.6-93.3-49-186.7c-11.2-38.4-30-95.5-61-163.8C2611.8,2408.9,2538.5,2430.4,2465.2,2451.9z"/>
			
				<linearGradient id="SVGID_69_" gradientUnits="userSpaceOnUse" x1="-1797.5557" y1="1595.8901" x2="-1913.2855" y2="1943.0811" gradientTransform="matrix(-0.9998 2.180000e-02 2.180000e-02 0.9998 210.2509 0.1062)">
				<stop  offset="0" style="stop-color:#AB316D"/>
				<stop  offset="1" style="stop-color:#792D3D"/>
			</linearGradient>
			<path class="st75" d="M2104.1,1656.8c0,0-14.8-17.7-24.3-30.9c-9.4-13.2-53-50-53-50s-3.1,6,6.3,15.4
				c9.4,9.4,29.1,25.3,24.8,32.4c-4.3,7-16.7,13.4-7.4,26.3c9.3,12.9,24.8,3.6,33.1,13.9c8.3,10.3,16.7,21.6,16.7,21.6
				L2104.1,1656.8z"/>
			
				<linearGradient id="SVGID_70_" gradientUnits="userSpaceOnUse" x1="2268.2234" y1="1892.3796" x2="2466.1743" y2="2713.1172" gradientTransform="matrix(0.9998 -2.180000e-02 2.180000e-02 0.9998 31.9022 3.95)">
				<stop  offset="0" style="stop-color:#AA80F9"/>
				<stop  offset="0.9964" style="stop-color:#6165D7"/>
			</linearGradient>
			<path class="st76" d="M2106.2,1638.2c-9.9,12.4-19.8,24.8-29.7,37.2c12.6,54.7,39.6,137.1,102.2,217.1
				c66.4,84.8,208,211.9,296.2,170.2c53.7-25.4,126.3-112.5,100.2-154.5c-25.1-40.4-133.5-21.3-208-38.1
				C2294.2,1853.7,2199.4,1800.5,2106.2,1638.2z"/>
			
				<linearGradient id="SVGID_71_" gradientUnits="userSpaceOnUse" x1="2577.8967" y1="2167.9392" x2="2740.8862" y2="2167.9392" gradientTransform="matrix(0.9998 -2.180000e-02 2.180000e-02 0.9998 31.9022 3.95)">
				<stop  offset="0" style="stop-color:#AA80F9"/>
				<stop  offset="0.9964" style="stop-color:#6165D7"/>
			</linearGradient>
			<path class="st77" d="M2786.9,1960.7c0,0,57.8,196.6,22,272.3c-35.8,75.6-149.9-7.4-149.9-7.4L2786.9,1960.7z"/>
			
				<linearGradient id="SVGID_72_" gradientUnits="userSpaceOnUse" x1="2567.2043" y1="2167.9392" x2="2730.1936" y2="2167.9392" gradientTransform="matrix(0.9998 -2.180000e-02 2.180000e-02 0.9998 31.9022 3.95)">
				<stop  offset="0" style="stop-color:#AA80F9"/>
				<stop  offset="0.9964" style="stop-color:#6165D7"/>
			</linearGradient>
			<path class="st78" d="M2776.2,1960.9c0,0,57.8,196.6,22,272.3c-35.8,75.6-149.9-7.4-149.9-7.4L2776.2,1960.9z"/>
			
				<linearGradient id="SVGID_73_" gradientUnits="userSpaceOnUse" x1="2433.0371" y1="1852.6289" x2="2630.9878" y2="2673.3657" gradientTransform="matrix(0.9998 -2.180000e-02 2.180000e-02 0.9998 31.9022 3.95)">
				<stop  offset="0" style="stop-color:#AA80F9"/>
				<stop  offset="0.9964" style="stop-color:#6165D7"/>
			</linearGradient>
			<path class="st79" d="M2607.2,1888c-74.2-1.3-131.3,1.1-162.9,34c-33.4,34.8,1.9,72.6-3.5,161.9c-8.4,136.8-94.6,172-98.2,310.7
				c-1.2,46.7,7.5,84.7,14.2,107.5c19.6,23.4,51.6,56.2,98.3,83.3c68,39.4,106.8,31.4,203.7,55.7c158.6,39.7,173.7,90.8,251.6,76
				c78.7-15,146.6-82.9,137.4-119.3c-5.5-21.8-37.2-14.9-74.6-47.4c-48.2-41.9-30.9-83.4-67.8-128.8
				c-53.1-65.2-124.1-23.1-169.3-79.6c-45.8-57.2-30.6-172.2,5.5-235.5c23.6-41.3,33-89.4,53-132.6c1.7-3.6,3.5-9.5,2.5-16.7
				c-4-27.8-50.8-41.9-86.2-52.2C2656.9,1889.2,2613.3,1888.1,2607.2,1888z"/>
			
				<linearGradient id="SVGID_74_" gradientUnits="userSpaceOnUse" x1="1229.6616" y1="1876.1945" x2="1294.0356" y2="1978.5125" gradientTransform="matrix(0.9998 -2.180000e-02 2.180000e-02 0.9998 1281.1685 -23.2851)">
				<stop  offset="0" style="stop-color:#FF9085"/>
				<stop  offset="1" style="stop-color:#FB6FBB"/>
			</linearGradient>
			<path class="st80" d="M2535,1886.5l14.5-4.8c0,0,4.3,19.7,51.3,21.2c26.1-0.6,42.6-15.6,42.6-15.6l10.1,7.1
				c0,0-21.3,27.9-56.2,27.9C2552.5,1922.4,2535,1886.5,2535,1886.5z"/>
			<g>
				
					<linearGradient id="SVGID_75_" gradientUnits="userSpaceOnUse" x1="1994.2614" y1="2647.6533" x2="1918.9078" y2="2769.5488" gradientTransform="matrix(0.9519 -0.3063 0.3063 0.9519 -104.9425 -119.7459)">
					<stop  offset="0" style="stop-color:#AB316D"/>
					<stop  offset="1" style="stop-color:#792D3D"/>
				</linearGradient>
				<path class="st81" d="M2546.9,1822.9c-4-21.6,8.1-40.1,10.8-44.1c11.1-16.7,13.8-18.9,18.6-21.5l6.7-3.3c0,0,0.4-0.1,0.8-0.2
					c4.2-1.1,18-0.2,20.8,0.6c8.8,2.7,15,40,7.5,91.2c0.4,4,0.7,8,1.1,12.1c19.9-2.8,25.7-0.9,26.7,1.8c2.2,5.8-11.7,39.6-30.7,46.3
					c-23.8,8.3-57-13.4-59-21.3c-0.8-3.2-0.7-0.4,15.6-9.8c1.5-4.7,6.1-17.5,7.6-22.2C2569.9,1850.2,2549.9,1838.7,2546.9,1822.9z"
					/>
				
					<linearGradient id="SVGID_76_" gradientUnits="userSpaceOnUse" x1="1166.9458" y1="2331.7095" x2="1098.4757" y2="2442.4702" gradientTransform="matrix(0.8526 -0.5224 0.5224 0.8526 362.7311 402.2268)">
					<stop  offset="0" style="stop-color:#AB316D"/>
					<stop  offset="1" style="stop-color:#792D3D"/>
				</linearGradient>
				<path class="st82" d="M2574.1,1805.5c4.4-5,10.8,0.7,10.2,7.6c-0.6,7-8,13.6-14.4,11.6
					C2563.5,1822.7,2568.2,1812.3,2574.1,1805.5z"/>
				<path class="st83" d="M3280.5,1578.1c-96.8-54.8-256.8,20.3-329.3,112.6c-33.7,42.9-44.7,84.3-94.6,103.6
					c-37.9,14.6-104.1,19.9-149.9-11.6c-5.8-4-29.2-20.8-62.7-40.8c-14.8-8.8-29.2-16.9-46.7-14.2c-4.4,0.7-19.2,2.9-25.6,15
					c-5.2,9.8-2.9,23.2,2.3,31.7c3.1,5.1,5,5.1,5.9,8.8c2.6,10.4-14.5,20.7-11.8,25.5c1.9,3.4,11.1-1,14.2,3
					c3.4,4.4-5.7,12.2-6.2,26.3c-6.7,8.4-7.5,24.3-3.2,43.9c6.2,28.7,16.3,50.5,27.1,65.8c51.8,73.9,88.9,126.8,143.5,145.4
					c72.2,24.7,111.8-32.3,258-86.4c200.2-74,272.9-21.5,330.7-92C3404.3,1826.7,3380.9,1634.9,3280.5,1578.1z"/>
			</g>
			<g class="st19">
				
					<linearGradient id="SVGID_77_" gradientUnits="userSpaceOnUse" x1="2386.6064" y1="1863.8281" x2="2584.5571" y2="2684.5652" gradientTransform="matrix(0.9998 -2.180000e-02 2.180000e-02 0.9998 31.9022 3.95)">
					<stop  offset="0" style="stop-color:#AA80F9"/>
					<stop  offset="0.9964" style="stop-color:#6165D7"/>
				</linearGradient>
				<path class="st84" d="M2854.7,2599.7c-74.6-49.6-142.2,7.1-194.9-36.5c-43.4-36-7.8-82.9-54.8-146.2
					c-51.5-69.4-123.1-51.7-140.1-103.5c-17.6-53.6,53.1-90,54.8-164.5c0.9-38-16.2-87.5-84.3-146.8c3.7,21.7,7.4,48.1,5.4,81.8
					c-8.4,136.8-94.6,172-98.2,310.7c-1.2,46.7,7.5,84.7,14.2,107.5c19.6,23.4,51.6,56.2,98.3,83.3c68,39.4,106.8,31.4,203.7,55.7
					c158.6,39.7,173.7,90.8,251.6,76c22.7-4.3,44.5-13,63.8-24.1c-22.7-3.5-39.6-11.2-52.5-20.2
					C2887.6,2649.2,2893.6,2625.5,2854.7,2599.7z"/>
			</g>
		</g>
		<g>
			<linearGradient id="SVGID_78_" gradientUnits="userSpaceOnUse" x1="829.4495" y1="1655.6702" x2="522.7194" y2="1754.1091">
				<stop  offset="0" style="stop-color:#FCB148"/>
				<stop  offset="5.207239e-02" style="stop-color:#FDBA46"/>
				<stop  offset="0.1424" style="stop-color:#FFC244"/>
				<stop  offset="0.3183" style="stop-color:#FFC444"/>
				<stop  offset="0.4849" style="stop-color:#FDB946"/>
				<stop  offset="0.7754" style="stop-color:#F99C4D"/>
				<stop  offset="0.8658" style="stop-color:#F8924F"/>
				<stop  offset="1" style="stop-color:#F8924F"/>
			</linearGradient>
			<path class="st85" d="M1182.6,1644.5c0,142.3-111.3,254.2-253.5,249.9c-148-4.5-272.5-132.4-272.5-285.3
				c0-153,124.5-264,272.5-248.6C1071.3,1375.3,1182.6,1502.2,1182.6,1644.5z"/>
			<linearGradient id="SVGID_79_" gradientUnits="userSpaceOnUse" x1="1077.5763" y1="1350.3511" x2="803.7465" y2="1954.4707">
				<stop  offset="0" style="stop-color:#FFDB44"/>
				<stop  offset="1" style="stop-color:#FEEF06"/>
			</linearGradient>
			<path class="st86" d="M1221,1632.3c0,142.3-111.3,254.2-253.5,249.9c-148-4.5-272.5-132.4-272.5-285.3s124.5-264,272.5-248.6
				C1109.7,1363,1221,1490,1221,1632.3z"/>
			<linearGradient id="SVGID_80_" gradientUnits="userSpaceOnUse" x1="1027.2052" y1="1988.2352" x2="974.3692" y2="1699.5939">
				<stop  offset="0" style="stop-color:#FCB148"/>
				<stop  offset="5.207239e-02" style="stop-color:#FDBA46"/>
				<stop  offset="0.1424" style="stop-color:#FFC244"/>
				<stop  offset="0.3183" style="stop-color:#FFC444"/>
				<stop  offset="0.4849" style="stop-color:#FDB946"/>
				<stop  offset="0.7754" style="stop-color:#F99C4D"/>
				<stop  offset="0.8658" style="stop-color:#F8924F"/>
				<stop  offset="1" style="stop-color:#F8924F"/>
			</linearGradient>
			<path class="st87" d="M1209.8,1631.5c0,136-106.5,242.9-242.3,238.5c-141.1-4.6-259.6-126.6-259.6-272.3s118.5-251.8,259.6-237.3
				C1103.4,1374.3,1209.8,1495.5,1209.8,1631.5z"/>
			<linearGradient id="SVGID_81_" gradientUnits="userSpaceOnUse" x1="915.1828" y1="1521.0374" x2="1132.9271" y2="1983.267">
				<stop  offset="0" style="stop-color:#FCB148"/>
				<stop  offset="5.207239e-02" style="stop-color:#FDBA46"/>
				<stop  offset="0.1424" style="stop-color:#FFC244"/>
				<stop  offset="0.3183" style="stop-color:#FFC444"/>
				<stop  offset="0.4849" style="stop-color:#FDB946"/>
				<stop  offset="0.7754" style="stop-color:#F99C4D"/>
				<stop  offset="0.8658" style="stop-color:#F8924F"/>
				<stop  offset="1" style="stop-color:#F8924F"/>
			</linearGradient>
			<path class="st88" d="M1201.8,1631c0,131.5-103,234.7-234.3,230.3c-136.2-4.6-250.5-122.4-250.5-263s114.2-243,250.5-229.2
				C1098.8,1382.4,1201.8,1499.4,1201.8,1631z"/>
			<g>
				<linearGradient id="SVGID_82_" gradientUnits="userSpaceOnUse" x1="906.5076" y1="1421.5715" x2="1015.9969" y2="1831.9182">
					<stop  offset="0" style="stop-color:#FFDB44"/>
					<stop  offset="1" style="stop-color:#FEEF06"/>
				</linearGradient>
				<path class="st89" d="M966.2,1413.8L966.2,1413.8c7,0.7,12.6,7,12.6,14.1v24.2c14,1.6,28,4,42,7.3c10.3,2.4,20.6,5.3,30.8,8.7
					c6.1,2,10.3,8.2,9.6,14.5l-3,30.4c-0.8,8.1-8.8,12.8-16.3,9.4c-6.7-3-13.6-5.6-20.7-7.7c-12.3-3.7-25.3-6.2-39-7.3l-3.6-0.3
					v69.4c36.5,10.2,63.2,23.9,80.5,41.2c17.2,17.2,25.8,38.6,25.8,64.3c0,27.8-9.5,50-28.5,66.8c-19.1,16.9-46,26.4-80.7,28.4v26.7
					c0,7.1-5.7,12.6-12.7,12.4l-0.2,0c-7-0.3-12.7-6.3-12.7-13.4v-26.4l-5.6-0.3c-16.3-0.7-31.9-2.4-46.7-5
					c-11-1.9-21.8-4.4-32.3-7.4c-6.4-1.8-10.7-7.9-10.1-14.4l3.5-39c0.8-8.4,9.2-13.4,17.3-10.2c9.4,3.7,18.8,6.8,28.4,9.3
					c14.9,3.9,30.1,6.5,45.4,7.6l0.2-77.2c-35-8.7-61.2-21.5-78.4-38.5c-17.3-17.1-26-38.9-26-65.5c0-27.5,9.4-48.7,28.2-63.6
					c18.6-14.8,45.2-22.2,79.4-22.2v-24.8C953.5,1418.4,959.2,1413.2,966.2,1413.8z M953.5,1506.4c-10.8,0.8-19.2,3.8-25.3,8.9
					c-6,5.2-9.1,12.1-9.1,20.8c0,8.3,2.8,15.2,8.4,20.7c5.6,5.5,14.2,9.9,26,13.2V1506.4z M975.9,1646.1v70.8
					c11.8,0,20.8-2.8,27.1-8.4c6.3-5.6,9.4-13.6,9.4-23.8c0-9.4-2.9-17.1-8.8-23.3C997.8,1655.2,988.6,1650.1,975.9,1646.1z"/>
			</g>
			<linearGradient id="SVGID_83_" gradientUnits="userSpaceOnUse" x1="851.1231" y1="1550.9506" x2="1068.428" y2="2012.2474">
				<stop  offset="0" style="stop-color:#FCB148"/>
				<stop  offset="5.207239e-02" style="stop-color:#FDBA46"/>
				<stop  offset="0.1424" style="stop-color:#FFC244"/>
				<stop  offset="0.3183" style="stop-color:#FFC444"/>
				<stop  offset="0.4849" style="stop-color:#FDB946"/>
				<stop  offset="0.7754" style="stop-color:#F99C4D"/>
				<stop  offset="0.8658" style="stop-color:#F8924F"/>
				<stop  offset="1" style="stop-color:#F8924F"/>
			</linearGradient>
			<path class="st90" d="M925.1,1663.2c7.9-78.2,79.8-111.3,70.4-183.2c-5.8-44.3-39.4-81.7-76.9-110.9
				C805,1381,717,1475.2,717,1598.3c0,140.6,114.2,258.4,250.5,263c13.2,0.4,26.1-0.2,38.7-1.9
				C952.1,1805.6,918.3,1730.4,925.1,1663.2z"/>
		</g>
		<g>
			<linearGradient id="SVGID_84_" gradientUnits="userSpaceOnUse" x1="1160.5831" y1="1075.5879" x2="792.3101" y2="1193.7777">
				<stop  offset="0" style="stop-color:#FCB148"/>
				<stop  offset="5.207239e-02" style="stop-color:#FDBA46"/>
				<stop  offset="0.1424" style="stop-color:#FFC244"/>
				<stop  offset="0.3183" style="stop-color:#FFC444"/>
				<stop  offset="0.4849" style="stop-color:#FDB946"/>
				<stop  offset="0.7754" style="stop-color:#F99C4D"/>
				<stop  offset="0.8658" style="stop-color:#F8924F"/>
				<stop  offset="1" style="stop-color:#F8924F"/>
			</linearGradient>
			<path class="st91" d="M1584.5,1062.2c0,170.8-133.6,305.2-304.3,300c-177.7-5.5-327.1-158.9-327.1-342.6
				c0-183.6,149.4-317,327.1-298.5C1451,739,1584.5,891.4,1584.5,1062.2z"/>
			<linearGradient id="SVGID_85_" gradientUnits="userSpaceOnUse" x1="1458.4946" y1="709.0089" x2="1129.723" y2="1434.3403">
				<stop  offset="0" style="stop-color:#FFDB44"/>
				<stop  offset="1" style="stop-color:#FEEF06"/>
			</linearGradient>
			<path class="st92" d="M1630.7,1047.5c0,170.8-133.6,305.2-304.3,300c-177.7-5.5-327.1-158.9-327.1-342.6
				c0-183.6,149.4-317,327.1-298.5C1497.1,724.2,1630.7,876.6,1630.7,1047.5z"/>
			<linearGradient id="SVGID_86_" gradientUnits="userSpaceOnUse" x1="1398.017" y1="1474.8795" x2="1334.5797" y2="1128.3245">
				<stop  offset="0" style="stop-color:#FCB148"/>
				<stop  offset="5.207239e-02" style="stop-color:#FDBA46"/>
				<stop  offset="0.1424" style="stop-color:#FFC244"/>
				<stop  offset="0.3183" style="stop-color:#FFC444"/>
				<stop  offset="0.4849" style="stop-color:#FDB946"/>
				<stop  offset="0.7754" style="stop-color:#F99C4D"/>
				<stop  offset="0.8658" style="stop-color:#F8924F"/>
				<stop  offset="1" style="stop-color:#F8924F"/>
			</linearGradient>
			<path class="st93" d="M1617.3,1046.6c0,163.3-127.8,291.6-290.9,286.3c-169.4-5.5-311.7-151.9-311.7-326.9
				s142.3-302.3,311.7-284.9C1489.5,737.8,1617.3,883.3,1617.3,1046.6z"/>
			<linearGradient id="SVGID_87_" gradientUnits="userSpaceOnUse" x1="1263.5181" y1="913.942" x2="1524.951" y2="1468.9144">
				<stop  offset="0" style="stop-color:#FCB148"/>
				<stop  offset="5.207239e-02" style="stop-color:#FDBA46"/>
				<stop  offset="0.1424" style="stop-color:#FFC244"/>
				<stop  offset="0.3183" style="stop-color:#FFC444"/>
				<stop  offset="0.4849" style="stop-color:#FDB946"/>
				<stop  offset="0.7754" style="stop-color:#F99C4D"/>
				<stop  offset="0.8658" style="stop-color:#F8924F"/>
				<stop  offset="1" style="stop-color:#F8924F"/>
			</linearGradient>
			<path class="st94" d="M1607.7,1045.9c0,157.9-123.7,281.8-281.3,276.5c-163.6-5.5-300.7-146.9-300.7-315.8
				s137.2-291.8,300.7-275.2C1484,747.5,1607.7,888,1607.7,1045.9z"/>
			<g>
				<linearGradient id="SVGID_88_" gradientUnits="userSpaceOnUse" x1="1253.1024" y1="794.5191" x2="1384.5599" y2="1287.1986">
					<stop  offset="0" style="stop-color:#FFDB44"/>
					<stop  offset="1" style="stop-color:#FEEF06"/>
				</linearGradient>
				<path class="st95" d="M1324.7,785.2L1324.7,785.2c8.4,0.8,15.2,8.3,15.2,16.9v29.1c16.8,1.9,33.6,4.8,50.4,8.7
					c12.4,2.9,24.7,6.4,37,10.4c7.3,2.4,12.3,9.8,11.6,17.5l-3.6,36.5c-0.9,9.7-10.5,15.4-19.5,11.3c-8.1-3.6-16.3-6.7-24.8-9.2
					c-14.8-4.5-30.4-7.4-46.8-8.7l-4.3-0.4v83.3c43.8,12.2,75.9,28.7,96.7,49.4c20.7,20.6,31,46.3,31,77.2
					c0,33.4-11.4,60.1-34.2,80.2c-23,20.3-55.2,31.6-96.9,34.1v32.1c0,8.5-6.8,15.2-15.2,14.8l-0.3,0c-8.4-0.3-15.2-7.5-15.2-16.1
					v-31.7l-6.8-0.3c-19.5-0.9-38.2-2.9-56.1-6c-13.2-2.3-26.2-5.3-38.8-8.9c-7.6-2.2-12.9-9.5-12.2-17.3l4.2-46.9
					c0.9-10.1,11.1-16,20.7-12.2c11.2,4.4,22.6,8.2,34.1,11.2c17.9,4.7,36.1,7.8,54.5,9.1l0.3-92.6c-42-10.4-73.5-25.8-94.1-46.2
					c-20.8-20.5-31.2-46.7-31.2-78.6c0-33,11.3-58.5,33.8-76.3c22.4-17.8,54.2-26.6,95.3-26.6v-29.7
					C1309.5,790.7,1316.3,784.4,1324.7,785.2z M1309.5,896.4c-13,0.9-23.1,4.5-30.4,10.7c-7.3,6.2-10.9,14.5-10.9,25
					c0,9.9,3.4,18.2,10.1,24.8c6.7,6.6,17.1,11.9,31.2,15.9V896.4z M1336.4,1064.1v84.9c14.1,0,24.9-3.3,32.5-10.1
					c7.5-6.7,11.3-16.3,11.3-28.6c0-11.2-3.5-20.6-10.5-28C1362.7,1075,1351.6,1068.9,1336.4,1064.1z"/>
			</g>
			<linearGradient id="SVGID_89_" gradientUnits="userSpaceOnUse" x1="1186.6053" y1="949.8571" x2="1447.5109" y2="1503.7098">
				<stop  offset="0" style="stop-color:#FCB148"/>
				<stop  offset="5.207239e-02" style="stop-color:#FDBA46"/>
				<stop  offset="0.1424" style="stop-color:#FFC244"/>
				<stop  offset="0.3183" style="stop-color:#FFC444"/>
				<stop  offset="0.4849" style="stop-color:#FDB946"/>
				<stop  offset="0.7754" style="stop-color:#F99C4D"/>
				<stop  offset="0.8658" style="stop-color:#F8924F"/>
				<stop  offset="1" style="stop-color:#F8924F"/>
			</linearGradient>
			<path class="st96" d="M1275.4,1084.6c9.5-93.9,95.8-133.6,84.5-220c-6.9-53.2-47.3-98.1-92.3-133.1
				c-136.5,14.3-242,127.3-242,275.2c0,168.8,137.2,310.3,300.7,315.8c15.9,0.5,31.4-0.3,46.5-2.3
				C1307.9,1255.6,1267.3,1165.3,1275.4,1084.6z"/>
		</g>
	</g>
</g>
</svg>
