<?xml version="1.0" encoding="utf-8"?>
<!-- Generator: Adobe Illustrator 25.2.3, SVG Export Plug-In . SVG Version: 6.00 Build 0)  -->
<svg version="1.1" xmlns="http://www.w3.org/2000/svg" xmlns:xlink="http://www.w3.org/1999/xlink" x="0px" y="0px"
	 viewBox="0 0 3710 3710" style="enable-background:new 0 0 3710 3710;" xml:space="preserve">
<style type="text/css">
	.st0{fill:#FFFFFF;}
	.st1{fill:#F4F7FA;}
	.st2{opacity:0.5;clip-path:url(#SVGID_3_);}
	.st3{opacity:0.5;clip-path:url(#SVGID_6_);}
	.st4{opacity:0.5;clip-path:url(#SVGID_9_);}
	.st5{opacity:0.5;clip-path:url(#SVGID_12_);}
	.st6{fill:#A5ACB7;}
	.st7{fill:#BFC8D6;}
	.st8{fill:#D8DEE8;}
	.st9{fill:url(#SVGID_13_);}
	.st10{fill:url(#SVGID_14_);}
	.st11{fill:url(#SVGID_15_);}
	.st12{fill:url(#SVGID_16_);}
	.st13{fill:url(#SVGID_17_);}
	.st14{opacity:0.3;fill:url(#SVGID_18_);}
	.st15{fill:url(#SVGID_19_);}
	.st16{fill:url(#SVGID_20_);}
	.st17{fill:url(#SVGID_21_);}
	.st18{fill:url(#SVGID_22_);}
	.st19{opacity:0.3;fill:url(#SVGID_23_);}
	.st20{fill:url(#SVGID_24_);}
	.st21{fill:url(#SVGID_25_);}
	.st22{fill:url(#SVGID_26_);}
	.st23{fill:url(#SVGID_27_);}
	.st24{fill:url(#SVGID_28_);}
</style>
<g id="Background">
	<g>
		<g>
			<rect class="st0" width="3710" height="3710"/>
		</g>
	</g>
</g>
<g id="Illustration">
	<g>
		<path class="st1" d="M1950.5,428C1209.8,405.5,568.2,958.2,471.3,1683.4c-106,792.9,477.3,1506.4,1195.1,1620.6
			c892.8,142.1,1758.7-680.1,1681-1572.1C3288.7,1059.9,2703.4,450.8,1950.5,428z"/>
		<g>
			<g>
				<g>
					<defs>
						<path id="SVGID_1_" d="M2069,1989.6c167.9,34.4,386,51,607.3-14.2c56.5-16.6,405.3-119.5,392.6-294.7
							c-4.5-61.7-50-80.3-57.3-162.8c-8.6-97.7,49.9-134.1,103.2-243.2c31.8-65.1,124.8-255.6,35.2-389
							c-53.6-79.7-170-135.3-266-129c-140.8,9.3-210.1,150.1-323.8,390.6c-100.8,213.2-92.2,272.1-167.1,424.2
							C2337.5,1684.4,2242.1,1836.1,2069,1989.6z"/>
					</defs>
					<linearGradient id="SVGID_2_" gradientUnits="userSpaceOnUse" x1="3528.3779" y1="1052.1819" x2="2582.1931" y2="1447.6459">
						<stop  offset="0" style="stop-color:#AA80F9"/>
						<stop  offset="0.9964" style="stop-color:#6165D7"/>
					</linearGradient>
					<use xlink:href="#SVGID_1_"  style="overflow:visible;fill:url(#SVGID_2_);"/>
					<clipPath id="SVGID_3_">
						<use xlink:href="#SVGID_1_"  style="overflow:visible;"/>
					</clipPath>
					<g class="st2">
						<path class="st0" d="M1807.7,2027.3c-155.9,0-312.9-41-467.7-122.1l3.3-6.4c175.5,92,353.7,132,529.8,118.9
							c630.2-46.9,968.9-785.9,1057.6-1011.3c50.4-128,67.2-277.5,49.8-444.2l7.1-0.7c17.5,167.9,0.6,318.4-50.3,447.5
							c-73,185.4-203.2,452.3-409,671.4c-198,210.9-418.3,326.7-654.8,344.4C1851.7,2026.4,1829.7,2027.3,1807.7,2027.3z"/>
						<path class="st0" d="M2758.2,1368.5l-1.6-3.2c-0.4-0.8-37.3-76.9-59.9-186.4c-20.8-101.2-33.3-252.5,25.5-398.7l6.7,2.7
							c-58.1,144.5-45.7,294.3-25.1,394.6c19.8,96,50.6,166,57.8,181.5c396.4-193.7,438.7-496.3,442.2-584.7
							c0.1-2.7,0.1-3.6,0.3-4.3l7.1,1.1l-3.5-0.6l3.5,0.5c-0.1,0.5-0.1,1.6-0.2,3.4c-3.6,89.6-46.5,397-449.5,592.4L2758.2,1368.5z"
							/>
						<path class="st0" d="M2791.5,1729.5c-74,0-161.8-13.8-263.5-51.8l-1.8-0.7l-0.5-1.8c-0.6-2.5-60.9-256,8.7-570.8l70.2-317.6
							l7,1.5l-70.2,317.6c-66.1,299-14.4,542.2-9.1,565.7c211.5,78.6,362.1,51.4,451.3,14.6c96.9-40,144.2-99.5,144.6-100.1l5.7,4.4
							c-0.5,0.6-48.7,61.4-147.2,102.2C2938.9,1712.4,2873.8,1729.5,2791.5,1729.5z"/>
					</g>
				</g>
			</g>
			<g>
				<g>
					<defs>
						<path id="SVGID_4_" d="M1553.4,2080c96.8-63.5,228.6-171.1,309.6-341.7c106.1-223.7,31.4-359.1,111.6-755.2
							c50.7-250.4,88.6-424.7,231.8-496.5c112.2-56.2,275.7-42.8,361.5,42.5c71.3,70.9,97.3,199.7,96.6,288.3
							c-0.6,72.2-18.8,121.5,15.2,165.5c34.7,45,83.1,31.4,116.9,66.1c68.5,70.4-9.7,250.4-22.3,279.5
							c-140.5,323.6-491.6,497.2-645.6,571C2001.2,1960.6,1807.2,2037.8,1553.4,2080z"/>
					</defs>
					<linearGradient id="SVGID_5_" gradientUnits="userSpaceOnUse" x1="1716.1562" y1="856.3092" x2="2361.9976" y2="1693.7744">
						<stop  offset="3.597120e-03" style="stop-color:#E38DDD"/>
						<stop  offset="1" style="stop-color:#9571F6"/>
					</linearGradient>
					<use xlink:href="#SVGID_4_"  style="overflow:visible;fill:url(#SVGID_5_);"/>
					<clipPath id="SVGID_6_">
						<use xlink:href="#SVGID_4_"  style="overflow:visible;"/>
					</clipPath>
					<g class="st3">
						<path class="st0" d="M1447.5,2125.9l-1.4-7c270.8-52.2,619.6-173.5,742.9-455c45.3-103.5,55.5-217.2,69.6-374.5
							c11.2-125.6,7.9-215.6,4.9-295.1c-3.9-103.8-7-185.8,24.8-298.4c32.2-114.3,90.8-223.3,174.1-324l5.5,4.6
							c-82.6,99.9-140.7,208-172.7,321.4c-31.5,111.6-28.4,193.1-24.5,296.2c3,79.6,6.4,169.9-4.9,295.9
							c-13.6,152.1-24.3,272.2-70.1,376.7c-58.6,133.7-174,244.3-343,328.5C1738.4,2052.2,1602.1,2096.1,1447.5,2125.9z"/>
						<path class="st0" d="M2269.6,1201.4l-3.4-2.2c-0.8-0.5-76.8-51.4-144.3-150.5c-62.4-91.5-130.1-244-99.1-451l7.1,1.1
							c-30.7,204.7,36.3,355.5,97.9,445.9c58.8,86.2,123.8,135.3,139,146.2c106.7-212.2,251.4-331.6,354.3-394.6
							c112.2-68.7,200.5-86.8,201.4-87l1.4,7c-0.9,0.2-88.1,18.2-199.4,86.2c-102.6,62.8-247.2,182.4-353.2,395.2L2269.6,1201.4z"/>
						<path class="st0" d="M2229.7,1539.9l-1.1-2.4c-0.6-1.3-61.3-134.2-148.3-255.4c-86.5-120.6-324.7-198.8-327.1-199.6l2.2-6.8
							c2.4,0.8,242.8,79.7,330.7,202.2c80.9,112.9,139.3,235.7,147.9,254.2c111.3-14,258.9-120,427-307
							c128.3-142.7,224.3-283.4,225.3-284.8l5.9,4c-1,1.4-97.2,142.5-225.9,285.5c-173.1,192.5-319.2,296.7-434.1,309.7
							L2229.7,1539.9z"/>
						<path class="st0" d="M1940.8,1972.9c-22.7,0-35.5-0.7-35.9-0.7l-7.1-0.4l4.6-5.5c85.4-102.4,96.7-223.6,33.7-360.3
							c-47.2-102.3-120.7-175.3-121.5-176l5-5.1c0.7,0.7,75.1,74.5,122.9,177.9c43.6,94.5,73.4,233.5-30,362.4
							c28.8,0.9,142,2.4,288.6-21.7c156.4-25.7,383.9-86.6,579.4-230.7l379.7-279.9l4.3,5.8l-379.7,279.9
							c-196.7,145-425.4,206.2-582.7,232.1C2085.5,1969.9,1990,1972.9,1940.8,1972.9z"/>
					</g>
				</g>
			</g>
		</g>
		<g>
			<g>
				<g>
					<defs>
						<path id="SVGID_7_" d="M2061.2,2366.9c-114-20.2-277.6-67.1-419.2-191.9c-185.8-163.7-170.5-317.6-400.4-650
							c-145.4-210.1-248.9-355.3-408.9-364.8c-125.3-7.4-270.3,69.4-315.5,181.6c-37.6,93.3-10.6,221.8,24.9,303
							c29,66.1,65.2,104.2,51.3,158.1c-14.2,55-64,61.6-81.3,106.8c-35.2,91.7,107.7,226.3,130.8,248
							c256.8,242,647.8,263,818.5,270.1C1602.6,2433.8,1811.3,2428.1,2061.2,2366.9z"/>
					</defs>
					<linearGradient id="SVGID_8_" gradientUnits="userSpaceOnUse" x1="569.7882" y1="1255.9093" x2="1596.3683" y2="2587.0803">
						<stop  offset="3.597120e-03" style="stop-color:#E38DDD"/>
						<stop  offset="1" style="stop-color:#9571F6"/>
					</linearGradient>
					<use xlink:href="#SVGID_7_"  style="overflow:visible;fill:url(#SVGID_8_);"/>
					<clipPath id="SVGID_9_">
						<use xlink:href="#SVGID_7_"  style="overflow:visible;"/>
					</clipPath>
					<g class="st4">
						<path class="st0" d="M1821.6,2408.9c-23.4,0-46.3-0.6-68.8-1.9c-188.5-10.7-338.2-66.8-444.7-166.6
							c-83.3-78-140.6-184.2-213-318.5c-60.1-111.4-92.6-195.7-121.2-270c-37.1-96.3-66.5-172.4-139.4-262.5
							c-74.1-91.6-170.1-168-285.4-227.2l3.3-6.4c116.2,59.7,213,136.7,287.7,229.1c73.6,91,103.1,167.6,140.5,264.5
							c28.6,74.2,61,158.2,120.8,269.2c75,139,129.1,239.5,211.6,316.7c224.3,210,592.6,184,862.1,125.1l1.5,7
							C2049.9,2395,1930.8,2408.9,1821.6,2408.9z"/>
						<path class="st0" d="M1056.4,1842l-3.1-2.6c-181.5-153.9-361.7-206.7-480.8-223.9c-129-18.6-216-0.8-216.9-0.6l-1.5-7
							c0.9-0.2,89.2-18.3,219.4,0.5c119.4,17.3,299.5,70,481.2,222.8c9.8-16.1,50.2-87,70.2-189.5c20.9-107.3,23-272.2-86-448
							l6.1-3.8c110.2,178,108.1,344.9,86.9,453.5c-23,117.7-72.8,194.5-73.3,195.2L1056.4,1842z"/>
						<path class="st0" d="M1135.9,2149.7c-107.8,0-252.8-41.8-432.9-125c-174.6-80.7-318.8-172.4-320.2-173.3l3.9-6
							c1.4,0.9,145.2,92.4,319.4,172.9c228.3,105.5,405.7,144.8,513.4,113.7c0.6-20.4,5.8-156.3,35.6-292
							c32.4-147.2,222.2-314.6,224.1-316.3l4.7,5.4c-1.9,1.7-189.9,167.5-221.8,312.4c-32.1,145.7-35.5,291.8-35.5,293.2l-0.1,2.6
							l-2.5,0.8C1198.3,2145.8,1168.8,2149.7,1135.9,2149.7z"/>
						<path class="st0" d="M1052,2549.8c-85,0-174.6-8.2-264.8-29.3L327.9,2413l1.6-7l459.3,107.5c236.5,55.3,469.5,21.6,623.4-16.5
							c144.2-35.7,247.6-81.7,273.8-93.9c-145.8-77.7-173.4-217.2-170.5-321.2c3.1-113.9,42.4-211,42.8-212l6.6,2.7
							c-0.4,1-39.2,97-42.2,209.6c-4,150.4,54.2,257.3,173,317.8l6.4,3.2l-6.4,3.2c-1.1,0.6-114,55.9-281.5,97.4
							C1318.1,2527.7,1191.3,2549.8,1052,2549.8z"/>
					</g>
				</g>
			</g>
			<g>
				<g>
					<defs>
						<path id="SVGID_10_" d="M1823.6,2418.4c-80.1,130.2-202.6,282.3-380.2,386.4c-45.3,26.6-325.3,190.7-431.6,75.4
							c-37.4-40.6-21.7-81.6-70.9-136.7c-58.3-65.2-117.7-49.4-221.2-81.4c-61.8-19.1-242.6-74.9-274.6-214.7
							c-19.1-83.5,15.8-193.2,78.5-251.8c92-85.9,226-45,451.9,27.9c200.3,64.7,233.4,106.2,378.1,150.4
							C1461.1,2406.7,1618.1,2437.3,1823.6,2418.4z"/>
					</defs>
					<linearGradient id="SVGID_11_" gradientUnits="userSpaceOnUse" x1="1961.3271" y1="2091.7302" x2="1108.8453" y2="2448.0305">
						<stop  offset="0" style="stop-color:#AA80F9"/>
						<stop  offset="0.9964" style="stop-color:#6165D7"/>
					</linearGradient>
					<use xlink:href="#SVGID_10_"  style="overflow:visible;fill:url(#SVGID_11_);"/>
					<clipPath id="SVGID_12_">
						<use xlink:href="#SVGID_10_"  style="overflow:visible;"/>
					</clipPath>
					<g class="st5">
						<path class="st0" d="M1341.8,2528.8c-268.3,0-521.4-78.3-686.6-144C540,2339,431.7,2258,333.1,2144.1l5.4-4.7
							c97.8,113.1,205.2,193.4,319.2,238.8c200.8,79.9,888.2,310.9,1303.5-70.4c116-106.5,198.8-246.8,246.1-417.1l6.9,1.9
							c-47.7,171.6-131.2,313.1-248.2,420.5c-155.9,143.2-366,215.8-624.2,215.8C1341.9,2528.8,1341.8,2528.8,1341.8,2528.8z"/>
						<path class="st0" d="M704.3,2546.8c-201.1,0-326.2-90.4-368.9-127.4c-1.2-1-2-1.7-2.3-2l4-5.9c0.4,0.3,1.4,1.1,3,2.5
							c59.6,51.6,282,208.7,649.7,69.4c-13-31.8-121.5-281.7-354.5-372.5l2.6-6.7c131.1,51.1,222,151.7,275.1,227.1
							c57.5,81.6,84.5,152.2,84.8,152.9l1.3,3.3l-3.3,1.3C885.7,2531,788.3,2546.8,704.3,2546.8z"/>
						<path class="st0" d="M925.6,2868.2c-7.1,0-11.3-0.4-12-0.4l0.7-7.2c0.7,0.1,68.2,5.6,153.3-33
							c78.3-35.5,187.9-116.7,265.8-302.1c-12.7-18.7-139.3-200.1-373.4-339.3L710.5,2038l3.7-6.2l249.5,148.3
							c247.4,147.1,375.5,341.2,376.8,343.1l1,1.6l-0.7,1.8c-79,189-190.8,271.7-270.6,307.8
							C1003.7,2864.4,948.9,2868.2,925.6,2868.2z"/>
					</g>
				</g>
			</g>
		</g>
		<g>
			<path class="st6" d="M944.2,3040.3c-81.1,2.5-144.6-58.1-144.6-137.9V1251.5c0-81.6,67.5-147.6,150.5-147.1l2054,10.6
				c0.8,0,1.3,0,2,0c67.6,1.7,122.1,62.2,122.1,134.9v1460c0,72.3-54.2,136.1-121.3,142.3L953.4,3039.7
				C950.2,3040,947.3,3040.2,944.2,3040.3z"/>
			<path class="st7" d="M974,3039.3c-81,2.5-144.4-58-144.4-137.7V1252.1c0-81.5,67.4-147.4,150.2-147l2050.7,10.6c0.8,0,1.3,0,2,0
				c67.5,1.6,121.9,62.1,121.9,134.8v1458.8c0,72.3-54.1,136-121.1,142.2L983.2,3038.8C980,3039.1,977.1,3039.2,974,3039.3z"/>
			<path class="st1" d="M3031.1,2813.8L980.4,2999c-59.7,5.4-108.4-38.7-108.4-98.5V1252.9c0-59.8,48.7-108.1,108.4-107.8
				l2050.8,8.3c47.6,0.2,86.1,43.3,86.1,96.3v1460.5C3117.2,2763.1,3078.8,2809.5,3031.1,2813.8z"/>
			<path class="st8" d="M1492.1,2601.8l-330.9,23.8c-4,0.3-7.2-2.7-7.2-6.7v-79.7c0-4,3.2-7.5,7.2-7.7l330.9-22.2
				c3.8-0.3,7,2.7,7,6.7v78.3C1499,2598.1,1495.9,2601.5,1492.1,2601.8z"/>
			<path class="st8" d="M2430.2,2701.7l-1269,103c-4,0.3-7.2-2.7-7.2-6.7v-79.7c0-4,3.2-7.5,7.2-7.8l1269-96.8
				c3.5-0.3,6.3,2.6,6.3,6.3v74.4C2436.5,2698.1,2433.7,2701.4,2430.2,2701.7z"/>
			<g>
				<path class="st8" d="M1140.8,1559.7c-18.2,11.5-35.8,36.2-31.8,62.9c4.1,27,28.5,43.6,47.7,48.8c27,7.2,35.9-10.4,65-8.6
					c43.9,2.7,78.1,46.4,92.4,79c14,32,3.1,40.1,12.1,77.1c15.9,65,65.1,103.5,111.9,140.1c39,30.5,98.3,66.8,109,55
					c3.8-4.2,0.4-13.5-1.7-19.1c-8.2-22.2-27-26.6-52.6-46.8c-18.2-14.3-41.3-32.4-37.5-47.6c3.7-14.9,32.8-25.1,54.5-19.4
					c21.7,5.8,33.4,26.8,39,37c4.8,8.7,4,20.2,8.5,20.6c3.1,0.3,6.5-4.5,8-8.6c4-10.4-3-20.2-5.5-28.1c-5.8-18.2,8-38.5,21.7-58.7
					c22.9-33.8,36.3-34.4,71.7-73.9c23.6-26.4,35.5-39.9,36.8-58.6c2.2-32.1-24.5-55.3-28.9-59.2c-21.6-18.8-58.3-31.1-73.9-16.9
					c-14,12.8,0.7,36.3-15.7,54.8c-11.5,13-31.7,16.1-47.4,11.6c-22.2-6.3-35-27.4-36.3-46.8c-0.3-3.8-1.4-21.5,10.2-34
					c3.3-3.6,11.4-10.7,38.5-12.4c38.1-2.4,46,10.1,68.7,4.4c18.9-4.7,41.7-20.4,41.4-35.5c-0.3-17.6-32-18.8-68.4-57.8
					c-14.2-15.2-25.7-27.9-24.8-44.9c1.3-23.8,26.5-42.9,31.5-46.7c19.6-14.9,37-27,37-27c4.9-3.4,12-8.3,11.2-12.8
					c-0.5-3-4.4-5-11.2-6.8c-21.6-5.9-38.1-2-38.1-2c-25.7,6-33.9,18.9-65.4,36.6c-12.7,7.1-34.2,19.2-63.6,26.3
					c-33.5,8.1-45.1,2-61.7,14.7c-16.1,12.3-11,22.4-27.6,41.3c-17.3,19.9-38.6,26.7-71.6,37.5c-12.7,4.1-38.2,11.6-73.3,15.3
					C1170.5,1556.1,1160,1547.6,1140.8,1559.7z"/>
				<path class="st8" d="M1687.7,1395.4c-34.8,9.8-65.1,18.3-71.4,40c-3.3,11.2-0.2,26.6,9,34.6c18.3,15.9,45.8-10,65.8,3.8
					c10.7,7.4,6.6,17.4,18.9,72.2c8.2,36.6,14.9,54.1,27.7,69.6c7.3,8.8,17.5,21.2,27.6,18.9c15-3.3,9.3-34.1,33-56.8
					c8.3-8,9.8-4.9,49.3-24.9c23-11.6,34.6-17.5,37.1-22.3c13-24.3-21.5-53.1-7.6-82c2.6-5.4,3-2.6,20.7-25.3
					c20.3-26.1,20.1-30.1,19.6-32.1c-2.3-8.4-17.4-8.9-56.6-13.2c-65.2-7.2-70.5-11-90-6.1c-12.9,3.2-16.3,6.4-44.2,14.1
					C1704.8,1391.9,1702.3,1391.2,1687.7,1395.4z"/>
				<path class="st8" d="M1599.4,2011.8c-19.3,15.3-23.2,40.6-24.7,50.8c-3.9,25.4,3.4,41.6,16.9,82.6
					c16.4,49.8,24.6,74.7,25.8,88.9c1.9,22.1-2.1,26.2-17.9,114.4c-11.8,65.6-13.1,82.6-2.2,93.9c15.9,16.6,50.1,12.8,51.5,8.2
					c0.7-2.2-6.7-3.7-12.3-10.8c-12.4-15.7-3.5-43.4-1.1-50.8c9.3-28.8,27-41.9,55.7-71.4c33.8-34.8,55.8-57.4,72-90.2
					c8-16.3,25.1-52.1,19.8-97.3c-1.1-9.1-5.5-39.8-27.6-69.8c-28.7-39-67.4-50-78.7-53C1654.5,2001.6,1623,1993.2,1599.4,2011.8z"
					/>
				<path class="st8" d="M1927,1840.2c-12.4,24.8-26.1,52.3-31.5,77.4c-4.8,22.4-9.4,73.1,15.2,91.6c22.3,16.8,47.9-8.2,78.9,10.3
					c15.8,9.4,22.8,24,31.2,41.7c18.1,37.9,9.4,59.6,17.2,108.9c3.6,23.2,15.1,96.7,43.8,100.4c23.9,3.1,49.9-43.6,54.2-51.4
					c11.5-20.7,16-41.9,24.3-83.3c11.3-55.9,7.1-63.4,19-79.5c15.3-20.7,33.8-23.7,37.9-43.1c3-14.3-4.1-26.7-8.4-34.4
					c-15.8-28.4-37.8-24.3-52.7-51.8c-8.6-15.8-10.9-34.8-7.4-36.8c3.1-1.8,11.7,9.6,15.9,15.1c12.8,17,11.2,23.3,19,31.8
					c15.7,17.2,42.2,13.2,44.2,12.8c12.1-2,34-10.1,36.7-24.9c2.1-11.4-7.9-23.1-19.9-37.3c-9.7-11.4-16.9-16.2-15.7-18.5
					c1.2-2.3,9.8,0.3,32.5,7.8c24.6,8.1,36.9,12.1,38.6,13.1c8.3,4.7,15.3,11.2,38.4,50.9c23.4,40.1,31.9,60.4,37.3,58.5
					c2.6-1,2.2-6.6,4.1-25.7c2.9-28.6,4.5-43.1,11.3-53.7c5.8-8.9,18.1-21.2,30.9-20c7.7,0.7,16.8,13,34.9,37.4
					c17.8,24.1,23.7,32.2,35.8,38.3c6.3,3.2,17.6,8.9,26.5,3.3c9.9-6.2,13.2-24.1,9.1-36.7c-4.9-15.3-18.7-16.2-18.3-25.7
					c0.6-13.5,29-23.5,31.5-24.3c18.3-6.2,23-0.1,32.4-6.7c13.9-9.7,19.7-34.4,16.2-53.2c-3.6-19.4-15.8-26.2-12.1-34.7
					c3.1-7.2,12.9-5,32.3-10.9c14.4-4.3,35.6-10.8,47.2-28.8c6.9-10.7,8.1-22,10-39.6c0.3-2.9,1.7-16.4,0-35
					c-2.3-25.6-7.5-27.3-5-34.8c5.4-16.6,31.4-12.6,80.7-29.1c28.1-9.4,48.4-20.3,50.4-16.3c2.5,5-30.4,20.4-32.6,47.4
					c-1.7,20.5,14.8,40.7,21.7,38.6c5.7-1.8,1.6-17.7,11.8-41.5c3.8-8.8,9.5-22,21.7-30.8c14.6-10.6,23.2-3.7,36.3-14.9
					c10.5-8.9,7.8-15.8,16.6-25.2c19.9-21.2,53.4-7.3,55.6-15.1c2-7.2-23.8-29.1-57.5-33.5c-30-3.9-34.6,10.1-68.7,10.9
					c-19.4,0.5-42.9-7.5-90.1-23.5c-26.7-9-40.7-15.3-64.9-16.4c-16.9-0.8-17.4,1.9-35.2,0.5c-20.1-1.5-45.1-3.4-64.7-21
					c-15.4-13.8-10.7-22.2-23.3-30.5c-20.5-13.4-48.6-1.7-72.5,8.6c-25.4,11-43.4,24.1-74.1,46.5c-35.7,26-47.6,38.8-67.4,36.7
					c-14.8-1.6-17.8-9.8-34.4-9.5c-13.4,0.3-17.7,5.8-45,18.7c-26.5,12.4-40,18.6-51.6,16.6c-17.9-3.1-18.6-16.3-38.1-24
					c-20.8-8.3-40.6-1.5-64.9,6.8c-30,10.2-59.6,20.3-73.9,47.7c-15.2,29.1-1.1,54.1-18.3,67.3c-14.3,11-28.9-2.5-42.1,8.9
					c-15.9,13.7-11.2,47.3-8.7,65c4.9,34.9,17.1,43.2,13,67.8C1940.4,1816.5,1937.1,1820,1927,1840.2z"/>
				<path class="st8" d="M2217.3,2121.7c-7.4-0.5-19.8,31.6-16.8,61.3c0.2,1.8,2.6,24.8,9.5,25.3c6.4,0.4,13-18.9,13.7-20.9
					c1.1-3.3,4.4-14.1,3.1-31.5C2226.4,2151.1,2224.3,2122.2,2217.3,2121.7z"/>
				<path class="st8" d="M2481.4,2037.1c-0.5,1.4,1.5,3.6,7.3,8.3c15.3,12.4,22.9,18.6,35.5,22.8c10.8,3.6,37.8,9.8,43.6-0.9
					c3.7-6.9-1.6-20-10.1-25.9c-9.1-6.3-15.9-0.2-37.5-0.5C2497.7,2040.6,2482.8,2033.7,2481.4,2037.1z"/>
				<path class="st8" d="M2557.7,1976.6c-4.5,1-3.3,10.4-12.2,31.3c-4.1,9.7-6.4,12.4-5.1,15.6c2.8,7.1,19.9,9.9,28.4,0.9
					c7.9-8.3,4.3-22.6,3-27.6C2569.4,1987.4,2562.9,1975.5,2557.7,1976.6z"/>
				<path class="st8" d="M2648.3,2052.6c3.4,5.1,9.1,11.4,23,17.5c4.9,2.1,40.8,17.7,49.8,4.2c3.7-5.5,1.9-14.3-1-19.6
					c-4.4-8.1-12.6-9.8-25.9-13c-39.7-9.6-48.8-14.7-52-9.7C2638.7,2037.8,2646.5,2049.8,2648.3,2052.6z"/>
				<path class="st8" d="M2580.9,1937.2c-4.8,1.8-4.5,25.3,4,43.7c4.4,9.6,12.5,20.8,16.1,19.1c4-1.9,2-18.4-1-29.6
					C2595.7,1953.9,2585.5,1935.5,2580.9,1937.2z"/>
				<path class="st8" d="M2619.2,1825.1c0.1-5.5,12.7-4.6,29.1-16.3c11.4-8.1,28.1-24.7,37-47c1.8-4.5,3.6-10.2,5-10
					c2,0.4,2.3,14.2,0,26.2c-4.2,22.2-17.8,42.5-35,52.5c-6.8,3.9-11.8,4.9-16,4.9C2629.9,1835.3,2619.1,1830.2,2619.2,1825.1z"/>
				<path class="st8" d="M2585,2147.7c-22.1,21.8-34.1,18.6-37.4,30.5c-3.7,13.5,11.5,18.7,14.2,45.4c1.7,16.6-3,26.3,1,28.5
					c6,3.4,16-19.2,39.4-28.5c1.8-0.7,26.3-10.1,46.2,1.8c11.6,6.9,10.1,14.1,29,31.1c12.1,10.9,18.4,16.3,25.9,14.9
					c12.5-2.4,19.5-22,23.9-34.1c3.6-10,11.8-32.8,6-59.1c-2.5-11.4-4.4-8.6-38.8-60.1c-9.5-14.3-13.3-20.4-22-24
					c-17.6-7.4-36.9,3.5-40.1,5.2c-6.9,3.9-13,10.3-25.1,23.1C2592.8,2137.7,2593.7,2139.1,2585,2147.7z"/>
			</g>
		</g>
		<g>
			<linearGradient id="SVGID_13_" gradientUnits="userSpaceOnUse" x1="1065.9347" y1="1335.1852" x2="419.0452" y2="1542.7915">
				<stop  offset="0" style="stop-color:#FCB148"/>
				<stop  offset="5.207239e-02" style="stop-color:#FDBA46"/>
				<stop  offset="0.1424" style="stop-color:#FFC244"/>
				<stop  offset="0.3183" style="stop-color:#FFC444"/>
				<stop  offset="0.4849" style="stop-color:#FDB946"/>
				<stop  offset="0.7754" style="stop-color:#F99C4D"/>
				<stop  offset="0.8658" style="stop-color:#F8924F"/>
				<stop  offset="1" style="stop-color:#F8924F"/>
			</linearGradient>
			<path class="st9" d="M1810.6,1311.7c0,300.1-234.7,536.2-534.6,527c-312.1-9.6-574.6-279.2-574.6-601.7
				c0-322.6,262.5-556.8,574.6-524.3C1576,743.9,1810.6,1011.6,1810.6,1311.7z"/>
			<linearGradient id="SVGID_14_" gradientUnits="userSpaceOnUse" x1="1589.2306" y1="691.2715" x2="1011.7274" y2="1965.3512">
				<stop  offset="0" style="stop-color:#FFDB44"/>
				<stop  offset="1" style="stop-color:#FEEF06"/>
			</linearGradient>
			<path class="st10" d="M1891.7,1285.8c0,300.1-234.7,536.2-534.6,527c-312.1-9.6-574.6-279.2-574.6-601.7
				c0-322.6,262.5-556.8,574.6-524.3C1657,718,1891.7,985.7,1891.7,1285.8z"/>
			<linearGradient id="SVGID_15_" gradientUnits="userSpaceOnUse" x1="1482.9987" y1="2036.5603" x2="1371.5682" y2="1427.8197">
				<stop  offset="0" style="stop-color:#FCB148"/>
				<stop  offset="5.207239e-02" style="stop-color:#FDBA46"/>
				<stop  offset="0.1424" style="stop-color:#FFC244"/>
				<stop  offset="0.3183" style="stop-color:#FFC444"/>
				<stop  offset="0.4849" style="stop-color:#FDB946"/>
				<stop  offset="0.7754" style="stop-color:#F99C4D"/>
				<stop  offset="0.8658" style="stop-color:#F8924F"/>
				<stop  offset="1" style="stop-color:#F8924F"/>
			</linearGradient>
			<path class="st11" d="M1868.1,1284.2c0,286.9-224.5,512.2-511,502.9c-297.6-9.6-547.5-266.9-547.5-574.3s249.9-530.9,547.5-500.4
				C1643.6,741.8,1868.1,997.4,1868.1,1284.2z"/>
			<linearGradient id="SVGID_16_" gradientUnits="userSpaceOnUse" x1="1246.7449" y1="1051.2463" x2="1705.9646" y2="2026.0822">
				<stop  offset="0" style="stop-color:#FCB148"/>
				<stop  offset="5.207239e-02" style="stop-color:#FDBA46"/>
				<stop  offset="0.1424" style="stop-color:#FFC244"/>
				<stop  offset="0.3183" style="stop-color:#FFC444"/>
				<stop  offset="0.4849" style="stop-color:#FDB946"/>
				<stop  offset="0.7754" style="stop-color:#F99C4D"/>
				<stop  offset="0.8658" style="stop-color:#F8924F"/>
				<stop  offset="1" style="stop-color:#F8924F"/>
			</linearGradient>
			<path class="st12" d="M1851.3,1283.1c0,277.4-217.3,495-494.2,485.7c-287.3-9.6-528.2-258.1-528.2-554.6s240.9-512.5,528.2-483.4
				C1634,758.8,1851.3,1005.7,1851.3,1283.1z"/>
			<g>
				<linearGradient id="SVGID_17_" gradientUnits="userSpaceOnUse" x1="1228.4492" y1="841.4744" x2="1459.3606" y2="1706.8896">
					<stop  offset="0" style="stop-color:#FFDB44"/>
					<stop  offset="1" style="stop-color:#FEEF06"/>
				</linearGradient>
				<path class="st13" d="M1354.3,825.1L1354.3,825.1c14.7,1.4,26.7,14.7,26.7,29.6v51.1c29.5,3.3,59,8.4,88.5,15.4
					c21.8,5.1,43.4,11.2,64.9,18.3c12.9,4.2,21.7,17.2,20.3,30.7l-6.3,64c-1.7,17-18.5,27-34.3,19.9c-14.2-6.3-28.7-11.7-43.6-16.2
					c-26-7.9-53.3-13-82.2-15.4l-7.5-0.6v146.3c76.9,21.5,133.3,50.4,169.8,86.8c36.3,36.2,54.4,81.4,54.4,135.5
					c0,58.6-20,105.5-60.2,140.9c-40.4,35.6-97,55.6-170.2,59.9v56.4c0,15-11.9,26.6-26.7,26l-0.5,0c-14.8-0.6-26.8-13.2-26.8-28.3
					v-55.6l-11.9-0.5c-34.3-1.5-67.2-5-98.6-10.5c-23.3-4-46-9.3-68.1-15.7c-13.4-3.9-22.6-16.6-21.4-30.4l7.4-82.3
					c1.6-17.8,19.5-28.2,36.4-21.5c19.7,7.8,39.7,14.3,59.9,19.7c31.5,8.3,63.4,13.6,95.8,16l0.5-162.7
					c-73.8-18.3-129-45.3-165.3-81.1c-36.5-36-54.8-82-54.8-138.1c0-58,19.8-102.7,59.4-134.1c39.3-31.2,95.2-46.8,167.4-46.7v-52.2
					C1327.5,834.8,1339.5,823.7,1354.3,825.1z M1327.5,1020.4c-22.8,1.7-40.6,7.9-53.3,18.8c-12.7,10.9-19.1,25.5-19.1,43.9
					c0,17.4,5.9,32,17.7,43.6c11.8,11.7,30,21,54.8,27.9V1020.4z M1374.8,1315v149.2c24.8,0,43.8-5.9,57.1-17.7
					c13.2-11.9,19.9-28.6,19.9-50.2c0-19.7-6.1-36.1-18.5-49.1C1421,1334.1,1401.5,1323.4,1374.8,1315z"/>
			</g>
			<linearGradient id="SVGID_18_" gradientUnits="userSpaceOnUse" x1="1111.6439" y1="1114.3329" x2="1569.937" y2="2087.2019">
				<stop  offset="0" style="stop-color:#FCB148"/>
				<stop  offset="5.207239e-02" style="stop-color:#FDBA46"/>
				<stop  offset="0.1424" style="stop-color:#FFC244"/>
				<stop  offset="0.3183" style="stop-color:#FFC444"/>
				<stop  offset="0.4849" style="stop-color:#FDB946"/>
				<stop  offset="0.7754" style="stop-color:#F99C4D"/>
				<stop  offset="0.8658" style="stop-color:#F8924F"/>
				<stop  offset="1" style="stop-color:#F8924F"/>
			</linearGradient>
			<path class="st14" d="M1267.7,1351c16.7-164.9,168.3-234.7,148.5-386.4c-12.2-93.5-83.1-172.3-162.1-233.8
				c-239.8,25.1-425.2,223.7-425.2,483.3c0,296.5,240.9,545,528.2,554.6c27.9,0.9,55.1-0.5,81.6-4
				C1324.6,1651.3,1253.3,1492.7,1267.7,1351z"/>
		</g>
		<g>
			<linearGradient id="SVGID_19_" gradientUnits="userSpaceOnUse" x1="2399.6118" y1="2554.0774" x2="1752.7224" y2="2761.6836">
				<stop  offset="0" style="stop-color:#FCB148"/>
				<stop  offset="5.207239e-02" style="stop-color:#FDBA46"/>
				<stop  offset="0.1424" style="stop-color:#FFC244"/>
				<stop  offset="0.3183" style="stop-color:#FFC444"/>
				<stop  offset="0.4849" style="stop-color:#FDB946"/>
				<stop  offset="0.7754" style="stop-color:#F99C4D"/>
				<stop  offset="0.8658" style="stop-color:#F8924F"/>
				<stop  offset="1" style="stop-color:#F8924F"/>
			</linearGradient>
			<path class="st15" d="M3144.3,2530.6c0,300.1-234.7,536.2-534.6,527c-312.1-9.6-574.6-279.2-574.6-601.7
				c0-322.6,262.5-556.8,574.6-524.3C2909.7,1962.8,3144.3,2230.5,3144.3,2530.6z"/>
			<linearGradient id="SVGID_20_" gradientUnits="userSpaceOnUse" x1="2922.9077" y1="1910.1637" x2="2345.4045" y2="3184.2434">
				<stop  offset="0" style="stop-color:#FFDB44"/>
				<stop  offset="1" style="stop-color:#FEEF06"/>
			</linearGradient>
			<path class="st16" d="M3225.4,2504.7c0,300.1-234.7,536.2-534.6,527c-312.1-9.6-574.6-279.2-574.6-601.7
				c0-322.6,262.5-556.8,574.6-524.3C2990.7,1936.9,3225.4,2204.6,3225.4,2504.7z"/>
			<linearGradient id="SVGID_21_" gradientUnits="userSpaceOnUse" x1="2816.6758" y1="3255.4526" x2="2705.2454" y2="2646.7119">
				<stop  offset="0" style="stop-color:#FCB148"/>
				<stop  offset="5.207239e-02" style="stop-color:#FDBA46"/>
				<stop  offset="0.1424" style="stop-color:#FFC244"/>
				<stop  offset="0.3183" style="stop-color:#FFC444"/>
				<stop  offset="0.4849" style="stop-color:#FDB946"/>
				<stop  offset="0.7754" style="stop-color:#F99C4D"/>
				<stop  offset="0.8658" style="stop-color:#F8924F"/>
				<stop  offset="1" style="stop-color:#F8924F"/>
			</linearGradient>
			<path class="st17" d="M3201.8,2503.1c0,286.9-224.5,512.2-511,502.9c-297.6-9.6-547.5-266.9-547.5-574.3s249.9-530.9,547.5-500.4
				C2977.3,1960.7,3201.8,2216.3,3201.8,2503.1z"/>
			<linearGradient id="SVGID_22_" gradientUnits="userSpaceOnUse" x1="2580.4221" y1="2270.1387" x2="3039.6418" y2="3244.9744">
				<stop  offset="0" style="stop-color:#FCB148"/>
				<stop  offset="5.207239e-02" style="stop-color:#FDBA46"/>
				<stop  offset="0.1424" style="stop-color:#FFC244"/>
				<stop  offset="0.3183" style="stop-color:#FFC444"/>
				<stop  offset="0.4849" style="stop-color:#FDB946"/>
				<stop  offset="0.7754" style="stop-color:#F99C4D"/>
				<stop  offset="0.8658" style="stop-color:#F8924F"/>
				<stop  offset="1" style="stop-color:#F8924F"/>
			</linearGradient>
			<path class="st18" d="M3185,2502c0,277.4-217.3,495-494.2,485.7c-287.3-9.6-528.2-258.1-528.2-554.6s240.9-512.5,528.2-483.4
				C2967.7,1977.7,3185,2224.6,3185,2502z"/>
			<linearGradient id="SVGID_23_" gradientUnits="userSpaceOnUse" x1="2445.321" y1="2333.2251" x2="2903.6143" y2="3306.094">
				<stop  offset="0" style="stop-color:#FCB148"/>
				<stop  offset="5.207239e-02" style="stop-color:#FDBA46"/>
				<stop  offset="0.1424" style="stop-color:#FFC244"/>
				<stop  offset="0.3183" style="stop-color:#FFC444"/>
				<stop  offset="0.4849" style="stop-color:#FDB946"/>
				<stop  offset="0.7754" style="stop-color:#F99C4D"/>
				<stop  offset="0.8658" style="stop-color:#F8924F"/>
				<stop  offset="1" style="stop-color:#F8924F"/>
			</linearGradient>
			<path class="st19" d="M2601.4,2569.9c16.7-164.9,168.3-234.7,148.5-386.4c-12.2-93.5-83.1-172.3-162.1-233.8
				c-239.8,25.1-425.2,223.7-425.2,483.3c0,296.5,240.9,545,528.2,554.6c27.9,0.9,55.1-0.5,81.6-4
				C2658.3,2870.2,2587,2711.6,2601.4,2569.9z"/>
			<g>
				<linearGradient id="SVGID_24_" gradientUnits="userSpaceOnUse" x1="2605.2009" y1="2150.7537" x2="2773.9387" y2="2783.1533">
					<stop  offset="0" style="stop-color:#FFDB44"/>
					<stop  offset="1" style="stop-color:#FEEF06"/>
				</linearGradient>
				<path class="st20" d="M2774.9,2261.3c21.3,1.6,42.1,6.5,61.7,14.1c19.9,7.8,41.3,1,51.2-16l20.2-34.8
					c5.9-10.2,6.8-22.9,2.5-34.8c-4.3-11.9-13.5-21.9-25.2-27.4c-34.4-16-71.8-26.7-110.3-31.2c-196.6-22.7-374.4,117.8-374.4,315.7
					s177.9,345,374.4,329.7c35.2-2.7,69.5-10.8,101.5-23.4c11.9-4.7,21.4-14.2,26.1-25.9c4.7-11.7,4.2-24.4-1.5-35.1l-19.2-36.2
					c-9.4-17.7-30.6-25.9-50.8-19.4c-17.8,5.8-36.6,9.1-56.1,9.9c-114.7,4.5-214-83.7-214-196.7
					C2561,2337,2660.3,2252.6,2774.9,2261.3z"/>
				<g>
					
						<linearGradient id="SVGID_25_" gradientUnits="userSpaceOnUse" x1="5273.0093" y1="-864.2449" x2="5380.6069" y2="-460.9879" gradientTransform="matrix(0 1 -1 0 1865 -2948)">
						<stop  offset="0" style="stop-color:#FFDB44"/>
						<stop  offset="1" style="stop-color:#FEEF06"/>
					</linearGradient>
					<path class="st21" d="M2745,2387.8c0,15.8-13.5,28.2-30.4,27.7l-366.1-10.9c-20.9-0.6-38-15.6-38-33.4l0,0
						c0-17.8,17.1-31.5,38-30.5l366.1,17.1C2731.5,2358.6,2745,2372,2745,2387.8L2745,2387.8z"/>
					
						<linearGradient id="SVGID_26_" gradientUnits="userSpaceOnUse" x1="5411.1304" y1="-866.3114" x2="5519.8408" y2="-458.8842" gradientTransform="matrix(0 1 -1 0 1865 -2948)">
						<stop  offset="0" style="stop-color:#FFDB44"/>
						<stop  offset="1" style="stop-color:#FEEF06"/>
					</linearGradient>
					<path class="st22" d="M2745,2518.1c0,15.8-13.5,28.7-30.4,28.9l-366.1,3.3c-20.9,0.2-38-14.1-38-32l0,0c0-17.8,17.1-32.2,38-32
						l366.1,2.9C2731.5,2489.4,2745,2502.3,2745,2518.1L2745,2518.1z"/>
				</g>
			</g>
		</g>
		
			<linearGradient id="SVGID_27_" gradientUnits="userSpaceOnUse" x1="4095.8064" y1="1503.5829" x2="3489.1001" y2="2716.9932" gradientTransform="matrix(0.7814 0.624 -0.624 0.7814 -429.6161 -1458.5894)">
			<stop  offset="0" style="stop-color:#FB6FBB"/>
			<stop  offset="1" style="stop-color:#FF9085"/>
		</linearGradient>
		<path class="st23" d="M1067.7,2237.2c29.7,14.1,59.5,27,89.3,38.7c-40.5-90.1-71.2-182.7-92.1-276.4
			c-72.5,86-138.7,179.6-197.8,280c31.4-15.7,62.7-31.6,93.9-47.7c4.8,177.2,91.8,334.2,205.5,442.2
			c114.4,109.7,255.6,170.6,382.1,195c262,49.3,441.1-43.5,439.8-41.2c-205.4,32-386.2-9.6-522.7-74.2
			c-137.7-65.4-231.1-153.7-290.5-233.7C1058.1,2354.5,1068.8,2235.8,1067.7,2237.2z"/>
		
			<linearGradient id="SVGID_28_" gradientUnits="userSpaceOnUse" x1="-489.3573" y1="-4391.873" x2="-1096.0637" y2="-3178.4626" gradientTransform="matrix(-0.7814 -0.624 0.624 -0.7814 4393.8604 -2179.7749)">
			<stop  offset="0" style="stop-color:#FB6FBB"/>
			<stop  offset="1" style="stop-color:#FF9085"/>
		</linearGradient>
		<path class="st24" d="M2800.6,1592.3c-29.7-14.1-59.5-27-89.3-38.7c40.5,90.1,71.2,182.7,92.1,276.4
			c72.5-86,138.7-179.6,197.8-280c-31.4,15.7-62.7,31.6-93.9,47.7c-4.8-177.2-91.8-334.2-205.5-442.2
			c-114.4-109.7-255.6-170.6-382.1-195c-262-49.3-441.1,43.5-439.8,41.2c205.4-32,386.2,9.6,522.7,74.2
			c137.7,65.4,231.1,153.7,290.5,233.7C2810.2,1475,2799.5,1593.7,2800.6,1592.3z"/>
	</g>
</g>
</svg>
