<?xml version="1.0" encoding="utf-8"?>
<!-- Generator: Adobe Illustrator 25.2.3, SVG Export Plug-In . SVG Version: 6.00 Build 0)  -->
<svg version="1.1" xmlns="http://www.w3.org/2000/svg" xmlns:xlink="http://www.w3.org/1999/xlink" x="0px" y="0px"
	 viewBox="0 0 3710 3710" style="enable-background:new 0 0 3710 3710;" xml:space="preserve">
<style type="text/css">
	.st0{fill:#F4F7FA;}
	.st1{fill:url(#SVGID_1_);}
	.st2{fill:url(#SVGID_2_);}
	.st3{fill:url(#SVGID_3_);}
	.st4{fill:url(#SVGID_4_);}
	.st5{fill:#26264F;}
	.st6{fill:url(#SVGID_5_);}
	.st7{fill:url(#SVGID_6_);}
	.st8{opacity:0.3;fill:url(#SVGID_7_);}
	.st9{fill:#DE8BDF;}
	.st10{fill:url(#SVGID_8_);}
	.st11{fill:url(#SVGID_9_);}
	.st12{fill:#D8DEE8;}
	.st13{fill:url(#SVGID_10_);}
	.st14{fill:url(#SVGID_11_);}
	.st15{fill:url(#SVGID_12_);}
	.st16{opacity:0.63;fill:#F4F7FA;}
	.st17{opacity:0.63;}
	.st18{fill:url(#SVGID_13_);}
	.st19{fill:url(#SVGID_14_);}
	.st20{fill:url(#SVGID_15_);}
	.st21{fill:#FCB048;}
	.st22{fill:url(#SVGID_16_);}
	.st23{fill:url(#SVGID_17_);}
	.st24{fill:url(#SVGID_18_);}
	.st25{fill:url(#SVGID_19_);}
	.st26{fill:url(#SVGID_20_);}
	.st27{fill:url(#SVGID_21_);}
	.st28{fill:url(#SVGID_22_);}
	.st29{fill:url(#SVGID_23_);}
	.st30{fill:url(#SVGID_24_);}
	.st31{fill:url(#SVGID_25_);}
	.st32{fill:url(#SVGID_26_);}
	.st33{fill:url(#SVGID_27_);}
	.st34{fill:url(#SVGID_28_);}
	.st35{fill:url(#SVGID_29_);}
	.st36{fill:url(#SVGID_30_);}
	.st37{fill:url(#SVGID_31_);}
	.st38{fill:url(#SVGID_32_);}
	.st39{fill:url(#SVGID_33_);}
	.st40{fill:url(#SVGID_34_);}
	.st41{fill:url(#SVGID_35_);}
	.st42{fill:url(#SVGID_36_);}
	.st43{fill:url(#SVGID_37_);}
	.st44{fill:url(#SVGID_38_);}
	.st45{fill:url(#SVGID_39_);}
	.st46{fill:url(#SVGID_40_);}
	.st47{fill:url(#SVGID_41_);}
	.st48{fill:url(#SVGID_42_);}
	.st49{fill:url(#SVGID_43_);}
	.st50{fill:url(#SVGID_44_);}
	.st51{fill:url(#SVGID_45_);}
	.st52{fill:url(#SVGID_46_);}
	.st53{fill:url(#SVGID_47_);}
	.st54{fill:url(#SVGID_48_);}
	.st55{fill:url(#SVGID_49_);}
	.st56{fill:url(#SVGID_50_);}
	.st57{fill:url(#SVGID_51_);}
	.st58{fill:url(#SVGID_52_);}
	.st59{fill:url(#SVGID_53_);}
	.st60{fill:url(#SVGID_54_);}
	.st61{fill:url(#SVGID_55_);}
	.st62{fill:url(#SVGID_56_);}
	.st63{opacity:0.3;fill:url(#SVGID_57_);}
	.st64{fill:url(#SVGID_58_);}
	.st65{fill:url(#SVGID_59_);}
	.st66{fill:url(#SVGID_60_);}
	.st67{fill:#FFFFFF;}
	.st68{fill:url(#SVGID_61_);}
	.st69{fill:url(#SVGID_62_);}
	.st70{opacity:0.3;fill:url(#SVGID_63_);}
	.st71{opacity:0.3;fill:url(#SVGID_64_);}
	.st72{fill:url(#SVGID_65_);}
</style>
<g id="Background">
</g>
<g id="Illustration">
	<g>
		<path class="st0" d="M3269.2,1574.7C3195.3,1091.1,2892.4,497,2294,434.9c0,0-454.3-55.3-902.2,28.5
			C1126,513.1,892.9,661,745.4,873.7c-147.5,212.7-196.8,472-137,719.3c38.8,160.6,65.1,326.8,57.9,491.8
			C653.8,2372,661,2640,939.7,2811.3c248.9,152.9,562,287.8,860.8,311.4c203.1,16.1,430.8-9.9,626.5-62.8
			C3424.4,2790.5,3343.1,2058.3,3269.2,1574.7z"/>
		<g>
			<g>
				<linearGradient id="SVGID_1_" gradientUnits="userSpaceOnUse" x1="1374.4904" y1="2358.2366" x2="138.638" y2="3852.0564">
					<stop  offset="3.597000e-03" style="stop-color:#F36F56"/>
					<stop  offset="1" style="stop-color:#FFC444"/>
				</linearGradient>
				<path class="st1" d="M656.2,2723.8c-49.2,1.7-98.8-12-139.2-42c-89.4-66.6-99-187.5-21.4-269.3l1135.3-1204.1
					c37.1-39.1,90.8-60.6,147-59.1c56,1.5,108.9,25.8,145.3,66.3l380.1,423.9l431.9-474.9c64.6-71,176.5-75.4,249.8-10.4
					c72.9,64.6,80.7,173.8,17.5,244.7l-560,628.2c-34.9,39.1-85.7,62-139.3,62.5c-53.9,0.6-105.3-21.4-140.9-60.3L1778,1609.1
					l-963,1044.1C773.6,2697.7,715.2,2721.8,656.2,2723.8z"/>
				<g>
					<linearGradient id="SVGID_2_" gradientUnits="userSpaceOnUse" x1="1753.2343" y1="2671.574" x2="517.3828" y2="4165.3926">
						<stop  offset="3.597000e-03" style="stop-color:#F36F56"/>
						<stop  offset="1" style="stop-color:#FFC444"/>
					</linearGradient>
					<polygon class="st2" points="3123.5,1490.1 2647.8,1072.7 3258.2,867.8 3300.9,867.8 3162,1486.4 					"/>
				</g>
			</g>
			<g>
				<linearGradient id="SVGID_3_" gradientUnits="userSpaceOnUse" x1="986.2728" y1="2711.0217" x2="3194.1184" y2="503.1762">
					<stop  offset="0" style="stop-color:#FFC444"/>
					<stop  offset="0.9964" style="stop-color:#F36F56"/>
				</linearGradient>
				<path class="st3" d="M698.8,2723.8c-49.2,1.7-98.8-12-139.2-42c-89.4-66.6-99-187.5-21.4-269.3l1135.3-1204.1
					c37.1-39.1,90.8-60.6,147-59.1c56,1.5,108.9,25.8,145.3,66.3l380.1,423.9l431.9-474.9c64.6-71,176.5-75.4,249.8-10.4
					c72.9,64.6,80.7,173.8,17.5,244.7l-560,628.2c-34.9,39.1-85.7,62-139.3,62.5c-53.9,0.6-105.3-21.4-140.9-60.3l-384.5-420.2
					l-963,1044.1C816.2,2697.7,757.8,2721.8,698.8,2723.8z"/>
				<g>
					<linearGradient id="SVGID_4_" gradientUnits="userSpaceOnUse" x1="1240.4937" y1="2965.2397" x2="3448.3357" y2="757.3977">
						<stop  offset="0" style="stop-color:#FFC444"/>
						<stop  offset="0.9964" style="stop-color:#F36F56"/>
					</linearGradient>
					<polygon class="st4" points="3162,1486.4 2690.4,1072.7 3300.9,867.8 					"/>
				</g>
			</g>
		</g>
		<g>
			<g>
				<path class="st5" d="M1940,629.3c97.2,821.6,194.4,1634.5,291.6,2438.9c4.4,36.1-20.6,68-55.4,70.9
					c-390.7,37.1-781.3,74.9-1172,113.6c-69.7,3.4-108-35.6-112.4-74.5C791.7,2309.9,691.6,1432.5,591.6,545.9
					c-4.5-39.8,29.2-74,98.9-70.6c392.6,28,785.2,55.6,1177.8,82.9C1903.4,560.5,1935.6,592.5,1940,629.3z"/>
				
					<linearGradient id="SVGID_5_" gradientUnits="userSpaceOnUse" x1="835.2214" y1="1863.8044" x2="3314.2085" y2="1769.0341" gradientTransform="matrix(1 0 0.1172 1.0028 -223.9047 -3.761)">
					<stop  offset="0" style="stop-color:#444B8C"/>
					<stop  offset="0.9964" style="stop-color:#26264F"/>
				</linearGradient>
				<path class="st6" d="M1994.2,627.6c97.8,825.1,195.6,1641.6,293.5,2449.4c4.4,36.2-20.7,68.3-55.8,71.3
					c-405.7,34.4-811.3,69.4-1217,105.1c-37,3.3-71-26-75.6-65.2C838.7,2315.8,738,1434.3,637.3,543.6c-4.5-40,22.3-70.7,59.6-68.2
					c408.4,27.2,816.8,54.2,1225.2,80.7C1957.4,558.5,1989.8,590.6,1994.2,627.6z"/>
				<linearGradient id="SVGID_6_" gradientUnits="userSpaceOnUse" x1="1740.7156" y1="1300.4397" x2="-644.4521" y2="6247.7207">
					<stop  offset="3.597120e-03" style="stop-color:#E38DDD"/>
					<stop  offset="1" style="stop-color:#9571F6"/>
				</linearGradient>
				<path class="st7" d="M1970.7,762.6c90.6,764.5,181.2,1521.5,271.8,2271.1c4.1,33.9-19.3,63.8-52.1,66.5
					c-381.5,31.2-763,63-1144.5,95.4c-34.5,3-66.2-24.5-70.4-60.9C882.4,2329,789.3,1515.3,696.2,693.9C692,656.7,717,628,751.7,630
					c383.9,22.3,767.8,44.5,1151.6,66.4C1936.3,698.2,1966.6,728.1,1970.7,762.6z"/>
				<linearGradient id="SVGID_7_" gradientUnits="userSpaceOnUse" x1="1933.1835" y1="923.1677" x2="-451.9821" y2="5870.4448">
					<stop  offset="3.597120e-03" style="stop-color:#E38DDD"/>
					<stop  offset="1" style="stop-color:#9571F6"/>
				</linearGradient>
				<path class="st8" d="M1903.3,696.4c-379.3-21.6-758.7-43.5-1138-65.6c11.7,67.4,32.2,140.8,66.6,215.6
					c125.8,273,310.7,288,383,525.9c74.5,245.1-93.5,321.8-11.4,543c89.1,240.1,307.5,205.4,423,468.7
					c99.5,227-28.6,330.8,74.3,468.7c112.8,151.2,321.5,99.9,538.1,151.2c-89.4-739.9-178.8-1486.9-268.2-2241.3
					C1966.6,728.1,1936.3,698.2,1903.3,696.4z"/>
			</g>
			<path class="st9" d="M1349.2,595.6c1.5,13.3-7.4,23.5-20,22.7c-12.6-0.8-24-12.2-25.6-25.5c-1.5-13.3,7.4-23.6,20-22.7
				C1336.2,570.8,1347.7,582.3,1349.2,595.6z"/>
			<linearGradient id="SVGID_8_" gradientUnits="userSpaceOnUse" x1="1398.4636" y1="1230.7924" x2="1574.058" y2="1230.7924">
				<stop  offset="0" style="stop-color:#FF9085"/>
				<stop  offset="1" style="stop-color:#FB6FBB"/>
			</linearGradient>
			<ellipse class="st10" cx="1486.3" cy="1230.8" rx="87.8" ry="103.6"/>
			<linearGradient id="SVGID_9_" gradientUnits="userSpaceOnUse" x1="1747.953" y1="1230.7924" x2="1923.5469" y2="1230.7924">
				<stop  offset="0" style="stop-color:#FF9085"/>
				<stop  offset="1" style="stop-color:#FB6FBB"/>
			</linearGradient>
			<ellipse class="st11" cx="1835.7" cy="1230.8" rx="87.8" ry="103.6"/>
			<ellipse class="st12" cx="1660" cy="1230.8" rx="89" ry="103.6"/>
			<linearGradient id="SVGID_10_" gradientUnits="userSpaceOnUse" x1="2097.4414" y1="1230.7924" x2="2273.0359" y2="1230.7924">
				<stop  offset="0" style="stop-color:#FF9085"/>
				<stop  offset="1" style="stop-color:#FB6FBB"/>
			</linearGradient>
			<ellipse class="st13" cx="2185.2" cy="1230.8" rx="87.8" ry="103.6"/>
			<ellipse class="st12" cx="2009.5" cy="1230.8" rx="89" ry="103.6"/>
			<ellipse class="st12" cx="2359" cy="1230.8" rx="89" ry="103.6"/>
			<ellipse class="st12" cx="1310.5" cy="1230.8" rx="89" ry="103.6"/>
			<linearGradient id="SVGID_11_" gradientUnits="userSpaceOnUse" x1="678.5852" y1="932.2875" x2="2629.5891" y2="932.2875">
				<stop  offset="0" style="stop-color:#FF9085"/>
				<stop  offset="1" style="stop-color:#FB6FBB"/>
			</linearGradient>
			<polygon class="st14" points="678.6,619.8 1223.4,1244.8 2629.6,1244.8 1948.2,698.9 			"/>
			<g>
				<polygon class="st0" points="678.6,619.8 1223.4,1244.8 1399.6,1244.8 825.1,628.9 				"/>
				<polygon class="st0" points="982.5,638.7 1573.2,1244.8 1747.3,1244.8 1141,648.6 				"/>
				<polygon class="st0" points="1300.7,658.6 1921.7,1244.8 2096.6,1244.8 1461.6,668.6 				"/>
				<polygon class="st0" points="1787.1,688.9 1623.8,678.7 2271.9,1244.8 2447.7,1244.8 				"/>
			</g>
			<linearGradient id="SVGID_12_" gradientUnits="userSpaceOnUse" x1="2447.8286" y1="1289.5961" x2="2621.6265" y2="1289.5961">
				<stop  offset="0" style="stop-color:#FF9085"/>
				<stop  offset="1" style="stop-color:#FB6FBB"/>
			</linearGradient>
			<path class="st15" d="M2447.8,1244.8c5.8,50.6,42.5,89.6,86.9,89.6c44.4,0,81.1-39,86.9-89.6H2447.8z"/>
			<path class="st16" d="M1779.5,1635.3c-76-175.3-269-260.4-430.9-190.1c-161.9,70.3-231.6,269.3-155.5,444.6
				c76,175.3,269,260.4,430.9,190.1C1785.9,2009.6,1855.5,1810.6,1779.5,1635.3z M1540.7,1885.1l6.5,49.4l-47.4,6.2l-6-46
				c-32.6,2.8-65.2-1.8-85-10l7.1-58.5c21.8,8.5,51.7,14.9,83.1,10.7c27.6-3.6,45.1-16.8,42.5-36.1c-2.4-18.4-19.4-28-56.8-35.4
				c-54.1-10.6-92.6-30.2-98.8-77.1c-5.6-42.6,20-79.9,70.5-96.9l-6-46l47.4-6.2l5.6,42.6c32.6-2.8,55.3,1.1,72.3,6.7l-6.8,56.5
				c-13.3-3.7-37-11.9-71.9-7.3c-31.5,4.1-39.8,19-38.1,32.6c2.1,16,20.4,23.9,63.6,34c60.3,12.8,87,36.3,92.7,79.9
				C1620.7,1827.3,1595.1,1868,1540.7,1885.1z"/>
			<g class="st17">
				<path class="st0" d="M1953.2,2587l-741.3,22.5c-26.6,0.8-49.7-18.4-53.7-44.8l-30-197.6c-4.8-31.4,19.1-59.9,50.9-60.6
					l742.1-17.2c26.5-0.6,49.3,18.6,53.3,44.8l29.2,192.3C2008.5,2557.6,1984.9,2586,1953.2,2587z"/>
				<path class="st0" d="M1978.1,2749.4l-740.8,25.3c-26.7,0.9-49.9-18.3-53.9-44.8l-0.3-1.9c-4.7-31.2,18.9-59.6,50.4-60.6
					l741.1-23.5c26.7-0.8,49.8,18.4,53.8,44.8l0,0C2033.2,2720,2009.7,2748.3,1978.1,2749.4z"/>
			</g>
		</g>
		<g>
			<g>
				<linearGradient id="SVGID_13_" gradientUnits="userSpaceOnUse" x1="2064.5249" y1="3211.2097" x2="2924.8181" y2="3211.2097">
					<stop  offset="0" style="stop-color:#F57E53"/>
					<stop  offset="4.537139e-03" style="stop-color:#F58152"/>
					<stop  offset="4.198170e-02" style="stop-color:#F99A4D"/>
					<stop  offset="8.401687e-02" style="stop-color:#FCAD49"/>
					<stop  offset="0.1333" style="stop-color:#FEBA46"/>
					<stop  offset="0.1962" style="stop-color:#FFC244"/>
					<stop  offset="0.3183" style="stop-color:#FFC444"/>
					<stop  offset="0.455" style="stop-color:#FDB946"/>
					<stop  offset="0.6941" style="stop-color:#F99C4C"/>
					<stop  offset="0.9964" style="stop-color:#F36F56"/>
				</linearGradient>
				<path class="st18" d="M2128.5,3145.5v82.9c0,26.8,167.4,48.5,373.9,48.5c206.5,0,373.9-21.7,373.9-48.5v-82.9H2128.5z"/>
				<linearGradient id="SVGID_14_" gradientUnits="userSpaceOnUse" x1="2498.6252" y1="3114.3008" x2="2543.979" y2="3493.9785">
					<stop  offset="0" style="stop-color:#FFDB44"/>
					<stop  offset="1" style="stop-color:#FEEF06"/>
				</linearGradient>
				<ellipse class="st19" cx="2502.3" cy="3145.5" rx="373.9" ry="48.5"/>
				<linearGradient id="SVGID_15_" gradientUnits="userSpaceOnUse" x1="2496.6528" y1="3097.3687" x2="2510.5818" y2="3213.9741">
					<stop  offset="0" style="stop-color:#FFDB44"/>
					<stop  offset="1" style="stop-color:#FEEF06"/>
				</linearGradient>
				<path class="st20" d="M2502.3,3197.4c-182.9,0-374.1-17.5-374.1-51.2c0-1.8,0.7-5.1,2.5-5.1s1.1,2.5,1.1,4.4
					c0,21.4,152.2,45.2,370.5,45.2c218.4,0,370.5-23.8,370.5-45.2c0-1.8,0.3-3.6,2.2-3.6c1.8,0,1.4,2.5,1.4,4.3
					C2876.5,3179.9,2685.2,3197.4,2502.3,3197.4z"/>
				<g>
					<path class="st21" d="M2467,3148.2c3.7-2.5,7.6-5,11.8-7.5c4.1-2.5,9.5-4.7,16.1-6.7c6.6-2,14.8-3.6,24.6-4.9
						c9.9-1.3,22.2-1.9,36.9-2c14.5-0.1,28,0.4,40.7,1.4c12.7,1,23.8,2.5,33.5,4.4c9.6,2,17.4,4.4,23.5,7.3c6,2.9,9.6,6.2,10.7,10
						l42.1,0.4c3.1,0,5.8,0.3,8.1,0.7c2.4,0.5,3.5,1.1,3.5,1.8l0,3.5l-54.1-0.5c-1.9,4.2-6.7,8.1-14.5,11.7
						c-7.7,3.5-17.6,6.6-29.7,9.2l-19.7-2.7c-1.8-0.3-3.2-0.6-4.4-1c-1.1-0.4-1.7-0.9-1.7-1.4c0-0.7,1.5-1.4,4.6-2.3
						c3.1-0.9,6.5-1.9,10.3-3.2c3.8-1.3,7.6-2.7,11.3-4.5c3.7-1.7,6.1-3.8,7.4-6.2l-127.8-1.3c-3.4,2.5-7.1,4.9-11.3,7.3
						c-4.2,2.4-9.7,4.5-16.6,6.4c-6.9,1.9-15.5,3.5-25.7,4.6c-10.3,1.2-23.2,1.8-38.8,1.9c-11.7,0.1-23.1-0.4-34.3-1.3
						c-11.2-0.9-21.1-2.4-29.7-4.2c-8.7-1.9-15.8-4.2-21.3-7c-5.5-2.8-8.6-6-9.3-9.6l-34.7-0.4c-3.1,0-5.8-0.3-8.2-0.7
						c-2.4-0.5-3.6-1.1-3.6-1.8l0-3.5l47.4,0.5c2.1-3.7,6.4-6.8,13-9.5c6.6-2.7,14.6-5.1,24-7.2l15.9,2.2c4.8,0.7,7.2,1.5,7.2,2.4
						c0,0.5-1,1.1-3,1.8c-2,0.7-4.4,1.6-7.1,2.6c-2.7,1-5.4,2.2-7.9,3.6c-2.6,1.4-4.5,2.9-5.8,4.6L2467,3148.2z M2350.1,3152.9
						c1,2.3,3.1,4.2,6.3,5.9c3.2,1.7,7.2,3,12,4.1c4.8,1.1,10.2,1.8,16.2,2.3c6,0.5,12.3,0.7,18.9,0.7c7.7,0,14.4-0.4,20.1-1
						c5.7-0.6,10.7-1.5,15-2.5c4.3-1.1,8.1-2.3,11.3-3.7c3.2-1.4,6.1-3,8.6-4.6L2350.1,3152.9z M2628.2,3149.8
						c-1-2.3-3.3-4.3-6.9-6.1c-3.6-1.7-8.2-3.2-13.8-4.4c-5.6-1.2-12.1-2.1-19.6-2.6c-7.4-0.6-15.7-0.8-24.7-0.8
						c-8,0-14.9,0.4-20.7,1.1c-5.8,0.7-10.8,1.6-15,2.7c-4.2,1.1-7.9,2.5-10.8,4c-3,1.5-5.7,3.1-8.3,4.9L2628.2,3149.8z"/>
				</g>
				
					<linearGradient id="SVGID_16_" gradientUnits="userSpaceOnUse" x1="-840.4973" y1="926.09" x2="-826.6179" y2="1042.281" gradientTransform="matrix(-1 0 0 -1 1669.249 4127.8389)">
					<stop  offset="3.597120e-03" style="stop-color:#F36F56"/>
					<stop  offset="0.3059" style="stop-color:#F99C4C"/>
					<stop  offset="0.545" style="stop-color:#FDB946"/>
					<stop  offset="0.6817" style="stop-color:#FFC444"/>
					<stop  offset="0.8038" style="stop-color:#FFC244"/>
					<stop  offset="0.8667" style="stop-color:#FEBA46"/>
					<stop  offset="0.916" style="stop-color:#FCAD49"/>
					<stop  offset="0.958" style="stop-color:#F99A4D"/>
					<stop  offset="0.9955" style="stop-color:#F58152"/>
					<stop  offset="1" style="stop-color:#F57E53"/>
				</linearGradient>
				<path class="st22" d="M2502.4,3102.2c-166.7,0-340.3,14.7-368.1,43.1c1.1,1,2.1,2.1,3,3.2c23.4-19.7,166.7-39.6,365-39.6
					c203.4,0,349,20.9,366.7,41.1c0.9-1.1,1.8-2.2,2.8-3.2C2848.9,3117.4,2672.1,3102.2,2502.4,3102.2z"/>
			</g>
			<g>
				<linearGradient id="SVGID_17_" gradientUnits="userSpaceOnUse" x1="1960.5829" y1="3124.0996" x2="2820.8767" y2="3124.0996">
					<stop  offset="0" style="stop-color:#F57E53"/>
					<stop  offset="4.537139e-03" style="stop-color:#F58152"/>
					<stop  offset="4.198170e-02" style="stop-color:#F99A4D"/>
					<stop  offset="8.401687e-02" style="stop-color:#FCAD49"/>
					<stop  offset="0.1333" style="stop-color:#FEBA46"/>
					<stop  offset="0.1962" style="stop-color:#FFC244"/>
					<stop  offset="0.3183" style="stop-color:#FFC444"/>
					<stop  offset="0.455" style="stop-color:#FDB946"/>
					<stop  offset="0.6941" style="stop-color:#F99C4C"/>
					<stop  offset="0.9964" style="stop-color:#F36F56"/>
				</linearGradient>
				<path class="st23" d="M2024.5,3058.4v82.9c0,26.8,167.4,48.5,373.9,48.5c206.5,0,373.9-21.7,373.9-48.5v-82.9H2024.5z"/>
				<linearGradient id="SVGID_18_" gradientUnits="userSpaceOnUse" x1="2394.6833" y1="3027.1912" x2="2440.0374" y2="3406.8696">
					<stop  offset="0" style="stop-color:#FFDB44"/>
					<stop  offset="1" style="stop-color:#FEEF06"/>
				</linearGradient>
				<ellipse class="st24" cx="2398.4" cy="3058.4" rx="373.9" ry="48.5"/>
				<linearGradient id="SVGID_19_" gradientUnits="userSpaceOnUse" x1="2392.7112" y1="3010.2593" x2="2406.6401" y2="3126.864">
					<stop  offset="0" style="stop-color:#FFDB44"/>
					<stop  offset="1" style="stop-color:#FEEF06"/>
				</linearGradient>
				<path class="st25" d="M2398.4,3110.2c-182.9,0-374.1-17.5-374.1-51.2c0-1.9,0.7-5.1,2.5-5.1c1.9,0,1.1,2.5,1.1,4.4
					c0,21.4,152.2,45.2,370.5,45.2s370.5-23.8,370.5-45.2c0-1.9,0.3-3.6,2.2-3.6c1.9,0,1.4,2.5,1.4,4.3
					C2772.5,3092.8,2581.3,3110.2,2398.4,3110.2z"/>
				<g>
					<path class="st21" d="M2363.1,3061.1c3.7-2.5,7.6-5,11.8-7.5c4.1-2.5,9.5-4.7,16.1-6.7c6.6-2,14.8-3.6,24.6-4.9
						c9.9-1.3,22.2-1.9,36.9-2c14.4-0.1,28,0.4,40.7,1.4c12.7,1,23.8,2.5,33.5,4.4c9.6,2,17.4,4.4,23.5,7.3c6,2.9,9.6,6.2,10.7,10
						l42.1,0.4c3.1,0,5.8,0.3,8.1,0.7c2.4,0.5,3.5,1.1,3.5,1.8l0,3.5l-54.1-0.5c-1.9,4.2-6.7,8.1-14.5,11.7
						c-7.7,3.5-17.6,6.6-29.7,9.2l-19.7-2.7c-1.8-0.3-3.2-0.6-4.4-1c-1.1-0.4-1.7-0.9-1.7-1.4c0-0.7,1.5-1.4,4.6-2.3
						c3.1-0.9,6.5-1.9,10.3-3.2c3.8-1.3,7.6-2.7,11.3-4.5c3.7-1.7,6.1-3.8,7.4-6.2l-127.7-1.3c-3.4,2.5-7.1,4.9-11.3,7.3
						c-4.2,2.4-9.7,4.5-16.6,6.4c-6.9,1.9-15.5,3.5-25.7,4.6c-10.3,1.2-23.2,1.8-38.8,1.9c-11.7,0.1-23.1-0.4-34.3-1.3
						c-11.2-0.9-21.1-2.4-29.7-4.2c-8.7-1.9-15.8-4.2-21.3-7c-5.5-2.8-8.6-6-9.3-9.6l-34.7-0.4c-3.1,0-5.8-0.3-8.2-0.7
						c-2.4-0.5-3.6-1.1-3.6-1.8l0-3.5l47.4,0.5c2.1-3.7,6.4-6.8,13-9.5c6.6-2.7,14.6-5.1,24-7.2l15.9,2.2c4.8,0.7,7.2,1.5,7.2,2.4
						c0,0.5-1,1.1-3,1.8c-2,0.7-4.4,1.6-7.1,2.6c-2.7,1-5.4,2.2-7.9,3.6c-2.6,1.4-4.5,2.9-5.8,4.6L2363.1,3061.1z M2246.2,3065.8
						c1,2.3,3.1,4.2,6.3,5.9c3.2,1.7,7.2,3,12,4.1c4.8,1.1,10.2,1.8,16.2,2.3c6,0.5,12.3,0.7,18.9,0.7c7.7,0,14.4-0.4,20.1-1
						c5.7-0.6,10.7-1.5,15-2.5c4.3-1.1,8.1-2.3,11.3-3.7c3.2-1.4,6.1-3,8.6-4.6L2246.2,3065.8z M2524.3,3062.7
						c-1-2.3-3.3-4.3-6.9-6.1c-3.6-1.7-8.2-3.2-13.8-4.4c-5.6-1.2-12.2-2.1-19.6-2.6c-7.4-0.6-15.7-0.8-24.7-0.8
						c-8,0-14.9,0.4-20.7,1.1c-5.8,0.7-10.8,1.6-15,2.7c-4.2,1.1-7.9,2.5-10.8,4c-3,1.5-5.7,3.1-8.3,4.9L2524.3,3062.7z"/>
				</g>
				
					<linearGradient id="SVGID_20_" gradientUnits="userSpaceOnUse" x1="-736.5563" y1="1013.1992" x2="-722.6768" y2="1129.3916" gradientTransform="matrix(-1 0 0 -1 1669.249 4127.8389)">
					<stop  offset="3.597120e-03" style="stop-color:#F36F56"/>
					<stop  offset="0.3059" style="stop-color:#F99C4C"/>
					<stop  offset="0.545" style="stop-color:#FDB946"/>
					<stop  offset="0.6817" style="stop-color:#FFC444"/>
					<stop  offset="0.8038" style="stop-color:#FFC244"/>
					<stop  offset="0.8667" style="stop-color:#FEBA46"/>
					<stop  offset="0.916" style="stop-color:#FCAD49"/>
					<stop  offset="0.958" style="stop-color:#F99A4D"/>
					<stop  offset="0.9955" style="stop-color:#F58152"/>
					<stop  offset="1" style="stop-color:#F57E53"/>
				</linearGradient>
				<path class="st26" d="M2398.5,3015.1c-166.7,0-340.3,14.7-368.1,43.1c1.1,1,2.1,2.1,3,3.2c23.4-19.7,166.7-39.6,365-39.6
					c203.4,0,349,20.9,366.7,41.1c0.9-1.1,1.8-2.2,2.8-3.2C2745,3030.3,2568.1,3015.1,2398.5,3015.1z"/>
			</g>
			<g>
				<linearGradient id="SVGID_21_" gradientUnits="userSpaceOnUse" x1="2050.2708" y1="3037.2446" x2="2910.5647" y2="3037.2446">
					<stop  offset="0" style="stop-color:#F57E53"/>
					<stop  offset="4.537139e-03" style="stop-color:#F58152"/>
					<stop  offset="4.198170e-02" style="stop-color:#F99A4D"/>
					<stop  offset="8.401687e-02" style="stop-color:#FCAD49"/>
					<stop  offset="0.1333" style="stop-color:#FEBA46"/>
					<stop  offset="0.1962" style="stop-color:#FFC244"/>
					<stop  offset="0.3183" style="stop-color:#FFC444"/>
					<stop  offset="0.455" style="stop-color:#FDB946"/>
					<stop  offset="0.6941" style="stop-color:#F99C4C"/>
					<stop  offset="0.9964" style="stop-color:#F36F56"/>
				</linearGradient>
				<path class="st27" d="M2114.2,2971.5v82.9c0,26.8,167.4,48.5,373.9,48.5c206.5,0,373.9-21.7,373.9-48.5v-82.9H2114.2z"/>
				<linearGradient id="SVGID_22_" gradientUnits="userSpaceOnUse" x1="2484.3706" y1="2940.3362" x2="2529.7246" y2="3320.0144">
					<stop  offset="0" style="stop-color:#FFDB44"/>
					<stop  offset="1" style="stop-color:#FEEF06"/>
				</linearGradient>
				<ellipse class="st28" cx="2488.1" cy="2971.5" rx="373.9" ry="48.5"/>
				<linearGradient id="SVGID_23_" gradientUnits="userSpaceOnUse" x1="2482.3987" y1="2923.4038" x2="2496.3276" y2="3040.0088">
					<stop  offset="0" style="stop-color:#FFDB44"/>
					<stop  offset="1" style="stop-color:#FEEF06"/>
				</linearGradient>
				<path class="st29" d="M2488.1,3023.4c-182.9,0-374.1-17.5-374.1-51.2c0-1.9,0.7-5.1,2.5-5.1s1.1,2.5,1.1,4.4
					c0,21.4,152.2,45.2,370.5,45.2s370.5-23.8,370.5-45.2c0-1.9,0.3-3.6,2.2-3.6c1.9,0,1.4,2.5,1.4,4.3
					C2862.2,3005.9,2671,3023.4,2488.1,3023.4z"/>
				<g>
					<path class="st21" d="M2452.8,2974.2c3.7-2.5,7.6-5,11.8-7.5c4.1-2.5,9.5-4.7,16.1-6.7c6.6-2,14.8-3.6,24.6-4.9
						c9.9-1.3,22.2-1.9,36.9-2c14.4-0.1,28,0.4,40.7,1.4c12.7,1,23.8,2.5,33.5,4.4c9.6,2,17.4,4.4,23.5,7.3c6,2.9,9.6,6.2,10.7,10
						l42.1,0.4c3.1,0,5.8,0.3,8.1,0.7c2.4,0.5,3.5,1.1,3.5,1.8l0,3.5l-54.1-0.5c-1.9,4.2-6.7,8.1-14.5,11.7
						c-7.7,3.5-17.6,6.6-29.7,9.2l-19.7-2.7c-1.8-0.3-3.2-0.6-4.4-1c-1.1-0.4-1.7-0.9-1.7-1.4c0-0.7,1.5-1.4,4.6-2.3
						c3.1-0.9,6.5-1.9,10.3-3.2c3.8-1.3,7.6-2.7,11.3-4.5c3.7-1.7,6.1-3.8,7.4-6.2l-127.7-1.3c-3.4,2.5-7.1,4.9-11.3,7.3
						c-4.2,2.4-9.7,4.5-16.6,6.4c-6.9,1.9-15.5,3.5-25.7,4.6c-10.3,1.2-23.2,1.8-38.8,1.9c-11.7,0.1-23.1-0.4-34.3-1.3
						c-11.2-0.9-21.1-2.4-29.7-4.2c-8.7-1.9-15.8-4.2-21.3-7c-5.5-2.8-8.6-6-9.3-9.6l-34.7-0.4c-3.1,0-5.8-0.3-8.2-0.7
						c-2.4-0.5-3.6-1.1-3.6-1.8l0-3.5l47.4,0.5c2.1-3.7,6.4-6.8,13-9.5c6.6-2.7,14.6-5.1,24-7.2l15.9,2.2c4.8,0.7,7.2,1.5,7.2,2.4
						c0,0.5-1,1.1-3,1.8c-2,0.7-4.4,1.6-7.1,2.6c-2.7,1-5.4,2.2-7.9,3.6c-2.6,1.4-4.5,2.9-5.8,4.6L2452.8,2974.2z M2335.9,2978.9
						c1,2.3,3.1,4.2,6.3,5.9c3.2,1.7,7.2,3,12,4.1c4.8,1.1,10.2,1.8,16.2,2.3c6,0.5,12.3,0.7,18.9,0.7c7.7,0,14.4-0.4,20.1-1
						c5.7-0.6,10.7-1.5,15-2.5c4.3-1.1,8.1-2.3,11.3-3.7c3.2-1.4,6.1-3,8.6-4.6L2335.9,2978.9z M2614,2975.8c-1-2.3-3.3-4.3-6.9-6.1
						c-3.6-1.7-8.2-3.2-13.8-4.4c-5.6-1.2-12.2-2.1-19.6-2.6c-7.4-0.6-15.7-0.8-24.7-0.8c-8,0-14.9,0.4-20.7,1.1
						c-5.8,0.7-10.8,1.6-15,2.7c-4.2,1.1-7.9,2.5-10.8,4c-3,1.5-5.7,3.1-8.3,4.9L2614,2975.8z"/>
				</g>
				
					<linearGradient id="SVGID_24_" gradientUnits="userSpaceOnUse" x1="-826.2437" y1="1100.0543" x2="-812.3641" y2="1216.2463" gradientTransform="matrix(-1 0 0 -1 1669.249 4127.8389)">
					<stop  offset="3.597120e-03" style="stop-color:#F36F56"/>
					<stop  offset="0.3059" style="stop-color:#F99C4C"/>
					<stop  offset="0.545" style="stop-color:#FDB946"/>
					<stop  offset="0.6817" style="stop-color:#FFC444"/>
					<stop  offset="0.8038" style="stop-color:#FFC244"/>
					<stop  offset="0.8667" style="stop-color:#FEBA46"/>
					<stop  offset="0.916" style="stop-color:#FCAD49"/>
					<stop  offset="0.958" style="stop-color:#F99A4D"/>
					<stop  offset="0.9955" style="stop-color:#F58152"/>
					<stop  offset="1" style="stop-color:#F57E53"/>
				</linearGradient>
				<path class="st30" d="M2488.1,2928.2c-166.7,0-340.3,14.7-368.1,43.1c1.1,1,2.1,2.1,3,3.2c23.4-19.7,166.7-39.6,365-39.6
					c203.4,0,349,20.9,366.7,41.1c0.9-1.1,1.8-2.2,2.8-3.2C2834.7,2943.5,2657.8,2928.2,2488.1,2928.2z"/>
			</g>
			<g>
				<linearGradient id="SVGID_25_" gradientUnits="userSpaceOnUse" x1="2104.6956" y1="2950.1343" x2="2964.9893" y2="2950.1343">
					<stop  offset="0" style="stop-color:#F57E53"/>
					<stop  offset="4.537139e-03" style="stop-color:#F58152"/>
					<stop  offset="4.198170e-02" style="stop-color:#F99A4D"/>
					<stop  offset="8.401687e-02" style="stop-color:#FCAD49"/>
					<stop  offset="0.1333" style="stop-color:#FEBA46"/>
					<stop  offset="0.1962" style="stop-color:#FFC244"/>
					<stop  offset="0.3183" style="stop-color:#FFC444"/>
					<stop  offset="0.455" style="stop-color:#FDB946"/>
					<stop  offset="0.6941" style="stop-color:#F99C4C"/>
					<stop  offset="0.9964" style="stop-color:#F36F56"/>
				</linearGradient>
				<path class="st31" d="M2168.6,2884.4v82.9c0,26.8,167.4,48.5,373.9,48.5c206.5,0,373.9-21.7,373.9-48.5v-82.9H2168.6z"/>
				<linearGradient id="SVGID_26_" gradientUnits="userSpaceOnUse" x1="2538.7961" y1="2853.2256" x2="2584.1499" y2="3232.9041">
					<stop  offset="0" style="stop-color:#FFDB44"/>
					<stop  offset="1" style="stop-color:#FEEF06"/>
				</linearGradient>
				<path class="st32" d="M2916.4,2884.4c0,26.8-167.4,48.5-373.9,48.5c-206.5,0-373.9-21.7-373.9-48.5s167.4-48.5,373.9-48.5
					C2749,2835.9,2916.4,2857.6,2916.4,2884.4z"/>
				<linearGradient id="SVGID_27_" gradientUnits="userSpaceOnUse" x1="2536.8237" y1="2836.2937" x2="2550.7524" y2="2952.8984">
					<stop  offset="0" style="stop-color:#FFDB44"/>
					<stop  offset="1" style="stop-color:#FEEF06"/>
				</linearGradient>
				<path class="st33" d="M2542.5,2936.3c-182.9,0-374.1-17.5-374.1-51.2c0-1.9,0.7-5.1,2.5-5.1c1.9,0,1.1,2.5,1.1,4.4
					c0,21.4,152.2,45.2,370.5,45.2c218.4,0,370.5-23.8,370.5-45.2c0-1.9,0.3-3.6,2.2-3.6c1.9,0,1.4,2.5,1.4,4.3
					C2916.6,2918.8,2725.4,2936.3,2542.5,2936.3z"/>
				<g>
					<path class="st21" d="M2507.2,2887.1c3.7-2.5,7.6-5,11.8-7.5c4.1-2.5,9.5-4.7,16.1-6.7c6.6-2,14.8-3.6,24.6-4.9
						c9.9-1.3,22.2-1.9,36.9-2c14.4-0.1,28,0.4,40.7,1.4c12.7,1,23.8,2.5,33.5,4.4c9.6,2,17.4,4.4,23.5,7.3c6,2.9,9.6,6.2,10.7,10
						l42.1,0.4c3.1,0,5.8,0.3,8.1,0.7c2.4,0.5,3.5,1.1,3.5,1.8l0,3.5l-54.1-0.5c-1.9,4.2-6.7,8.1-14.5,11.7
						c-7.7,3.5-17.6,6.6-29.7,9.2l-19.7-2.7c-1.8-0.3-3.2-0.6-4.4-1c-1.1-0.4-1.7-0.9-1.7-1.4c0-0.7,1.5-1.4,4.6-2.3
						c3.1-0.9,6.5-1.9,10.3-3.2c3.8-1.3,7.6-2.7,11.3-4.5c3.7-1.7,6.1-3.8,7.4-6.2l-127.8-1.3c-3.4,2.5-7.1,4.9-11.3,7.3
						c-4.2,2.4-9.7,4.5-16.6,6.4c-6.9,1.9-15.5,3.5-25.7,4.6c-10.3,1.2-23.2,1.8-38.8,1.9c-11.7,0.1-23.1-0.4-34.3-1.3
						c-11.2-0.9-21.1-2.4-29.7-4.2c-8.7-1.9-15.8-4.2-21.3-7c-5.5-2.8-8.6-6-9.3-9.6l-34.7-0.4c-3.1,0-5.8-0.3-8.2-0.7
						c-2.4-0.5-3.6-1.1-3.6-1.8l0-3.5l47.4,0.5c2.1-3.7,6.4-6.8,13-9.5c6.6-2.7,14.6-5.1,24-7.2l15.9,2.2c4.8,0.7,7.2,1.5,7.2,2.4
						c0,0.5-1,1.1-3,1.8c-2,0.7-4.4,1.6-7.1,2.6c-2.7,1-5.4,2.2-7.9,3.6c-2.6,1.4-4.5,2.9-5.8,4.6L2507.2,2887.1z M2390.3,2891.8
						c1,2.3,3.1,4.2,6.3,5.9c3.2,1.7,7.2,3,12,4.1c4.8,1.1,10.2,1.8,16.2,2.3c6,0.5,12.3,0.7,18.9,0.7c7.7,0,14.4-0.4,20.1-1
						c5.7-0.6,10.7-1.5,15-2.5c4.3-1.1,8.1-2.3,11.3-3.7c3.2-1.4,6.1-3,8.6-4.6L2390.3,2891.8z M2668.4,2888.7
						c-1-2.3-3.3-4.3-6.9-6.1c-3.6-1.7-8.2-3.2-13.8-4.4c-5.6-1.2-12.1-2.1-19.6-2.6c-7.4-0.6-15.7-0.8-24.7-0.8
						c-8,0-14.9,0.4-20.7,1.1c-5.8,0.7-10.8,1.6-15,2.7c-4.2,1.1-7.9,2.5-10.8,4c-3,1.5-5.7,3.1-8.3,4.9L2668.4,2888.7z"/>
				</g>
				
					<linearGradient id="SVGID_28_" gradientUnits="userSpaceOnUse" x1="-880.6682" y1="1187.1648" x2="-866.7887" y2="1303.3567" gradientTransform="matrix(-1 0 0 -1 1669.249 4127.8389)">
					<stop  offset="3.597120e-03" style="stop-color:#F36F56"/>
					<stop  offset="0.3059" style="stop-color:#F99C4C"/>
					<stop  offset="0.545" style="stop-color:#FDB946"/>
					<stop  offset="0.6817" style="stop-color:#FFC444"/>
					<stop  offset="0.8038" style="stop-color:#FFC244"/>
					<stop  offset="0.8667" style="stop-color:#FEBA46"/>
					<stop  offset="0.916" style="stop-color:#FCAD49"/>
					<stop  offset="0.958" style="stop-color:#F99A4D"/>
					<stop  offset="0.9955" style="stop-color:#F58152"/>
					<stop  offset="1" style="stop-color:#F57E53"/>
				</linearGradient>
				<path class="st34" d="M2542.6,2841.1c-166.7,0-340.3,14.7-368.1,43.1c1.1,1,2.1,2.1,3,3.2c23.4-19.7,166.7-39.6,365-39.6
					c203.4,0,349,20.9,366.7,41.1c0.9-1.1,1.8-2.2,2.8-3.2C2889.1,2856.4,2712.2,2841.1,2542.6,2841.1z"/>
			</g>
			<g>
				<linearGradient id="SVGID_29_" gradientUnits="userSpaceOnUse" x1="2064.5249" y1="2856.1521" x2="2924.8181" y2="2856.1521">
					<stop  offset="0" style="stop-color:#F57E53"/>
					<stop  offset="4.537139e-03" style="stop-color:#F58152"/>
					<stop  offset="4.198170e-02" style="stop-color:#F99A4D"/>
					<stop  offset="8.401687e-02" style="stop-color:#FCAD49"/>
					<stop  offset="0.1333" style="stop-color:#FEBA46"/>
					<stop  offset="0.1962" style="stop-color:#FFC244"/>
					<stop  offset="0.3183" style="stop-color:#FFC444"/>
					<stop  offset="0.455" style="stop-color:#FDB946"/>
					<stop  offset="0.6941" style="stop-color:#F99C4C"/>
					<stop  offset="0.9964" style="stop-color:#F36F56"/>
				</linearGradient>
				<path class="st35" d="M2128.5,2790.4v82.9c0,26.8,167.4,48.5,373.9,48.5c206.5,0,373.9-21.7,373.9-48.5v-82.9H2128.5z"/>
				<linearGradient id="SVGID_30_" gradientUnits="userSpaceOnUse" x1="2498.6252" y1="2759.2434" x2="2543.979" y2="3138.9216">
					<stop  offset="0" style="stop-color:#FFDB44"/>
					<stop  offset="1" style="stop-color:#FEEF06"/>
				</linearGradient>
				<path class="st36" d="M2876.2,2790.4c0,26.8-167.4,48.5-373.9,48.5c-206.5,0-373.9-21.7-373.9-48.5s167.4-48.5,373.9-48.5
					C2708.8,2741.9,2876.2,2763.6,2876.2,2790.4z"/>
				<linearGradient id="SVGID_31_" gradientUnits="userSpaceOnUse" x1="2496.6528" y1="2742.3115" x2="2510.5818" y2="2858.9163">
					<stop  offset="0" style="stop-color:#FFDB44"/>
					<stop  offset="1" style="stop-color:#FEEF06"/>
				</linearGradient>
				<path class="st37" d="M2502.3,2842.3c-182.9,0-374.1-17.5-374.1-51.2c0-1.9,0.7-5.1,2.5-5.1s1.1,2.5,1.1,4.4
					c0,21.4,152.2,45.2,370.5,45.2c218.4,0,370.5-23.8,370.5-45.2c0-1.9,0.3-3.6,2.2-3.6c1.8,0,1.4,2.5,1.4,4.3
					C2876.5,2824.9,2685.2,2842.3,2502.3,2842.3z"/>
				<g>
					<path class="st21" d="M2467,2793.1c3.7-2.5,7.6-5,11.8-7.5c4.1-2.5,9.5-4.7,16.1-6.7c6.6-2,14.8-3.6,24.6-4.9
						c9.9-1.3,22.2-1.9,36.9-2c14.5-0.1,28,0.4,40.7,1.4c12.7,1,23.8,2.5,33.5,4.4c9.6,2,17.4,4.4,23.5,7.3c6,2.9,9.6,6.2,10.7,10
						l42.1,0.4c3.1,0,5.8,0.3,8.1,0.7c2.4,0.5,3.5,1.1,3.5,1.8l0,3.5l-54.1-0.5c-1.9,4.2-6.7,8.1-14.5,11.7
						c-7.7,3.5-17.6,6.6-29.7,9.2l-19.7-2.7c-1.8-0.3-3.2-0.6-4.4-1c-1.1-0.4-1.7-0.9-1.7-1.4c0-0.7,1.5-1.4,4.6-2.3
						c3.1-0.9,6.5-1.9,10.3-3.2c3.8-1.3,7.6-2.7,11.3-4.5c3.7-1.7,6.1-3.8,7.4-6.2l-127.8-1.3c-3.4,2.5-7.1,4.9-11.3,7.3
						c-4.2,2.4-9.7,4.5-16.6,6.4c-6.9,1.9-15.5,3.5-25.7,4.6c-10.3,1.2-23.2,1.8-38.8,1.9c-11.7,0.1-23.1-0.4-34.3-1.3
						c-11.2-0.9-21.1-2.4-29.7-4.2c-8.7-1.9-15.8-4.2-21.3-7c-5.5-2.8-8.6-6-9.3-9.6l-34.7-0.4c-3.1,0-5.8-0.3-8.2-0.7
						c-2.4-0.5-3.6-1.1-3.6-1.8l0-3.5l47.4,0.5c2.1-3.7,6.4-6.8,13-9.5c6.6-2.7,14.6-5.1,24-7.2l15.9,2.2c4.8,0.7,7.2,1.5,7.2,2.4
						c0,0.5-1,1.1-3,1.8c-2,0.7-4.4,1.6-7.1,2.6c-2.7,1-5.4,2.2-7.9,3.6c-2.6,1.4-4.5,2.9-5.8,4.6L2467,2793.1z M2350.1,2797.9
						c1,2.3,3.1,4.2,6.3,5.9c3.2,1.7,7.2,3,12,4.1c4.8,1.1,10.2,1.8,16.2,2.3c6,0.5,12.3,0.7,18.9,0.7c7.7,0,14.4-0.4,20.1-1
						c5.7-0.6,10.7-1.5,15-2.5c4.3-1.1,8.1-2.3,11.3-3.7c3.2-1.4,6.1-3,8.6-4.6L2350.1,2797.9z M2628.2,2794.8
						c-1-2.3-3.3-4.3-6.9-6.1c-3.6-1.7-8.2-3.2-13.8-4.4c-5.6-1.2-12.1-2.1-19.6-2.6c-7.4-0.6-15.7-0.8-24.7-0.8
						c-8,0-14.9,0.4-20.7,1.1c-5.8,0.7-10.8,1.6-15,2.7c-4.2,1.1-7.9,2.5-10.8,4c-3,1.5-5.7,3.1-8.3,4.9L2628.2,2794.8z"/>
				</g>
				
					<linearGradient id="SVGID_32_" gradientUnits="userSpaceOnUse" x1="-840.4974" y1="1281.147" x2="-826.6179" y2="1397.3389" gradientTransform="matrix(-1 0 0 -1 1669.249 4127.8389)">
					<stop  offset="3.597120e-03" style="stop-color:#F36F56"/>
					<stop  offset="0.3059" style="stop-color:#F99C4C"/>
					<stop  offset="0.545" style="stop-color:#FDB946"/>
					<stop  offset="0.6817" style="stop-color:#FFC444"/>
					<stop  offset="0.8038" style="stop-color:#FFC244"/>
					<stop  offset="0.8667" style="stop-color:#FEBA46"/>
					<stop  offset="0.916" style="stop-color:#FCAD49"/>
					<stop  offset="0.958" style="stop-color:#F99A4D"/>
					<stop  offset="0.9955" style="stop-color:#F58152"/>
					<stop  offset="1" style="stop-color:#F57E53"/>
				</linearGradient>
				<path class="st38" d="M2502.4,2747.2c-166.7,0-340.3,14.7-368.1,43.1c1.1,1,2.1,2.1,3,3.2c23.4-19.7,166.7-39.6,365-39.6
					c203.4,0,349,20.9,366.7,41.1c0.9-1.1,1.8-2.2,2.8-3.2C2848.9,2762.4,2672.1,2747.2,2502.4,2747.2z"/>
			</g>
			<g>
				<linearGradient id="SVGID_33_" gradientUnits="userSpaceOnUse" x1="1960.5829" y1="2769.0425" x2="2820.8767" y2="2769.0425">
					<stop  offset="0" style="stop-color:#F57E53"/>
					<stop  offset="4.537139e-03" style="stop-color:#F58152"/>
					<stop  offset="4.198170e-02" style="stop-color:#F99A4D"/>
					<stop  offset="8.401687e-02" style="stop-color:#FCAD49"/>
					<stop  offset="0.1333" style="stop-color:#FEBA46"/>
					<stop  offset="0.1962" style="stop-color:#FFC244"/>
					<stop  offset="0.3183" style="stop-color:#FFC444"/>
					<stop  offset="0.455" style="stop-color:#FDB946"/>
					<stop  offset="0.6941" style="stop-color:#F99C4C"/>
					<stop  offset="0.9964" style="stop-color:#F36F56"/>
				</linearGradient>
				<path class="st39" d="M2024.5,2703.3v82.9c0,26.8,167.4,48.5,373.9,48.5c206.5,0,373.9-21.7,373.9-48.5v-82.9H2024.5z"/>
				<linearGradient id="SVGID_34_" gradientUnits="userSpaceOnUse" x1="2394.6833" y1="2672.1335" x2="2440.0371" y2="3051.8108">
					<stop  offset="0" style="stop-color:#FFDB44"/>
					<stop  offset="1" style="stop-color:#FEEF06"/>
				</linearGradient>
				<ellipse class="st40" cx="2398.4" cy="2703.3" rx="373.9" ry="48.5"/>
				<linearGradient id="SVGID_35_" gradientUnits="userSpaceOnUse" x1="2392.7112" y1="2655.2012" x2="2406.6401" y2="2771.8064">
					<stop  offset="0" style="stop-color:#FFDB44"/>
					<stop  offset="1" style="stop-color:#FEEF06"/>
				</linearGradient>
				<path class="st41" d="M2398.4,2755.2c-182.9,0-374.1-17.5-374.1-51.2c0-1.9,0.7-5.1,2.5-5.1c1.9,0,1.1,2.5,1.1,4.4
					c0,21.4,152.2,45.2,370.5,45.2s370.5-23.8,370.5-45.2c0-1.9,0.3-3.6,2.2-3.6c1.9,0,1.4,2.5,1.4,4.3
					C2772.5,2737.7,2581.3,2755.2,2398.4,2755.2z"/>
				<g>
					<path class="st21" d="M2363.1,2706c3.7-2.5,7.6-5,11.8-7.5c4.1-2.5,9.5-4.7,16.1-6.7c6.6-2,14.8-3.6,24.6-4.9
						c9.9-1.3,22.2-1.9,36.9-2c14.4-0.1,28,0.4,40.7,1.4c12.7,1,23.8,2.5,33.5,4.4c9.6,2,17.4,4.4,23.5,7.3c6,2.9,9.6,6.2,10.7,10
						l42.1,0.4c3.1,0,5.8,0.3,8.1,0.7c2.4,0.5,3.5,1.1,3.5,1.8l0,3.5l-54.1-0.5c-1.9,4.2-6.7,8.1-14.5,11.7
						c-7.7,3.5-17.6,6.6-29.7,9.2l-19.7-2.7c-1.8-0.3-3.2-0.6-4.4-1c-1.1-0.4-1.7-0.9-1.7-1.4c0-0.7,1.5-1.4,4.6-2.3
						c3.1-0.9,6.5-1.9,10.3-3.2c3.8-1.3,7.6-2.7,11.3-4.5c3.7-1.7,6.1-3.8,7.4-6.2l-127.7-1.3c-3.4,2.5-7.1,4.9-11.3,7.3
						c-4.2,2.4-9.7,4.5-16.6,6.4c-6.9,1.9-15.5,3.5-25.7,4.6c-10.3,1.2-23.2,1.8-38.8,1.9c-11.7,0.1-23.1-0.4-34.3-1.3
						c-11.2-0.9-21.1-2.4-29.7-4.2c-8.7-1.9-15.8-4.2-21.3-7c-5.5-2.8-8.6-6-9.3-9.6l-34.7-0.4c-3.1,0-5.8-0.3-8.2-0.7
						c-2.4-0.5-3.6-1.1-3.6-1.8l0-3.5l47.4,0.5c2.1-3.7,6.4-6.8,13-9.5c6.6-2.7,14.6-5.1,24-7.2l15.9,2.2c4.8,0.7,7.2,1.5,7.2,2.4
						c0,0.5-1,1.1-3,1.8c-2,0.7-4.4,1.6-7.1,2.6c-2.7,1-5.4,2.2-7.9,3.6c-2.6,1.4-4.5,2.9-5.8,4.6L2363.1,2706z M2246.2,2710.7
						c1,2.3,3.1,4.2,6.3,5.9c3.2,1.7,7.2,3,12,4.1c4.8,1.1,10.2,1.8,16.2,2.3c6,0.5,12.3,0.7,18.9,0.7c7.7,0,14.4-0.4,20.1-1
						c5.7-0.6,10.7-1.5,15-2.5c4.3-1.1,8.1-2.3,11.3-3.7s6.1-3,8.6-4.6L2246.2,2710.7z M2524.3,2707.6c-1-2.3-3.3-4.3-6.9-6.1
						c-3.6-1.7-8.2-3.2-13.8-4.4c-5.6-1.2-12.2-2.1-19.6-2.6c-7.4-0.6-15.7-0.8-24.7-0.8c-8,0-14.9,0.4-20.7,1.1
						c-5.8,0.7-10.8,1.6-15,2.7c-4.2,1.1-7.9,2.5-10.8,4c-3,1.5-5.7,3.1-8.3,4.9L2524.3,2707.6z"/>
				</g>
				
					<linearGradient id="SVGID_36_" gradientUnits="userSpaceOnUse" x1="-736.5562" y1="1368.2577" x2="-722.6768" y2="1484.4486" gradientTransform="matrix(-1 0 0 -1 1669.249 4127.8389)">
					<stop  offset="3.597120e-03" style="stop-color:#F36F56"/>
					<stop  offset="0.3059" style="stop-color:#F99C4C"/>
					<stop  offset="0.545" style="stop-color:#FDB946"/>
					<stop  offset="0.6817" style="stop-color:#FFC444"/>
					<stop  offset="0.8038" style="stop-color:#FFC244"/>
					<stop  offset="0.8667" style="stop-color:#FEBA46"/>
					<stop  offset="0.916" style="stop-color:#FCAD49"/>
					<stop  offset="0.958" style="stop-color:#F99A4D"/>
					<stop  offset="0.9955" style="stop-color:#F58152"/>
					<stop  offset="1" style="stop-color:#F57E53"/>
				</linearGradient>
				<path class="st42" d="M2398.5,2660c-166.7,0-340.3,14.7-368.1,43.1c1.1,1,2.1,2.1,3,3.2c23.4-19.7,166.7-39.6,365-39.6
					c203.4,0,349,20.9,366.7,41.1c0.9-1.1,1.8-2.2,2.8-3.2C2745,2675.3,2568.1,2660,2398.5,2660z"/>
			</g>
			<g>
				<linearGradient id="SVGID_37_" gradientUnits="userSpaceOnUse" x1="2050.2708" y1="2682.187" x2="2910.5647" y2="2682.187">
					<stop  offset="0" style="stop-color:#F57E53"/>
					<stop  offset="4.537139e-03" style="stop-color:#F58152"/>
					<stop  offset="4.198170e-02" style="stop-color:#F99A4D"/>
					<stop  offset="8.401687e-02" style="stop-color:#FCAD49"/>
					<stop  offset="0.1333" style="stop-color:#FEBA46"/>
					<stop  offset="0.1962" style="stop-color:#FFC244"/>
					<stop  offset="0.3183" style="stop-color:#FFC444"/>
					<stop  offset="0.455" style="stop-color:#FDB946"/>
					<stop  offset="0.6941" style="stop-color:#F99C4C"/>
					<stop  offset="0.9964" style="stop-color:#F36F56"/>
				</linearGradient>
				<path class="st43" d="M2114.2,2616.5v82.9c0,26.8,167.4,48.5,373.9,48.5c206.5,0,373.9-21.7,373.9-48.5v-82.9H2114.2z"/>
				<linearGradient id="SVGID_38_" gradientUnits="userSpaceOnUse" x1="2484.3706" y1="2585.2781" x2="2529.7244" y2="2964.9561">
					<stop  offset="0" style="stop-color:#FFDB44"/>
					<stop  offset="1" style="stop-color:#FEEF06"/>
				</linearGradient>
				<path class="st44" d="M2862,2616.5c0,26.8-167.4,48.5-373.9,48.5s-373.9-21.7-373.9-48.5c0-26.8,167.4-48.5,373.9-48.5
					S2862,2589.7,2862,2616.5z"/>
				<linearGradient id="SVGID_39_" gradientUnits="userSpaceOnUse" x1="2482.3987" y1="2568.3459" x2="2496.3276" y2="2684.9512">
					<stop  offset="0" style="stop-color:#FFDB44"/>
					<stop  offset="1" style="stop-color:#FEEF06"/>
				</linearGradient>
				<path class="st45" d="M2488.1,2668.3c-182.9,0-374.1-17.5-374.1-51.2c0-1.9,0.7-5.1,2.5-5.1s1.1,2.5,1.1,4.4
					c0,21.4,152.2,45.2,370.5,45.2s370.5-23.8,370.5-45.2c0-1.9,0.3-3.6,2.2-3.6c1.9,0,1.4,2.5,1.4,4.3
					C2862.2,2650.9,2671,2668.3,2488.1,2668.3z"/>
				<g>
					<path class="st21" d="M2452.8,2619.2c3.7-2.5,7.6-5,11.8-7.5c4.1-2.5,9.5-4.7,16.1-6.7c6.6-2,14.8-3.6,24.6-4.9
						c9.9-1.3,22.2-1.9,36.9-2c14.4-0.1,28,0.4,40.7,1.4c12.7,1,23.8,2.5,33.5,4.4c9.6,2,17.4,4.4,23.5,7.3c6,2.9,9.6,6.2,10.7,10
						l42.1,0.4c3.1,0,5.8,0.3,8.1,0.7c2.4,0.5,3.5,1.1,3.5,1.8l0,3.5l-54.1-0.5c-1.9,4.2-6.7,8.1-14.5,11.7
						c-7.7,3.5-17.6,6.6-29.7,9.2l-19.7-2.7c-1.8-0.3-3.2-0.6-4.4-1c-1.1-0.4-1.7-0.9-1.7-1.4c0-0.7,1.5-1.4,4.6-2.3
						c3.1-0.9,6.5-1.9,10.3-3.2c3.8-1.3,7.6-2.7,11.3-4.5c3.7-1.7,6.1-3.8,7.4-6.2l-127.7-1.3c-3.4,2.5-7.1,4.9-11.3,7.3
						c-4.2,2.4-9.7,4.5-16.6,6.4c-6.9,1.9-15.5,3.5-25.7,4.6c-10.3,1.2-23.2,1.8-38.8,1.9c-11.7,0.1-23.1-0.4-34.3-1.3
						c-11.2-0.9-21.1-2.4-29.7-4.2c-8.7-1.9-15.8-4.2-21.3-7c-5.5-2.8-8.6-6-9.3-9.6l-34.7-0.4c-3.1,0-5.8-0.3-8.2-0.7
						c-2.4-0.5-3.6-1.1-3.6-1.8l0-3.5l47.4,0.5c2.1-3.7,6.4-6.8,13-9.5c6.6-2.7,14.6-5.1,24-7.2l15.9,2.2c4.8,0.7,7.2,1.5,7.2,2.4
						c0,0.5-1,1.1-3,1.8c-2,0.7-4.4,1.6-7.1,2.6c-2.7,1-5.4,2.2-7.9,3.6c-2.6,1.4-4.5,2.9-5.8,4.6L2452.8,2619.2z M2335.9,2623.9
						c1,2.3,3.1,4.2,6.3,5.9c3.2,1.7,7.2,3,12,4.1c4.8,1.1,10.2,1.8,16.2,2.3c6,0.5,12.3,0.7,18.9,0.7c7.7,0,14.4-0.4,20.1-1
						c5.7-0.6,10.7-1.5,15-2.5c4.3-1.1,8.1-2.3,11.3-3.7c3.2-1.4,6.1-3,8.6-4.6L2335.9,2623.9z M2614,2620.8c-1-2.3-3.3-4.3-6.9-6.1
						c-3.6-1.7-8.2-3.2-13.8-4.4c-5.6-1.2-12.2-2.1-19.6-2.6c-7.4-0.6-15.7-0.8-24.7-0.8c-8,0-14.9,0.4-20.7,1.1
						c-5.8,0.7-10.8,1.6-15,2.7c-4.2,1.1-7.9,2.5-10.8,4c-3,1.5-5.7,3.1-8.3,4.9L2614,2620.8z"/>
				</g>
				
					<linearGradient id="SVGID_40_" gradientUnits="userSpaceOnUse" x1="-826.2435" y1="1455.1128" x2="-812.3641" y2="1571.3037" gradientTransform="matrix(-1 0 0 -1 1669.249 4127.8389)">
					<stop  offset="3.597120e-03" style="stop-color:#F36F56"/>
					<stop  offset="0.3059" style="stop-color:#F99C4C"/>
					<stop  offset="0.545" style="stop-color:#FDB946"/>
					<stop  offset="0.6817" style="stop-color:#FFC444"/>
					<stop  offset="0.8038" style="stop-color:#FFC244"/>
					<stop  offset="0.8667" style="stop-color:#FEBA46"/>
					<stop  offset="0.916" style="stop-color:#FCAD49"/>
					<stop  offset="0.958" style="stop-color:#F99A4D"/>
					<stop  offset="0.9955" style="stop-color:#F58152"/>
					<stop  offset="1" style="stop-color:#F57E53"/>
				</linearGradient>
				<path class="st46" d="M2488.1,2573.2c-166.7,0-340.3,14.7-368.1,43.1c1.1,1,2.1,2.1,3,3.2c23.4-19.7,166.7-39.6,365-39.6
					c203.4,0,349,20.9,366.7,41.1c0.9-1.1,1.8-2.2,2.8-3.2C2834.7,2588.4,2657.8,2573.2,2488.1,2573.2z"/>
			</g>
			<g>
				<linearGradient id="SVGID_41_" gradientUnits="userSpaceOnUse" x1="2003.6207" y1="2595.0769" x2="2863.9138" y2="2595.0769">
					<stop  offset="0" style="stop-color:#F57E53"/>
					<stop  offset="4.537139e-03" style="stop-color:#F58152"/>
					<stop  offset="4.198170e-02" style="stop-color:#F99A4D"/>
					<stop  offset="8.401687e-02" style="stop-color:#FCAD49"/>
					<stop  offset="0.1333" style="stop-color:#FEBA46"/>
					<stop  offset="0.1962" style="stop-color:#FFC244"/>
					<stop  offset="0.3183" style="stop-color:#FFC444"/>
					<stop  offset="0.455" style="stop-color:#FDB946"/>
					<stop  offset="0.6941" style="stop-color:#F99C4C"/>
					<stop  offset="0.9964" style="stop-color:#F36F56"/>
				</linearGradient>
				<path class="st47" d="M2067.5,2529.3v82.9c0,26.8,167.4,48.5,373.9,48.5c206.5,0,373.9-21.7,373.9-48.5v-82.9H2067.5z"/>
				<linearGradient id="SVGID_42_" gradientUnits="userSpaceOnUse" x1="2437.7209" y1="2498.1682" x2="2483.0747" y2="2877.8467">
					<stop  offset="0" style="stop-color:#FFDB44"/>
					<stop  offset="1" style="stop-color:#FEEF06"/>
				</linearGradient>
				<path class="st48" d="M2815.3,2529.3c0,26.8-167.4,48.5-373.9,48.5c-206.5,0-373.9-21.7-373.9-48.5
					c0-26.8,167.4-48.5,373.9-48.5C2647.9,2480.8,2815.3,2502.6,2815.3,2529.3z"/>
				<linearGradient id="SVGID_43_" gradientUnits="userSpaceOnUse" x1="2435.7488" y1="2481.2354" x2="2449.6777" y2="2597.8413">
					<stop  offset="0" style="stop-color:#FFDB44"/>
					<stop  offset="1" style="stop-color:#FEEF06"/>
				</linearGradient>
				<path class="st49" d="M2441.4,2581.2c-182.9,0-374.1-17.5-374.1-51.2c0-1.8,0.7-5.1,2.5-5.1s1.1,2.5,1.1,4.4
					c0,21.4,152.2,45.2,370.5,45.2c218.4,0,370.5-23.8,370.5-45.2c0-1.9,0.3-3.6,2.2-3.6c1.9,0,1.4,2.5,1.4,4.3
					C2815.6,2563.8,2624.3,2581.2,2441.4,2581.2z"/>
				<g>
					<path class="st21" d="M2406.1,2532.1c3.7-2.5,7.6-5,11.8-7.5c4.1-2.5,9.5-4.7,16.1-6.7c6.6-2,14.8-3.6,24.6-4.9
						c9.9-1.3,22.2-1.9,36.9-2c14.5-0.1,28,0.4,40.7,1.4c12.7,1,23.8,2.5,33.5,4.4c9.6,2,17.4,4.4,23.5,7.3c6,2.9,9.6,6.2,10.7,10
						l42.1,0.4c3.1,0,5.8,0.3,8.1,0.7c2.4,0.5,3.5,1.1,3.5,1.8l0,3.5l-54.1-0.5c-1.9,4.2-6.7,8.1-14.5,11.7
						c-7.7,3.5-17.6,6.6-29.7,9.2l-19.7-2.7c-1.8-0.3-3.2-0.6-4.4-1c-1.1-0.4-1.7-0.9-1.7-1.4c0-0.7,1.5-1.4,4.6-2.3
						c3.1-0.9,6.5-1.9,10.3-3.2c3.8-1.3,7.6-2.7,11.3-4.5c3.7-1.7,6.1-3.8,7.4-6.2l-127.7-1.3c-3.4,2.5-7.1,4.9-11.3,7.3
						c-4.2,2.4-9.7,4.5-16.6,6.4c-6.9,1.9-15.5,3.5-25.7,4.6c-10.3,1.2-23.2,1.8-38.8,1.9c-11.7,0.1-23.1-0.4-34.3-1.3
						c-11.2-0.9-21.1-2.4-29.7-4.2c-8.7-1.9-15.8-4.2-21.3-7c-5.5-2.8-8.6-6-9.3-9.6l-34.7-0.4c-3.1,0-5.8-0.3-8.2-0.7
						c-2.4-0.5-3.6-1.1-3.6-1.8l0-3.5l47.4,0.5c2.1-3.7,6.4-6.8,13-9.5c6.6-2.7,14.6-5.1,24-7.2l15.9,2.2c4.8,0.7,7.2,1.5,7.2,2.4
						c0,0.5-1,1.1-3,1.8c-2,0.7-4.4,1.6-7.1,2.6c-2.7,1-5.4,2.2-7.9,3.6c-2.6,1.4-4.5,2.9-5.8,4.6L2406.1,2532.1z M2289.2,2536.8
						c1,2.3,3.1,4.2,6.3,5.9c3.2,1.7,7.2,3,12,4.1c4.8,1.1,10.2,1.8,16.2,2.3c6,0.5,12.3,0.7,18.9,0.7c7.7,0,14.4-0.4,20.1-1
						c5.7-0.6,10.7-1.5,15-2.5c4.3-1.1,8.1-2.3,11.3-3.7c3.2-1.4,6.1-3,8.6-4.6L2289.2,2536.8z M2567.3,2533.7
						c-1-2.3-3.3-4.3-6.9-6.1c-3.6-1.7-8.2-3.2-13.8-4.4c-5.6-1.2-12.2-2.1-19.6-2.6c-7.4-0.6-15.7-0.8-24.7-0.8
						c-8,0-14.9,0.4-20.7,1.1c-5.8,0.7-10.8,1.6-15,2.7c-4.2,1.1-7.9,2.5-10.8,4c-3,1.5-5.7,3.1-8.3,4.9L2567.3,2533.7z"/>
				</g>
				
					<linearGradient id="SVGID_44_" gradientUnits="userSpaceOnUse" x1="-779.5938" y1="1542.2225" x2="-765.7143" y2="1658.4143" gradientTransform="matrix(-1 0 0 -1 1669.249 4127.8389)">
					<stop  offset="3.597120e-03" style="stop-color:#F36F56"/>
					<stop  offset="0.3059" style="stop-color:#F99C4C"/>
					<stop  offset="0.545" style="stop-color:#FDB946"/>
					<stop  offset="0.6817" style="stop-color:#FFC444"/>
					<stop  offset="0.8038" style="stop-color:#FFC244"/>
					<stop  offset="0.8667" style="stop-color:#FEBA46"/>
					<stop  offset="0.916" style="stop-color:#FCAD49"/>
					<stop  offset="0.958" style="stop-color:#F99A4D"/>
					<stop  offset="0.9955" style="stop-color:#F58152"/>
					<stop  offset="1" style="stop-color:#F57E53"/>
				</linearGradient>
				<path class="st50" d="M2441.5,2486.1c-166.7,0-340.3,14.7-368.1,43.1c1.1,1,2.1,2.1,3,3.2c23.4-19.7,166.7-39.6,365-39.6
					c203.4,0,349,20.9,366.7,41.1c0.9-1.1,1.8-2.2,2.8-3.2C2788,2501.3,2611.2,2486.1,2441.5,2486.1z"/>
			</g>
			<g>
				
					<linearGradient id="SVGID_45_" gradientUnits="userSpaceOnUse" x1="2642.5554" y1="1122.7168" x2="3502.8535" y2="1122.7168" gradientTransform="matrix(0.5796 0.8149 -0.8149 0.5796 2214.3765 -230.3409)">
					<stop  offset="0" style="stop-color:#F57E53"/>
					<stop  offset="4.537139e-03" style="stop-color:#F58152"/>
					<stop  offset="4.198170e-02" style="stop-color:#F99A4D"/>
					<stop  offset="8.401687e-02" style="stop-color:#FCAD49"/>
					<stop  offset="0.1333" style="stop-color:#FEBA46"/>
					<stop  offset="0.1962" style="stop-color:#FFC244"/>
					<stop  offset="0.3183" style="stop-color:#FFC444"/>
					<stop  offset="0.455" style="stop-color:#FDB946"/>
					<stop  offset="0.6941" style="stop-color:#F99C4C"/>
					<stop  offset="0.9964" style="stop-color:#F36F56"/>
				</linearGradient>
				<path class="st51" d="M2921.7,2587.8l-67.6,48.1c-21.8,15.5,57.5,164.5,177.2,332.8c119.7,168.3,234.4,292.1,256.3,276.6
					l67.6-48.1L2921.7,2587.8z"/>
				
					<linearGradient id="SVGID_46_" gradientUnits="userSpaceOnUse" x1="3076.6572" y1="1025.8179" x2="3122.0054" y2="1405.4485" gradientTransform="matrix(0.5796 0.8149 -0.8149 0.5796 2214.3765 -230.3409)">
					<stop  offset="0" style="stop-color:#FFDB44"/>
					<stop  offset="1" style="stop-color:#FEEF06"/>
				</linearGradient>
				<path class="st52" d="M3355.1,3197.2c-21.8,15.5-136.6-108.3-256.3-276.6c-119.7-168.3-199-317.3-177.2-332.8
					c21.8-15.5,136.6,108.3,256.3,276.6C3297.7,3032.6,3377,3181.6,3355.1,3197.2z"/>
				
					<linearGradient id="SVGID_47_" gradientUnits="userSpaceOnUse" x1="3074.686" y1="1008.8936" x2="3088.6125" y2="1125.4786" gradientTransform="matrix(0.5796 0.8149 -0.8149 0.5796 2214.3765 -230.3409)">
					<stop  offset="0" style="stop-color:#FFDB44"/>
					<stop  offset="1" style="stop-color:#FEEF06"/>
				</linearGradient>
				<path class="st53" d="M3096.2,2922.6c-106-149-202.6-315-175.2-334.5c1.5-1.1,4.5-2.4,5.6-0.9c1.1,1.5-1.5,2.3-3,3.4
					c-17.4,12.4,51.4,150.2,178,328.1c126.6,177.9,234.2,288.2,251.6,275.8c1.5-1.1,3.1-1.8,4.2-0.3c1.1,1.5-1.2,2.6-2.7,3.6
					C3327.2,3217.3,3202.2,3071.6,3096.2,2922.6z"/>
				<g>
					<path class="st21" d="M3115.7,2865.3c4.2,1.5,8.5,3.2,12.9,5.2c4.4,1.9,9.4,5,14.8,9.2c5.4,4.2,11.5,10,18.3,17.3
						c6.7,7.3,14.4,17,23,28.9c8.4,11.7,15.9,23,22.5,34c6.5,10.9,11.8,20.8,15.8,29.8c4,9,6.5,16.8,7.7,23.4
						c1.1,6.6,0.5,11.4-1.9,14.5l24.1,34.6c1.8,2.5,3.1,4.8,4.1,7c1,2.2,1.1,3.5,0.5,3.9l-2.8,2l-30.9-44.4
						c-4.6,0.9-10.5-0.8-17.9-5.1c-7.4-4.3-15.6-10.6-24.7-18.9l-9.2-17.7c-0.8-1.6-1.4-3-1.7-4.1c-0.3-1.2-0.3-1.9,0.1-2.2
						c0.5-0.4,2,0.4,4.5,2.4c2.5,2,5.3,4.2,8.6,6.6c3.2,2.4,6.6,4.6,10.2,6.6c3.5,2,6.6,2.8,9.3,2.5l-73-104.8c-4-1.3-8.1-3-12.5-5
						c-4.4-2-9.3-5.3-14.9-9.8c-5.5-4.5-11.8-10.6-18.7-18.3c-6.9-7.7-14.9-17.8-24-30.5c-6.8-9.5-13.1-19.1-18.8-28.7
						c-5.7-9.6-10.3-18.5-13.8-26.7c-3.5-8.2-5.7-15.3-6.7-21.4c-0.9-6.1-0.2-10.5,2.4-13.1l-19.8-28.4c-1.8-2.5-3.1-4.8-4.2-7.1
						c-1-2.2-1.2-3.6-0.6-4l2.8-2l27.1,38.9c4.2-0.4,9.3,1.2,15.3,5c6,3.8,12.6,8.9,19.8,15.4l7.4,14.2c2.2,4.3,3,6.7,2.2,7.3
						c-0.4,0.3-1.5-0.2-3.2-1.4c-1.8-1.2-3.8-2.6-6.2-4.3c-2.4-1.6-4.9-3.1-7.5-4.4c-2.6-1.3-5-2-7.1-2L3115.7,2865.3z
						 M3044.1,2772.7c-1.3,2.1-1.7,5-1.1,8.5c0.5,3.6,1.7,7.6,3.7,12.2c1.9,4.5,4.4,9.4,7.5,14.6c3.1,5.2,6.6,10.5,10.4,15.8
						c4.5,6.2,8.6,11.5,12.4,15.8c3.8,4.3,7.4,7.9,10.8,10.8c3.4,2.9,6.6,5.3,9.6,7c3,1.8,5.9,3.2,8.8,4.4L3044.1,2772.7z
						 M3207.8,2997.6c1.3-2.1,1.6-5.2,0.9-9.1c-0.7-3.9-2.2-8.6-4.5-13.8c-2.3-5.3-5.4-11.1-9.2-17.5c-3.8-6.4-8.4-13.3-13.7-20.6
						c-4.7-6.5-9-11.9-12.9-16.2c-3.9-4.3-7.5-7.9-10.9-10.7c-3.4-2.8-6.6-5-9.5-6.5c-3-1.5-5.9-2.9-8.8-3.9L3207.8,2997.6z"/>
				</g>
				
					<linearGradient id="SVGID_48_" gradientUnits="userSpaceOnUse" x1="-1417.9614" y1="3014.1333" x2="-1404.0845" y2="3130.3035" gradientTransform="matrix(-0.5796 -0.8149 0.8149 -0.5796 -181.2018 3522.6223)">
					<stop  offset="3.597120e-03" style="stop-color:#F36F56"/>
					<stop  offset="0.3059" style="stop-color:#F99C4C"/>
					<stop  offset="0.545" style="stop-color:#FDB946"/>
					<stop  offset="0.6817" style="stop-color:#FFC444"/>
					<stop  offset="0.8038" style="stop-color:#FFC244"/>
					<stop  offset="0.8667" style="stop-color:#FEBA46"/>
					<stop  offset="0.916" style="stop-color:#FCAD49"/>
					<stop  offset="0.958" style="stop-color:#F99A4D"/>
					<stop  offset="0.9955" style="stop-color:#F58152"/>
					<stop  offset="1" style="stop-color:#F57E53"/>
				</linearGradient>
				<path class="st54" d="M3173.7,2867.5c-96.6-135.9-209.2-268.8-248.4-275c-0.2,1.5-0.5,2.9-0.8,4.3
					c29.6,7.6,128.9,112.9,243.8,274.5c117.9,165.7,185.3,296.5,179,322.6c1.4,0.1,2.8,0.2,4.2,0.4
					C3362.2,3158.6,3272.1,3005.7,3173.7,2867.5z"/>
			</g>
		</g>
		<g>
			
				<linearGradient id="SVGID_49_" gradientUnits="userSpaceOnUse" x1="-2337.186" y1="1680.7274" x2="-1499.2112" y2="2249.9175" gradientTransform="matrix(-1 0 0 1 230.2854 0)">
				<stop  offset="0" style="stop-color:#311944"/>
				<stop  offset="1" style="stop-color:#6B3976"/>
			</linearGradient>
			<path class="st55" d="M2521.4,1983.5c15.8-10.2,1.4-40,0.6-103.8c-1-78.3,19.7-92.8,3-123.5c-20.4-37.5-71.8-53.1-105.8-53.8
				c-7.5-0.2-9.3-4.3-72.2,12c-113.3,29.4-141.7-2.1-192.5,29.3c-49,30.4-27.6,63.6-75.2,99.2c-77.2,57.7-158.3-4.7-213.5,43.6
				c-52.2,45.7-53.4,162,1.5,225.5c62.2,72,174.4,50.4,249.6,36.1c15.8-3,95.7-19.8,178.9-81.2c46-34,77.6-70.3,97.7-97
				c4.7-5.3,12.1-11.7,21.8-12.8c11.7-1.2,21,5.9,25.6,9C2464.7,1982.6,2505.9,1993.5,2521.4,1983.5z"/>
			<linearGradient id="SVGID_50_" gradientUnits="userSpaceOnUse" x1="2874.1514" y1="3672.1528" x2="2577.0366" y2="1660.437">
				<stop  offset="0" style="stop-color:#FF9085"/>
				<stop  offset="1" style="stop-color:#FB6FBB"/>
			</linearGradient>
			<path class="st56" d="M2458.1,1940.6c20.3-18.5,92.6,17.1,140.5,64.4c56.3,55.5,52,100.5,101.1,169.4
				c24.4,34.3,66.3,80.4,140.5,120.8c-5.3,13.1-10.5,26.3-15.8,39.4c-35.9,2.2-106.3,0.9-172.1-42c-45.7-29.8-69.1-69.3-114.3-147.1
				C2492.9,2067.4,2432.8,1963.7,2458.1,1940.6z"/>
			
				<linearGradient id="SVGID_51_" gradientUnits="userSpaceOnUse" x1="-2707.7834" y1="2996.1592" x2="-2594.9282" y2="2996.1592" gradientTransform="matrix(-1 0 0 1 230.2854 0)">
				<stop  offset="0" style="stop-color:#311944"/>
				<stop  offset="1" style="stop-color:#6B3976"/>
			</linearGradient>
			<path class="st57" d="M2914.9,2996.1l-56.5-33.9H2833c0,0-8.7,32.3-7.7,33.9c11.4,18.6,64.2,32.8,97.2,33.9
				c5.5,0.2,13.1,0.2,15.1-3.7C2940.9,3019.6,2926,3005.5,2914.9,2996.1z"/>
			
				<linearGradient id="SVGID_52_" gradientUnits="userSpaceOnUse" x1="-2654.5603" y1="3040.6348" x2="-2486.1902" y2="2535.5227" gradientTransform="matrix(-1 0 0 1 230.2854 0)">
				<stop  offset="0" style="stop-color:#FFC444"/>
				<stop  offset="0.9964" style="stop-color:#F36F56"/>
			</linearGradient>
			<path class="st58" d="M2857.5,2925.2c-3.6,21,1,32,5.9,38.1c3.5,4.3,6.6,5.5,27.3,23.4c6.8,5.9,10.3,9.1,9.5,10.7
				c-0.9,1.9-6.9,0.9-20-2.3c-28.4-6.8-42.7-10.4-46.1-17.2c-3.2-6.2-0.4-9-0.5-25.8c-0.1-11.1-2.4-20-4.2-25.6
				C2838.7,2926,2848.1,2925.6,2857.5,2925.2z"/>
			
				<linearGradient id="SVGID_53_" gradientUnits="userSpaceOnUse" x1="-2689.8198" y1="2788.9414" x2="-2620.801" y2="2788.9414" gradientTransform="matrix(-1 0 0 1 230.2854 0)">
				<stop  offset="0" style="stop-color:#311944"/>
				<stop  offset="1" style="stop-color:#6B3976"/>
			</linearGradient>
			<path class="st59" d="M2898.3,2758.7c0,0,25.5,30.4,21.4,63.8c-4.2,33.4-48.8-15.4-55.1-31.9c-6.2-16.5-13.5-40-13.5-40
				S2882.4,2731.1,2898.3,2758.7z"/>
			
				<linearGradient id="SVGID_54_" gradientUnits="userSpaceOnUse" x1="-2729.821" y1="2978.4543" x2="-2617.1208" y2="2640.3523" gradientTransform="matrix(-1 0 0 1 230.2854 0)">
				<stop  offset="0" style="stop-color:#FFC444"/>
				<stop  offset="0.9964" style="stop-color:#F36F56"/>
			</linearGradient>
			<path class="st60" d="M2888.6,2711.1c0,0-6.9,35.5,6.3,54.2c6.6,9.3,15.4,17.2,12.8,24.8c-1.7,5.1-8.4,8.7-14,8.2
				c-10.8-1.1-16.7-17.6-20.9-29.2c-6.2-17.2-9.7-54-9.7-54L2888.6,2711.1z"/>
			
				<linearGradient id="SVGID_55_" gradientUnits="userSpaceOnUse" x1="-2590.9534" y1="2408.8337" x2="-2506.8933" y2="2894.8062" gradientTransform="matrix(-1 0 0 1 230.2854 0)">
				<stop  offset="0" style="stop-color:#AB316D"/>
				<stop  offset="1" style="stop-color:#792D3D"/>
			</linearGradient>
			<path class="st61" d="M2868.2,2741c7.8-2.9,15.7-5.7,23.5-8.6c12.2-28,27.2-73.9,22.2-129.7c-12.8-143.5-145.6-219.6-160.3-227.7
				c-36.2,18.1-72.8,43.7-74.1,76c-1.7,40.5,53.5,61.9,105.4,121.2C2816,2607.7,2849.3,2660.7,2868.2,2741z"/>
			
				<linearGradient id="SVGID_56_" gradientUnits="userSpaceOnUse" x1="-2472.2407" y1="2984.782" x2="-2352.7173" y2="2606.51" gradientTransform="matrix(-1 0 0 1 230.2854 0)">
				<stop  offset="0" style="stop-color:#AB316D"/>
				<stop  offset="1" style="stop-color:#792D3D"/>
			</linearGradient>
			<path class="st62" d="M2859.8,2941.6c25.9-101.3,19.3-183.9,11.8-231.5c-11.3-71.9-34.3-218.3-132-272.9
				c-21.3-11.9-51.8-22.6-89-55.7c-31-27.7-50.8-56.8-62.7-77.3c-130.7-38.3-251.2-22.8-304.4,47.3c-6.1,8.1-21.5,25.7-24.5,51.6
				c-6.7,58.4,50.7,128.8,115.1,143.5c81.9,18.7,129.4-65.4,201.9-37.4c20.3,7.8,37.5,27.2,71.9,66c43.8,49.3,68.4,94.9,77.7,113.1
				c27.7,54.2,48.7,94.3,51.8,146.2c0.7,12.1,1.1,36.5,15.3,62.9c10.9,20.2,25.6,33.7,36.6,42
				C2839.5,2940.1,2849.6,2940.8,2859.8,2941.6z"/>
			
				<linearGradient id="SVGID_57_" gradientUnits="userSpaceOnUse" x1="-2472.2302" y1="2984.7864" x2="-2352.7065" y2="2606.5142" gradientTransform="matrix(-1 0 0 1 230.2854 0)">
				<stop  offset="0" style="stop-color:#AB316D"/>
				<stop  offset="1" style="stop-color:#792D3D"/>
			</linearGradient>
			<path class="st63" d="M2259,2403.1c3-25.9,18.4-43.5,24.5-51.6c53.2-70.1,173.7-85.6,304.4-47.3c11.9,20.5,31.6,49.6,62.7,77.3
				c37.2,33.1,67.7,43.8,89,55.7c59.7,33.3,91.4,100.9,109.7,164.8c-27.1-42.1-50.4-53.3-68.4-53.5c-25.7-0.3-37.2,21.7-68,18.7
				c-32.8-3.2-40.4-30.4-67-33.5c-8-0.9-17.8,0.3-29.6,6.6c-15.7-16.5-27.4-26.2-40.4-31.2c-72.5-28-120.1,56.1-201.9,37.4
				C2309.7,2531.9,2252.3,2461.5,2259,2403.1z"/>
			
				<linearGradient id="SVGID_58_" gradientUnits="userSpaceOnUse" x1="-2304.0442" y1="2359.7852" x2="-2220.178" y2="2844.6379" gradientTransform="matrix(-1 0 0 1 230.2854 0)">
				<stop  offset="0" style="stop-color:#AB316D"/>
				<stop  offset="1" style="stop-color:#792D3D"/>
			</linearGradient>
			<path class="st64" d="M2792.1,2482.5c-14.8-0.8-37.6-1.2-65,1.5c-130.4,12.9-166.3,77.4-274.1,93.1
				c-25.5,3.7-139,20.3-188.2-45.3c-35.3-47.1-30-128.3,8.7-160.2c16.3-13.5,32.5-13.1,137.1-12.2c39.4,0.4,78.8,0.5,118.2,1
				c166.8,2.1,198.7-9.4,229,18.2C2772,2391.4,2792.7,2419.1,2792.1,2482.5z"/>
			<g>
				<g>
					<linearGradient id="SVGID_59_" gradientUnits="userSpaceOnUse" x1="2646.4221" y1="3705.7886" x2="2349.3074" y2="1694.0718">
						<stop  offset="0" style="stop-color:#FF9085"/>
						<stop  offset="1" style="stop-color:#FB6FBB"/>
					</linearGradient>
					<path class="st65" d="M2630.3,2313.2c0,0-82.7,16.2-170,31.7c-98.7,17.5-203.2,34.3-200.5,25.8c28.3-86.7-0.1-143.7-20.5-207.8
						c-12.2-38.1-21.5-78.8-14.2-129.8c20.2-142.5,214.8-85.8,214.8-85.8c63.1,2.6,70,9.2,75.8,15.6c40.4,44.6,51.6,96.5,51.6,96.5
						c10,46.5-1.3,64.4,0,103.7C2568.5,2199,2580.1,2250.7,2630.3,2313.2z"/>
				</g>
				<linearGradient id="SVGID_60_" gradientUnits="userSpaceOnUse" x1="2666.0972" y1="3702.8901" x2="2368.9812" y2="1691.1637">
					<stop  offset="0" style="stop-color:#FF9085"/>
					<stop  offset="1" style="stop-color:#FB6FBB"/>
				</linearGradient>
				<path class="st66" d="M2314.9,2339.2c0,0,182.6-48.9,291.4-55L2314.9,2339.2z"/>
			</g>
			<g>
				<path class="st67" d="M2397.7,1862c1.8,8.3,10.9,53-7.4,64.5c-4,2.5-11.6,3.9-26.8,6.8c-10,1.9-18.3,3-24.2,3.7
					c0.9,7.5,3.4,19.7,12,30.8c24.2,31.1,72.9,23.1,79.8,21.8c24.5-4.5,48.5-12,54.3-16.6c8.8-7,15.8-12.3,19.9-17.7
					c-9.5-4.6-28.6-16.6-41.4-20.6c-9.6-2.9-18.6-5.1-26.8-6.6c-1.3-8.6-2.7-17.3-4-25.9C2421.3,1888.8,2409.5,1875.4,2397.7,1862z"
					/>
				<path class="st67" d="M2396.8,1884.3c0,0,3.3,32.8,35.1,38.5c28.5,5.2,50-63.7,35.4-81.5c-4.9-5.9-16.9-11.6-27.3-11.3
					c-7.3,0.2-32.1,9.6-35.5,34.4c-4.9-5.2-11.1-6.7-14.1-4.5c-3.8,2.8-1.8,10.8-1.3,12.6
					C2390.7,1878.7,2394.8,1882.6,2396.8,1884.3z"/>
			</g>
			<g>
				
					<linearGradient id="SVGID_61_" gradientUnits="userSpaceOnUse" x1="-937.6679" y1="2353.4517" x2="-612.0701" y2="2353.4517" gradientTransform="matrix(-1 0 0 1 1740.2787 0)">
					<stop  offset="0" style="stop-color:#40447E"/>
					<stop  offset="0.9964" style="stop-color:#3C3B6B"/>
				</linearGradient>
				<path class="st68" d="M2670,2329.3l-297.9,14.5c-4.1,0.2-7.8,2.4-10,5.9l-8.2,13.2c-4.1,6.6,0.8,15.1,8.6,14.8l315.5-12
					L2670,2329.3z"/>
				
					<linearGradient id="SVGID_62_" gradientUnits="userSpaceOnUse" x1="-1145.8878" y1="2148.063" x2="-932.4168" y2="2359.8262" gradientTransform="matrix(-1 0 0 1 1740.2787 0)">
					<stop  offset="0" style="stop-color:#40447E"/>
					<stop  offset="0.9964" style="stop-color:#3C3B6B"/>
				</linearGradient>
				<path class="st69" d="M2979.8,2163.4l-307.8,6c-9.1,0.2-17.4,5.1-21.9,13.1l-106.6,187.5l325-12.9c8.9-0.4,17.1-5.2,21.6-12.8
					l98.7-165C2993.1,2172.1,2988,2163.2,2979.8,2163.4z"/>
				
					<linearGradient id="SVGID_63_" gradientUnits="userSpaceOnUse" x1="-1145.8872" y1="2148.0632" x2="-932.4161" y2="2359.8264" gradientTransform="matrix(-1 0 0 1 1740.2787 0)">
					<stop  offset="0" style="stop-color:#40447E"/>
					<stop  offset="0.9964" style="stop-color:#3C3B6B"/>
				</linearGradient>
				<path class="st70" d="M2650.1,2182.4c4.5-7.9,12.8-12.9,21.9-13.1l6.7-0.1c1,9.9,4.1,19,10.1,26.4c19,22.9,50.5,8.8,74,33
					c25.8,26.6,2,58.3,25,83.1c24.3,26.1,63.6,4.8,108.7,21.5l-6.5,10.9c-4.6,7.7-12.7,12.5-21.6,12.8l-325,12.9L2650.1,2182.4z"/>
			</g>
			<linearGradient id="SVGID_64_" gradientUnits="userSpaceOnUse" x1="2368.7603" y1="2058.8708" x2="2319.0146" y2="2571.2534">
				<stop  offset="0" style="stop-color:#FF9085"/>
				<stop  offset="1" style="stop-color:#FB6FBB"/>
			</linearGradient>
			<path class="st71" d="M2460.3,2344.9c-98.7,17.5-203.2,34.3-200.5,25.8c28.3-86.7-0.1-143.7-20.5-207.8l5.3-33
				c0,0,36.7,15.8,45.7,53.6c9,37.8-0.7,66,35.8,71.5c23.2,3.5,72.5,27.3,105.9,56.4c1.8,1.6,3.5,3.1,5.2,4.7
				C2447.2,2325.5,2455.3,2335.2,2460.3,2344.9z"/>
			<g>
				<linearGradient id="SVGID_65_" gradientUnits="userSpaceOnUse" x1="2460.8127" y1="3733.2036" x2="2163.698" y2="1721.4857">
					<stop  offset="0" style="stop-color:#FF9085"/>
					<stop  offset="1" style="stop-color:#FB6FBB"/>
				</linearGradient>
				<path class="st72" d="M2396.4,2319.3c3.9-10.2,7.8-20.5,11.6-30.7c-42.9-11.8-102.1-29.1-162.9-50.8
					c-9.5-3.4-20.8-7.6-24.5-17.6c-10.4-28.1,55.7-57.2,81.4-118.6c23.8-56.8,10.7-135.5-16.9-144.8
					c-57.4-19.4-260.8,233.9-188.2,340.7C2137.9,2357.7,2264.6,2367.3,2396.4,2319.3z"/>
			</g>
			<path class="st67" d="M2408,2288.6c26.9-14.3,59.1,0.4,61.2,1.3c5.9,2.8,14.5,7.8,23.2,16.6c1,1.3,12.7,17.5,8.4,22.7
				c-3.4,4.2-16.6,0.7-32.5-9.2c-6.6-0.9-16.5-1.8-28.4-0.7c-21.8,2-31.7,8.9-39.7,2.9c-5.8-4.3-7.8-13.5-5.7-20.4
				C2396.8,2294.6,2403.4,2291,2408,2288.6z"/>
		</g>
	</g>
</g>
</svg>
